<svg xmlns="http://www.w3.org/2000/svg" xmlns:xlink="http://www.w3.org/1999/xlink" viewBox="0 0 500 500" xmlns:v="https://vecta.io/nano"><style><![CDATA[.B{fill:#fff}.C{fill:#263238}.D{fill:#92e3a9}.E{stroke-miterlimit:10}.F{fill:none}.G{stroke:#263238}.H{stroke-linejoin:round}.I{stroke-linecap:round}.J{stroke-width:2}]]></style><use xlink:href="#B" class="D"/><use xlink:href="#B" opacity=".7" class="B"/><path d="M158 106.579H75c-5.523 0-10 4.477-10 10v31c0 5.523 4.477 10 10 10h82.5l10.5 14v-24-31c0-5.523-4.477-10-10-10z" class="C"/><path d="M83.066 140.71h-2.981v-18.97h2.981v8.13h3.387v-8.13h3.035v18.97h-3.035v-8.13h-3.387v8.13zm8.589-18.97h2.981v18.97h-2.981v-18.97zm8.481 0h9.214v2.71h-3.117v16.26h-2.98v-16.26h-3.117v-2.71zm13.495 18.97h-2.981v-18.97h2.981v8.13h3.388v-8.13h3.035v18.97h-3.035v-8.13h-3.388v8.13zm11.57-10.976h4.092v2.71h-4.092V138h5.149v2.71h-8.13v-18.97h8.13v2.71h-5.149v5.284zm13.223 10.976c-.163-.488-.271-.786-.271-2.331v-2.981c0-1.762-.596-2.412-1.951-2.412h-1.03v7.724h-2.981v-18.97h4.499c3.089 0 4.417 1.437 4.417 4.363v1.49c0 1.951-.623 3.225-1.951 3.848 1.49.624 1.978 2.06 1.978 4.038v2.927c0 .922.027 1.599.325 2.304h-3.035zm-3.252-16.26v5.826h1.165c1.111 0 1.788-.487 1.788-2.005v-1.87c0-1.355-.461-1.951-1.518-1.951h-1.435zm10.893 5.284h4.092v2.71h-4.092V138h5.149v2.71h-8.13v-18.97h8.13v2.71h-5.149v5.284zm7.371 6.776l-.379-6.856v-7.913h2.981v7.913l-.379 6.856h-2.223zm2.547 1.327v2.873h-2.872v-2.873h2.872z" class="D"/><path d="M298.009 107.583s-3.704-1.314-4.54 2.031 4.062 4.54 4.659 4.54 1.553-.836.956-2.748l-1.075-3.823zm21.026-8.124l-.358 6.69c0 1.912 2.031 2.628 2.987 2.628s1.434 2.27.836 4.659-2.628 3.823-7.527 3.823-7.885-2.15-8.004-3.703 1.075-8.243 3.106-10.035 8.96-4.062 8.96-4.062z" class="C E G H"/><path d="M301.115 114.154v1.798c0 .594.346 1.13.887 1.376.57.259 1.443.535 2.697.649 1.867.17 4.216-.685 5.42-1.195.482-.204.792-.679.792-1.203v-1.934c0-.535-.563-.883-1.042-.644l-.392.196c.001.001-5.853.838-8.362.957z" class="D E G H"/><path d="M298.486 98.504s-.956 3.584-1.314 8.004 0 8.482 1.792 8.602 3.465-.956 3.465-.956 4.181.478 5.615-.239l1.434-.717 1.075-7.049s.119-10.872-1.911-11.588-10.156 3.943-10.156 3.943z" class="B E G H"/><path d="M301.712 103.402l-.956 2.509s-1.911.478-1.673 1.434 1.505.804 1.505.804" class="E F G H I"/><path d="M304.784 104.486c-.196.525-.58.867-.859.764s-.345-.614-.149-1.139.58-.867.859-.764.345.613.149 1.139zm-4.505-1.203c-.196.525-.58.867-.858.764s-.345-.614-.149-1.139.58-.867.858-.764.344.613.149 1.139z" class="C"/><g class="G H"><g class="E"><path d="M303.863 101.132s2.27-.597 2.509 1.553m-5.496-2.15s-2.031-.717-2.628.956m4.181 12.663l3.226-1.314" class="F I"/><path d="M300.04 93.008s-3.823-4.54-6.69-1.195-2.031 8.363 3.106 8.602 10.872-4.779 10.872-4.779-.597 6.571.836 8.841 2.509 3.823 2.509 3.823 2.031 1.314 5.376-1.314 4.181-8.96 1.792-13.261-6.571-6.69-11.588-5.018-6.213 4.301-6.213 4.301z" class="C"/><g class="I"><path d="M308.283 108.181s4.301-3.942 4.301-1.673-2.031 4.301-3.584 3.823" class="B"/><path d="M299.077 109.992s1.887 1.443 3.885 0" class="F"/></g></g><circle transform="matrix(.6848 -.7287000000000001 .7287000000000001 .6848 21.023800000000005 256.0942)" cx="306.567" cy="103.743" r="20.192" class="F"/><circle transform="matrix(.9737 -.2277 .2277 .9737 -44.7463 106.4613)" cx="439.097" cy="247.189" r="21.341" class="F"/><g class="E"><use xlink:href="#C" class="D"/><use xlink:href="#D" class="B"/><use xlink:href="#E" class="D"/><path d="M431.366 249.49c.438-1.222 1.606-2.096 2.979-2.096 1.311 0 2.435.797 2.915 1.932m3.885.164c.438-1.222 1.606-2.096 2.979-2.096 1.31 0 2.435.797 2.915 1.932" class="F I J"/><path d="M437.571 251.651c.113.883.866 1.565 1.779 1.565s1.666-.683 1.779-1.565h-3.558z" class="B"/><path d="M456.086 252.389h0c-.751 0-1.359-.609-1.359-1.359v-3.089c0-.751.609-1.359 1.359-1.359h0c.751 0 1.359.609 1.359 1.359v3.089c0 .75-.608 1.359-1.359 1.359zm-33.979 0h0c-.751 0-1.359-.609-1.359-1.359v-3.089c0-.751.608-1.359 1.359-1.359h0c.751 0 1.359.609 1.359 1.359v3.089c0 .75-.608 1.359-1.359 1.359z" class="C"/></g></g><path d="M424.624 248.132c-.789 0-1.428-.639-1.428-1.428v-2.243c0-2.442.72-4.798 2.082-6.814.441-.653 1.329-.825 1.983-.384s.825 1.329.384 1.983c-1.042 1.542-1.592 3.345-1.592 5.215v2.243c-.001.789-.64 1.428-1.429 1.428z" class="C"/><path d="M452.244 239.169c-.229 0-.455-.11-.593-.315-1.873-2.778-4.988-4.436-8.333-4.436h-7.938c-3.341 0-6.454 1.655-8.328 4.428-.221.327-.665.413-.991.192s-.413-.665-.192-.991c2.139-3.166 5.695-5.057 9.511-5.057h7.938c3.821 0 7.378 1.894 9.517 5.066.22.327.134.771-.193.991-.122.083-.26.122-.398.122z" class="C"/><use xlink:href="#F" class="C"/><g class="E G H"><path d="M424.797 254.412h0c-1.557 0-2.819-1.262-2.819-2.818v-4.487c0-1.557 1.262-2.819 2.819-2.819h0c1.557 0 2.819 1.262 2.819 2.819v4.487c-.001 1.556-1.263 2.818-2.819 2.818z" class="B"/><use xlink:href="#G" class="D"/><path d="M453.558 254.412h0c-1.557 0-2.819-1.262-2.819-2.818v-4.487c0-1.557 1.262-2.819 2.818-2.819h0c1.557 0 2.819 1.262 2.819 2.819v4.487c0 1.556-1.262 2.818-2.818 2.818z" class="B"/><g class="D"><use xlink:href="#G" x="28.760986328125"/><path d="M439.33 243.368h0c2.021 0 3.904-1.024 5.002-2.721l1.232-1.904c-1.861-1.03-4.001-1.619-6.28-1.619-2.348 0-4.548.626-6.449 1.716l1.849 2.302c1.132 1.407 2.84 2.226 4.646 2.226z"/></g></g><g class="C"><circle cx="439.427" cy="255.471" r=".21"/><path d="M439.636 256.205c0-.116-.094-.21-.21-.21s-.21.094-.21.21.094.21.21.21.21-.094.21-.21z"/><use xlink:href="#H"/><use xlink:href="#I"/></g><g class="G H"><g class="E"><path d="M412.876 138.146h-79.561v-35.441-9.403l9.403 9.403h70.158zm0 51.357h-79.561v-35.441-9.403l9.403 9.403h70.158z" fill="#d6d6d6"/><path d="M386.443 114.902h18.724m-44.938 0h21.399m-37.448 0h12.304m21.399 5.885h27.284m-60.987 0h28.888m26.749 5.884h5.35m-35.308 0h25.678m-51.357 0h21.399m20.864 37.983h18.724m-44.938 0h21.399m-37.448 0h12.304m21.399 5.885h27.284m-60.987 0h28.888m26.749 5.884h5.35m-35.308 0h25.678m-51.357 0h21.399" class="F I"/><path d="M333.315 333.906h79.561v-85.728-9.402l-9.402 9.402h-70.159z" class="D"/><path d="M386.443 259.878h18.724m-44.938 0h21.399m-37.448 0h12.304m21.399 5.885h27.284m-60.987 0h28.888m26.749 5.885h5.35m-35.308 0h25.678m-51.357 0h21.399m20.864 4.814h18.724m-44.938 0h21.399m-37.448 0h12.304m21.399 5.885h27.284m-60.987 0h28.888m26.749 5.885h5.35m-35.308 0h25.678m-51.357 0h21.399m20.864 4.814h18.724m-44.938 0h21.399m-37.448 0h12.304m21.399 5.885h27.284m-60.987 0h28.888m26.749 5.885h5.35m-35.308 0h25.678m-51.357 0h21.399m20.864 4.814h18.724m-44.938 0h21.399m-37.448 0h12.304m21.399 5.885h27.284m-60.987 0h28.888m26.749 5.885h5.35m-35.308 0h25.678m-51.357 0h21.399" class="F I"/></g><circle cx="439.097" cy="360.242" r="21.341" class="F"/><g class="E"><use xlink:href="#C" y="113.053" class="D"/><use xlink:href="#D" y="113.053" class="B"/><use xlink:href="#E" y="113.053" class="D"/><path d="M431.366 362.543c.438-1.222 1.606-2.096 2.979-2.096 1.311 0 2.435.797 2.915 1.932m3.885.164c.438-1.222 1.606-2.096 2.979-2.096 1.31 0 2.435.797 2.915 1.932" class="F I J"/><path d="M437.571 364.704c.113.883.866 1.565 1.779 1.565s1.666-.683 1.779-1.565h-3.558z" class="B"/><path d="M456.086 365.442h0c-.751 0-1.359-.608-1.359-1.359v-3.089c0-.751.609-1.359 1.359-1.359h0c.751 0 1.359.609 1.359 1.359v3.089c0 .75-.608 1.359-1.359 1.359zm-33.979 0h0c-.751 0-1.359-.608-1.359-1.359v-3.089c0-.751.608-1.359 1.359-1.359h0c.751 0 1.359.609 1.359 1.359v3.089c0 .75-.608 1.359-1.359 1.359z" class="C"/></g></g><path d="M424.624 361.185c-.789 0-1.428-.639-1.428-1.428v-2.243c0-2.442.72-4.798 2.082-6.814.441-.653 1.329-.826 1.983-.384s.825 1.329.384 1.983c-1.042 1.542-1.592 3.345-1.592 5.215v2.243c-.001.789-.64 1.428-1.429 1.428z" class="C"/><path d="M452.244 352.222c-.229 0-.455-.11-.593-.315-1.873-2.777-4.988-4.436-8.333-4.436h-7.938c-3.341 0-6.454 1.655-8.328 4.428-.221.327-.665.413-.991.192s-.413-.665-.192-.991c2.139-3.166 5.695-5.057 9.511-5.057h7.938c3.821 0 7.378 1.894 9.517 5.065.22.327.134.771-.193.991-.122.083-.26.123-.398.123z" class="C"/><use xlink:href="#F" y="113.053" class="C"/><g class="E G H"><path d="M424.797 367.465h0c-1.557 0-2.819-1.262-2.819-2.819v-4.487c0-1.557 1.262-2.819 2.819-2.819h0c1.557 0 2.819 1.262 2.819 2.819v4.487c-.001 1.557-1.263 2.819-2.819 2.819z" class="B"/><use xlink:href="#G" y="113.053009033203" class="D"/><path d="M453.558 367.465h0c-1.557 0-2.819-1.262-2.819-2.819v-4.487c0-1.557 1.262-2.819 2.818-2.819h0c1.557 0 2.819 1.262 2.819 2.819v4.487c0 1.557-1.262 2.819-2.818 2.819z" class="B"/><g class="D"><use xlink:href="#G" x="28.760986328125" y="113.053009033203"/><path d="M439.33 356.421h0c2.021 0 3.904-1.024 5.002-2.721l1.232-1.904c-1.861-1.031-4.001-1.619-6.28-1.619-2.348 0-4.548.626-6.449 1.716l1.849 2.302c1.132 1.407 2.84 2.226 4.646 2.226z"/></g></g><g class="C"><circle cx="439.427" cy="368.524" r=".21"/><circle cx="439.427" cy="369.258" r=".21"/><use xlink:href="#H" y="113.053"/><use xlink:href="#I" y="113.053"/></g><g class="E G H"><path d="M333.315 411.827h79.561v-50.595-9.403l-9.402 9.403h-70.159z" class="D"/><g class="F"><path d="M386.443 372.931h18.724m-44.938 0h21.399m-37.448 0h12.304m21.399 5.885h27.284m-60.987 0h28.888m26.749 5.885h5.35m-35.308 0h25.678m-51.357 0h21.399m20.864 4.814h18.724m-44.938 0h21.399m-37.448 0h12.304m21.399 5.885h27.284m-60.987 0h28.888m26.749 5.885h5.35m-35.308 0h25.678m-51.357 0h21.399" class="I"/><g class="J"><path d="M452.949 55.579h-41.232c-.865 4.634-4.924 8.144-9.809 8.144h-59.094c-4.885 0-8.944-3.51-9.81-8.144h-41.232c-7.186 0-13.012 5.825-13.012 13.012v349.004c0 7.186 5.825 13.012 13.012 13.012h161.177c7.186 0 13.012-5.826 13.012-13.012V68.591c-.001-7.186-5.826-13.012-13.012-13.012z"/><path d="M465.96 79.135V68.591c0-7.186-5.826-13.012-13.012-13.012h-41.232c-.865 4.634-4.924 8.144-9.809 8.144h-59.094c-4.885 0-8.944-3.51-9.81-8.144h-41.232c-7.186 0-13.012 5.825-13.012 13.012v10.544H465.96z"/></g></g></g><g class="C"><path d="M295.916 64.999c0 2.559-2.874 3.48-2.885 5.432v.133h2.789v.861h-3.722v-.728c0-2.74 2.874-3.273 2.874-5.662 0-.873-.292-1.333-.994-1.333-.691 0-.995.497-.995 1.248v.752h-.885v-.691c0-1.297.594-2.158 1.903-2.158 1.321 0 1.915.849 1.915 2.146zm4.645-.012v.218c0 .873-.351 1.492-1.03 1.746.715.267 1.03.909 1.03 1.758v.655c0 1.297-.606 2.146-1.916 2.146-1.297 0-1.903-.849-1.903-2.146v-.582h.885v.642c0 .764.315 1.225.994 1.225.691 0 .995-.449.995-1.309v-.655c0-.837-.352-1.237-1.068-1.261h-.509v-.849h.557c.631-.024 1.019-.424 1.019-1.163v-.389c0-.873-.303-1.321-.995-1.321-.679 0-.994.472-.994 1.236v.437h-.885v-.388c0-1.297.606-2.134 1.903-2.134 1.311 0 1.917.837 1.917 2.134zm1.833.643v1.176h-.91V65.63h.91zm0 4.619v1.176h-.91v-1.176h.91zm1.915-3.855c.267-.461.691-.703 1.261-.703 1.091 0 1.576.8 1.576 2.013v1.661c0 1.297-.618 2.146-1.915 2.146s-1.904-.849-1.904-2.146v-.57h.885v.63c0 .764.316 1.225.995 1.225s.994-.461.994-1.225v-1.649c0-.764-.315-1.225-.994-1.225-.521 0-.873.291-.958.91v.194h-.885l.23-4.717h3.346v.849h-2.498l-.133 2.607zm7.556-1.419v.158h-.885v-.218c0-.764-.315-1.212-1.006-1.212-.716 0-1.031.461-1.031 1.37v1.903c.23-.582.691-.909 1.37-.909 1.091 0 1.577.788 1.577 2.013v1.285c0 1.297-.644 2.146-1.94 2.146-1.31 0-1.952-.849-1.952-2.146v-4.329c0-1.346.607-2.182 1.952-2.182 1.309-.001 1.915.824 1.915 2.121zm-2.922 3.177v1.273c0 .764.315 1.225 1.006 1.225.679 0 1.006-.461 1.006-1.225v-1.273c0-.764-.327-1.225-1.006-1.225-.691 0-1.006.461-1.006 1.225zm105.330010253906-2.804000427246h2.395999908447v5.991000175476h-2.395999908447zm3.194976806641-1.199996948242h2.395999908447v7.191999912262h-2.395999908447zm3.196014404297-.852001190186h2.395999908447v8.043999671936h-2.395999908447zm3.195007324219-1.482002258301h2.395999908447v9.526000022888h-2.395999908447zM455.912 71.175h-14.379v-8.787h14.379v8.787zm-13.58-.799h12.781v-7.189h-12.781v7.189zm1.197998779297-6.320000244141h7.589000225067v5.451000213623h-7.589000225067z"/><path d="M455.412994384766 65.746002197266h1.807999968529v2.069999933243h-1.807999968529zM436.261 69.263c-.093 0-.189-.024-.275-.076-2.926-1.739-4.86-.125-4.941-.057-.223.194-.562.169-.756-.054s-.173-.559.049-.754c.104-.091 2.577-2.21 6.198-.059.255.151.339.481.187.736-.101.171-.28.264-.462.264zm1.082-1.805c-.093 0-.189-.024-.275-.076-4.231-2.516-7.075-.082-7.104-.059-.222.197-.561.174-.757-.048s-.175-.562.048-.757c.035-.032 3.464-2.969 8.362-.059.255.151.339.482.187.736-.1.17-.278.263-.461.263zm.983-2.09c-.093 0-.189-.024-.275-.075-5.359-3.186-8.921-.187-9.07-.057-.223.194-.563.17-.757-.052s-.173-.56.049-.755c.042-.038 4.275-3.658 10.328-.059.255.151.339.481.187.736-.101.169-.279.262-.462.262z"/><path d="M434.644 70.163c0 .744-.603 1.347-1.347 1.347s-1.347-.603-1.347-1.347.603-1.347 1.347-1.347 1.347.603 1.347 1.347z"/></g><g class="G H"><g class="E"><path d="M451 446.507h21m-417 0h389m-416.354 0H42" class="F I"/><g class="C"><path d="M156.404998779297 311.837005615234h15.279999732971v132.800994873047h-15.279999732971zm-105.886795605469 57.43279786377v-9.343000411987h60.90299987793v9.343000411987z"/><path d="M47.442001342773 327.692993164063h9.343000411987v37.373001098633h-9.343000411987z"/></g><path d="M60.672 365.215c0 4.724-3.835 8.558-8.558 8.558-.282 0-.559-.016-.836-.037-4.335-.426-7.722-4.079-7.722-8.521 0-4.724 3.835-8.558 8.558-8.558 3.989 0 7.344 2.737 8.292 6.428.176.681.266 1.395.266 2.13zm.624-31.767c0 4.724-3.834 8.558-8.558 8.558-.282 0-.559-.016-.836-.037-4.335-.426-7.722-4.079-7.722-8.521 0-4.724 3.834-8.558 8.558-8.558 3.989 0 7.344 2.737 8.292 6.428.176.681.266 1.395.266 2.13z" class="B"/><path d="M64.210498443604 316.9164228302l12.447094790268-6.704239379311 2.578699695873 4.787615377998-12.447094790268 6.704239379311z" stroke-width=".999984899886" class="C"/><path d="M81.274 315.556l-6.138 3.306-3.916-7.272 6.138-3.306c2.008-1.082 4.513-.33 5.594 1.678h0c1.082 2.008.331 4.513-1.678 5.594z" class="B"/><path d="M54.4 284.725l-.436 25.364-5.437-.084.436-25.363z" class="C"/><path d="M55.871 283.2l-.107 6.971-8.259-.127.107-6.971c.035-2.281 1.912-4.101 4.193-4.066h0c2.281.035 4.101 1.912 4.066 4.193z" class="B"/><path d="M74.718 293.925L62.79 316.313l-4.803-2.549 11.927-22.387z" class="C"/><path d="M76.722 293.235l-3.267 6.159-7.297-3.871 3.267-6.159c1.069-2.015 3.569-2.782 5.584-1.713h0c2.015 1.069 2.782 3.569 1.713 5.584z" class="B"/><path d="M35.117 293.827l11.822 22.443-4.806 2.543-11.822-22.443z" class="C"/><path d="M46.206 310.096c-.494-2.895-3.241-4.841-6.136-4.346s-4.841 3.241-4.347 6.136 3.241 4.841 6.136 4.346 4.841-3.242 4.347-6.136z" class="B"/></g><circle cx="51.414" cy="305.481" r="5.317" class="B"/><g class="E B"><path d="M68.775 308.552c.446-2.902-1.545-5.617-4.447-6.063s-5.617 1.545-6.063 4.447 1.545 5.617 4.447 6.063 5.617-1.544 6.063-4.447zm-33.103-16.771l3.26 6.163-7.301 3.863-3.26-6.163c-1.067-2.016-.297-4.515 1.719-5.582h0c2.016-1.066 4.515-.297 5.582 1.719z"/><path d="M67.753 320.367c0 8.287-6.727 15.014-15.015 15.014-.495 0-.981-.028-1.467-.065-7.605-.747-13.548-7.157-13.548-14.949 0-8.288 6.727-15.015 15.015-15.015 6.998 0 12.884 4.802 14.547 11.277.309 1.197.468 2.449.468 3.738z"/><path d="M67.753 320.367c0 8.287-6.727 15.014-15.015 15.014-.495 0-.981-.028-1.467-.065-.308-1.196-.467-2.448-.467-3.737 0-8.287 6.727-15.015 15.015-15.015.495 0 .981.028 1.467.065.308 1.197.467 2.449.467 3.738z"/></g><circle transform="matrix(.2278 -.9737 .9737 .2278 -255.9538 398.9841)" cx="123.567" cy="360.861" r="20.244" class="B"/><circle transform="matrix(.9229 -.385 .385 .9229 -129.4012 75.385)" cx="123.567" cy="360.861" r="9.81" class="C"/><g class="E"><path d="M120.088 446.507h89.798l1.298-6.076c1.079-5.048-2.115-10.007-7.151-11.139-12.736-2.865-40.294-3.897-40.294-3.897-6.637.211-25.116 1.035-37.854 3.909-5.013 1.131-8.169 6.101-7.095 11.127l1.298 6.076z" class="B"/><path d="M186.605 426.885c-11.504-1.063-22.866-1.49-22.866-1.49-4.18.133-13.055.509-22.236 1.487 2.679 9.151 11.758 15.887 22.551 15.887s19.871-6.735 22.551-15.884z" class="D"/><g stroke-width="1.000003124995" class="C"><path d="M263.430479486084 396.168195826721l-5.587114246368 7.488414830208-48.813754402161-36.419993927002 5.587114246368-7.488414830208z"/><path d="M241.010803189087 431.306109481811l-7.488414830208-5.587114246368 22.349054656982-29.954460380554 7.488414830208 5.587114246368z"/></g><path d="M252.87 393.325c2.825-3.786 8.191-4.566 11.978-1.741.226.169.439.347.648.53 3.22 2.934 3.75 7.888 1.093 11.448-2.825 3.786-8.191 4.566-11.977 1.741-3.197-2.385-4.249-6.586-2.802-10.111.266-.652.62-1.278 1.06-1.867zm-19.53 23.927c2.636-3.92 7.957-4.963 11.878-2.327.234.157.455.325.673.497 3.36 2.772 4.132 7.694 1.654 11.38-2.636 3.92-7.957 4.963-11.878 2.327-3.31-2.226-4.567-6.369-3.295-9.961.235-.663.558-1.306.968-1.916z" class="B"/><path d="M221.734517059326 429.333709432983l-14.070137136841-1.382696354485.531836419773-5.411897801209 14.070137136841 1.382696354485z" stroke-width=".999993939982" class="C"/><path d="M206.778 420.953l6.939.682-.808 8.22-6.938-.681c-2.27-.223-3.929-2.244-3.706-4.514h0c.222-2.271 2.243-3.93 4.513-3.707zm13.906 3.552c4.624-6.877 13.96-8.707 20.838-4.083.411.276.798.571 1.181.873 5.894 4.864 7.249 13.498 2.902 19.965-4.624 6.878-13.96 8.707-20.838 4.083-5.808-3.905-8.013-11.174-5.78-17.475.411-1.165.978-2.293 1.697-3.363z" class="B"/><path d="M204.52 440.079l18.604-13.905 2.987 3.982-18.603 13.905z" class="C"/><path d="M202.592 439.87l5.106-3.831 4.538 6.049-5.106 3.831c-1.671 1.253-4.041.915-5.294-.755h0c-1.253-1.671-.915-4.041.756-5.294zm25.944-9.414c.632-2.868-1.18-5.705-4.047-6.337s-5.705 1.18-6.337 4.047 1.18 5.705 4.047 6.337 5.704-1.18 6.337-4.047z" class="B"/><path d="M238.403 454.058l2.756-19.083 4.091.583-2.755 19.083z" class="C"/><path d="M237.148 455.068l.748-5.246 6.215.886-.748 5.246c-.245 1.716-1.834 2.909-3.551 2.665h0c-1.716-.245-2.909-1.835-2.664-3.551zm9.701-20.757c-1.312-2.054-4.042-2.656-6.096-1.343s-2.656 4.042-1.343 6.096 4.042 2.656 6.096 1.343 2.655-4.042 1.343-6.096z" class="B"/><path d="M219.992 451.517l12.395-19.641 4.215 2.65-12.395 19.641z" class="C"/><path d="M218.116 452.012l3.397-5.404 6.403 4.024-3.397 5.404c-1.111 1.768-3.446 2.3-5.214 1.189h0c-1.768-1.11-2.3-3.445-1.189-5.213zm20.857-18.074c-.436-2.904-3.143-4.905-6.047-4.469s-4.905 3.143-4.469 6.047 3.143 4.905 6.047 4.469 4.905-3.143 4.469-6.047z" class="B"/></g><circle transform="matrix(.8408000000000001 -.5413 .5413 .8408000000000001 -162.88239999999996 168.50879999999998)" cx="205.079" cy="361.208" r="20.244" class="B"/><circle transform="matrix(.4168 -.909 .909 .4168 -208.7371 397.0521)" cx="205.079" cy="361.208" r="9.81" class="C"/><circle cx="164.044" cy="288.609" r="32.507" class="D"/><g class="E"><path d="M210.52 310.257c8.128-10.171 12.999-23.059 12.999-37.091 0-32.847-26.628-59.475-59.475-59.475s-59.475 26.628-59.475 59.475c0 14.032 4.871 26.92 12.999 37.091h92.952z" class="B"/><path d="M200.425 293.396h-74.27c-4.516 0-8.177-3.661-8.177-8.177v-26.324c0-4.516 3.661-8.177 8.177-8.177h74.27c4.516 0 8.177 3.661 8.177 8.177v26.324c-.001 4.516-3.662 8.177-8.177 8.177z" class="D"/><path d="M127.781 270.328c2.006-5.596 7.357-9.598 13.643-9.598 6.002 0 11.151 3.649 13.351 8.849m17.791.749c2.006-5.596 7.357-9.598 13.643-9.598 6.002 0 11.151 3.649 13.351 8.849" stroke-width="5" class="F I"/><path d="M156.195 280.224c.518 4.042 3.964 7.169 8.148 7.169s7.629-3.126 8.148-7.169h-16.296z" class="B"/><g class="C"><use xlink:href="#J"/><use xlink:href="#J" x="-155.617"/></g><g class="F I"><path d="M105.316 219.75c-5.312 7.863-8.413 17.341-8.413 27.544v10.274" stroke-width="14"/><path d="M223.396 219.788c-8.85-13.125-23.854-21.758-40.876-21.758h-36.355c-17.005 0-31.997 8.616-40.85 21.72" stroke-width="7"/><path d="M231.784 257.568v-10.274c0-10.187-3.092-19.651-8.388-27.506" stroke-width="14"/></g><use xlink:href="#K" class="B"/><path d="M96.375 246.503997802734h2.634000062943v46.36600112915H96.375z" class="D"/><use xlink:href="#K" x="131.721" class="B"/><path d="M228.095993041992 246.503997802734h2.634000062943v46.36600112915h-2.634000062943zM164.252 242.289h0c9.256 0 17.88-4.692 22.908-12.463l5.644-8.722c-8.525-4.719-18.326-7.414-28.759-7.414-10.753 0-20.829 2.868-29.533 7.859l8.468 10.542c5.178 6.447 13.002 10.198 21.272 10.198z" class="D"/></g></g><g class="C"><use xlink:href="#L"/><use xlink:href="#L" y="3.363"/><path d="M161.854 300.558c.507-.155.793-.692.638-1.199s-.692-.793-1.199-.638-.793.692-.639 1.199.692.793 1.2.638zm6.005 0c.508-.155.794-.692.639-1.199s-.692-.793-1.2-.638-.793.692-.639 1.199.693.793 1.2.638z"/></g><g class="E G H"><path d="M204.033 335.237c-12.736-2.865-40.294-3.897-40.294-3.897-6.637.211-25.116 1.035-37.854 3.91-5.013 1.131-8.169 6.101-7.095 11.127l11.787 55.164c1.179 5.519 6.055 9.462 11.698 9.462h21.464 2.495 21.464c5.643 0 10.519-3.944 11.698-9.462l11.787-55.164c1.08-5.049-2.114-10.007-7.15-11.14z" class="B"/><path d="M198.204 334.182c-13.81-2.067-34.465-2.842-34.465-2.842-5.396.171-18.617.748-30.218 2.502l13.363 77.161h16.855 2.495 16.959l15.011-76.821z" class="D"/><g class="B"><path d="M175.663 375.275h-22.127c-4.516 0-8.176-3.661-8.176-8.176v-10.81c0-4.516 3.661-8.176 8.176-8.176h22.127c4.516 0 8.176 3.661 8.176 8.176v10.81c0 4.515-3.661 8.176-8.176 8.176z"/><use xlink:href="#M"/><use xlink:href="#M" x="9.57699584961"/><use xlink:href="#M" x="19.15299987793"/><path d="M192.904 460.833H72.065v-62.271c0-2.761 2.239-5 5-5h110.839c2.761 0 5 2.239 5 5v62.271z"/></g><path d="M192.904 415.938c-15.183 3.855-30.76 13.651-59.797 27.455-28.008 13.315-50.922 13.091-61.042 12.054v5.387h120.839v-44.896z" class="C"/><path d="M72.065002441406 457.096008300781h120.838996887207v3.736999988556H72.065002441406zM138.713 427.198c0 3.44-2.789 6.229-6.229 6.229s-6.229-2.789-6.229-6.229 2.789-6.229 6.229-6.229 6.229 2.789 6.229 6.229z" class="B"/></g><defs ><path id="B" d="M423.716 160.478S406.851 92.822 304.671 50.146 111.222 47.023 90.389 96.985s.992 77.024-12.896 119.699-85.316 96.8-56.547 162.375 163.687 84.31 272.812 70.779 194.441-163.416 129.958-289.36z"/><path id="C" d="M446.382 253.482c0 3.92-3.178 7.098-7.098 7.098s-7.098-3.178-7.098-7.098 3.178-7.098 7.098-7.098 7.098 3.178 7.098 7.098z"/><path id="D" d="M449.432 258.209c1.775-2.221 2.838-5.035 2.838-8.099 0-7.172-5.814-12.986-12.986-12.986s-12.986 5.814-12.986 12.986c0 3.064 1.064 5.878 2.838 8.099h20.296z"/><path id="E" d="M444.354 254.527h-10.469c-2.573 0-4.659-2.086-4.659-4.659h0c0-2.573 2.086-4.659 4.659-4.659h10.469c2.573 0 4.659 2.086 4.659 4.659h0c0 2.573-2.086 4.659-4.659 4.659z"/><path id="F" d="M454.075 248.132c-.789 0-1.428-.639-1.428-1.428v-2.243c0-1.867-.549-3.667-1.587-5.208-.441-.654-.268-1.541.386-1.982s1.542-.268 1.982.386c1.358 2.014 2.076 4.367 2.076 6.804v2.243c-.001.789-.64 1.428-1.429 1.428z"/><path id="G" d="M424.509002685547 244.287994384766h.574999988079v10.123999595642h-.574999988079z"/><path id="H" d="M438.806 256.091c.111-.034.173-.151.139-.262s-.151-.173-.262-.139-.173.151-.139.262.151.173.262.139z"/><path id="I" d="M440.117 256.091c.111-.034.173-.151.139-.262s-.151-.173-.262-.139-.173.151-.14.262.153.173.263.139z"/><path id="J" d="M240.993 283.603h0c-3.438 0-6.225-2.787-6.225-6.225v-14.147c0-3.438 2.787-6.225 6.225-6.225h0c3.438 0 6.225 2.787 6.225 6.225v14.147c0 3.438-2.787 6.225-6.225 6.225z"/><path id="K" d="M101.86 292.869h-8.336c-4.827 0-8.741-3.913-8.741-8.741v-28.884c0-4.827 3.913-8.741 8.741-8.741h8.336c4.827 0 8.741 3.913 8.741 8.741v28.884c0 4.828-3.913 8.741-8.741 8.741z"/><path id="L" d="M165.657 297.717c0-.531-.43-.961-.961-.961s-.961.43-.961.961.43.961.961.961.961-.43.961-.961z"/><path id="M" d="M151.908004760742 359.303985595703h6.229000091553v6.229000091553h-6.229000091553z"/></defs></svg>