<svg xmlns="http://www.w3.org/2000/svg" xmlns:xlink="http://www.w3.org/1999/xlink" viewBox="0 0 500 500" xmlns:v="https://vecta.io/nano"><style><![CDATA[.B{fill:#ba68c8}.C{fill:#fff}.D{fill:#263238}.E{opacity:.2}.F{opacity:.3}.G{fill:#37474f}.H{opacity:.1}.I{fill:#455a64}.J{fill:#fafafa}.K{fill:#e0e0e0}.L{opacity:.4}.M{fill:#f28f8f}.N{opacity:.7}.O{opacity:.6}.P{fill:#b16668}.Q{fill:#ffbda7}.R{fill:#ffa8a7}.S{fill:#f0997a}.T{fill:#9a4a4d}]]></style><path d="M77.7 248.3c-95.2 55-95.2 144 0 199s249.5 55 344.7 0 95.2-144 0-199-249.5-55-344.7 0z" class="J"/><use xlink:href="#B" class="B"/><g class="C"><use xlink:href="#B" class="N"/><path d="M35 386.6l-1 .5c3.2-22.7-4.6-42.5-12.3-50.6a.4.4 0 1 1 .6-.5C30 344 37.8 364 35 386.6z"/></g><use xlink:href="#C" class="B"/><g class="C"><use xlink:href="#C" class="F"/><path d="M31.2 388.8l-.7.4c-2-12.4-10.6-26.8-15.8-30.2a.4.4 0 1 1 .4-.7c5.4 3.5 14 17.8 16 30.4z"/></g><use xlink:href="#D" class="B"/><g class="C"><use xlink:href="#D" class="N"/><path d="M468 325l.8.5c-3-21 4.3-39.5 11.4-47a.4.4 0 1 0-.5-.5c-7 7.6-14.4 26-11.7 47z"/></g><use xlink:href="#E" class="B"/><g class="C"><use xlink:href="#E" class="F"/><path d="M471.4 327l.7.4c2-11.6 9.8-25 14.7-28a.4.4 0 0 0 .1-.5.4.4 0 0 0-.5-.1c-5 3.3-13 16.6-15 28.3z"/></g><path d="M261 451a11.5 11.5 0 0 1-5.7-1.4l-4.3-2.5a4.8 4.8 0 0 1 0-8.9l56.3-32.6c-5-5.6-7.2-12-6.5-18.3 1-8.2 7-15.8 17-21.5 10.7-6.2 25-9.6 40-9.6s29.2 3.4 40 9.6c11 6.3 17 15 17 24s-6 17.7-17 24a81 81 0 0 1-39.9 9.6h0c-14.5 0-28.2-3.2-38.7-9l-51.6 34.8a11.7 11.7 0 0 1-6.4 1.7z" class="K"/><ellipse cx="67.4" cy="401.9" rx="44.4" ry="25.7" fill="#e6e6e6"/><g class="K"><ellipse cx="440.5" cy="339.7" rx="40.1" ry="23.1"/><path d="M170 446.4c1 3 4.4 5 9.8 5.6l93.4-54.5 10-10a.8.8 0 0 0-.8-1.3l-18.4 6zm246.3-199L368.6 220 122.8 362l39.6 23-59 34 33.2 19.2L333.8 324l-25-14.5 107.5-62z"/></g><path d="M392 356a76 76 0 0 0-68.9 0c-5.5 3.2-9.4 7-11.8 11a17.6 17.6 0 0 0-2.5 8.9v12.8c0 7.2 4.8 14.4 14.3 20a76 76 0 0 0 68.9 0c9.5-5.5 14.3-12.7 14.3-20v-13c0-7.2-4.8-14.4-14.3-19.8zm-2.7 17.6c4.5 2.6 7.8 5.6 9.6 8.7-2 3.2-5.2 6.2-9.6 8.7-8.4 4.8-19.6 7.5-31.7 7.5S334.4 396 326 391a26 26 0 0 1-9.6-8.7c2-3.2 5.2-6.2 9.6-8.7 8.4-4.8 19.6-7.5 31.7-7.5s23.3 2.6 31.7 7.5z" class="B"/><path d="M368.8 416v-18.3a79 79 0 0 1-11.1.8q-1 0-2.2 0v18.3a85.8 85.8 0 0 0 13.3-.7zm12.2-21.2a61.1 61.1 0 0 1-6.4 1.8V415q3.3-.7 6.4-1.7z" class="C H"/><path d="M309 376v12.8c0 7.2 4.8 14.4 14.3 20l1 .6v-12.8c-.4-.2-.7-.4-1-.6-9.5-5.5-14.3-12.6-14.3-19.8z" class="F"/><use xlink:href="#F" class="B"/><use xlink:href="#F" class="F"/><path d="M389.4 366.7c-8.4-4.8-19.6-7.5-31.7-7.5s-23.3 2.7-31.7 7.5a26 26 0 0 0-9.8 9 13.5 13.5 0 0 0-1.3 3.1h0a13.6 13.6 0 0 0 1.5 3.5 26 26 0 0 0 9.6 8.7c8.4 4.8 19.6 7.5 31.7 7.5s23.3-2.7 31.7-7.5c4.4-2.5 7.7-5.6 9.6-8.7.1-.1.1-.2.1-.2a13.1 13.1 0 0 0 1.3-3.2c-1.2-4.4-5-8.7-11-12.2z" class="C F"/><use xlink:href="#G" class="B"/><g class="F C"><use xlink:href="#G"/></g><g class="F C"><path d="M354 404a79.7 79.7 0 0 1-20.4-3.7 55.6 55.6 0 0 1-9.5-4.2 38.3 38.3 0 0 1-8.3-6.1 22.8 22.8 0 0 1-5.7-8.6 16.5 16.5 0 0 1-.3-10.2 21.6 21.6 0 0 1 5.3-8.8 37.1 37.1 0 0 1 8.2-6.4 36.8 36.8 0 0 0-8.3 6.3 21.6 21.6 0 0 0-5.4 8.9 16.8 16.8 0 0 0 .2 10.3 23.1 23.1 0 0 0 5.7 8.7 38.7 38.7 0 0 0 8.5 6.1 56.5 56.5 0 0 0 9.6 4.1 72.2 72.2 0 0 0 10.1 2.5 83.8 83.8 0 0 0 10.4 1z"/></g><g class="F C"><path d="M399 382a13.2 13.2 0 0 0 1.7-4.8 11.8 11.8 0 0 0-.5-5.1 15.6 15.6 0 0 0-2.5-4.6 22.8 22.8 0 0 0-3.6-3.7 39.8 39.8 0 0 0-8.8-5.4 56.4 56.4 0 0 0-9.8-3.4 66.7 66.7 0 0 0-10.2-1.8 79.7 79.7 0 0 0-10.4-.4 70.9 70.9 0 0 0-20.4 3.5 50.2 50.2 0 0 0-9.5 4.3 29.3 29.3 0 0 0-8 6.7 15.7 15.7 0 0 0-2.6 4.6 12 12 0 0 0 0 7.9 13.6 13.6 0 0 0 1.1 2.4 19.1 19.1 0 0 0 3.2 4.1 34.3 34.3 0 0 0 8.5 5.9 53.5 53.5 0 0 0 9.7 3.7 67.3 67.3 0 0 0 10.1 2 77.1 77.1 0 0 0 10.3.5 74.7 74.7 0 0 1-20.3-3 53.1 53.1 0 0 1-9.5-3.8 33.9 33.9 0 0 1-8.2-5.9 18.2 18.2 0 0 1-3.1-4 12.4 12.4 0 0 1-1.6-4.7 11.2 11.2 0 0 1 .6-4.9 15.1 15.1 0 0 1 2.5-4.3 28.4 28.4 0 0 1 7.7-6.4 49.3 49.3 0 0 1 9.3-4.2 70.2 70.2 0 0 1 20.1-3.5 76.9 76.9 0 0 1 20.3 2 56.4 56.4 0 0 1 9.7 3.2 39.2 39.2 0 0 1 8.8 5.2 23.2 23.2 0 0 1 3.6 3.6 15.1 15.1 0 0 1 2.5 4.4 11.4 11.4 0 0 1 .6 5 13 13 0 0 1-1.5 4.8z"/></g><path d="M323.4 402.4a7.6 7.6 0 0 0-3.4-6 2.4 2.4 0 0 0-2.4-.3h0l-16.6 9.5h0a2.4 2.4 0 0 0-1 2.2 7.7 7.7 0 0 0 3.4 6 2.5 2.5 0 0 0 2.4.3h0l16.6-9.5h0a2.4 2.4 0 0 0 1-2.2z" class="G"/><path d="M322.4 404.6a2.4 2.4 0 0 0 1-2.2 6.7 6.7 0 0 0-.6-2.6L301.4 412a6.7 6.7 0 0 0 1.9 1.8 2.5 2.5 0 0 0 2.4.3l16.6-9.5z" class="D"/><path d="M306 413.8a9.9 9.9 0 0 0-4.5-7.8 3.2 3.2 0 0 0-3.1-.4h0-.1 0l-43.2 22.6 8.2 14.5 41.3-26a3.2 3.2 0 0 0 1.3-2.9z" class="B"/><path d="M263.6 442.8l41.3-26a3.2 3.2 0 0 0 1.3-2.9 9.4 9.4 0 0 0-1.5-4.7l-45.3 26.3z" class="H"/><use xlink:href="#H" class="B"/><g class="E"><use xlink:href="#H"/></g><path d="M264.5 385.4l16.4-3.2a.5.5 0 0 1 .5.8l-11 12.6z" class="R"/><path d="M281.4 383a.5.5 0 0 0-.5-.8l-3.2.6h0a2.8 2.8 0 0 1 1.3 2.6v.3z" class="D"/><path d="M192.7 440l1.3-.8 1.6-1 74.6-42.8a7.4 7.4 0 0 0-.4-5.4c-1.2-2.6-3.4-4.7-5.3-4.8L190 428.2l-3 1.8c2-1 8 9 5.8 10z" class="I"/><path d="M197.8 437.2l3-1.7c1-.5.4-2.6-.7-5-1.4-3-4-6-5.2-5.2l-2.2 1.3-.8.5c1.2-.6 4 2.3 5.2 5.3 1 2.2 1.5 4.3.7 4.8h0a.2.2 0 0 1-.1.1z" fill="#ebebeb"/><path d="M198.6 436.7c2-1-3.8-11.2-6-10l-3 1.7a11 11 0 0 1 5.9 10.1z" class="B"/><path d="M192.7 440l3-1.7c2-1-3.6-11-5.7-10.2a.4.4 0 0 0-.1 0l-3 1.7c2-1 8 9 5.8 10.2z" fill="#ebebeb"/><path d="M281.5 382.5l-.6-.3-12 6.5-78 44.7c-.1-.2-.2-.2-.3-.1 1.8 2.7 3 6.2 2 6.8l1.3-.8 1.6-1 74.6-42.8h0l11-12.6a.5.5 0 0 0 .1-.5z" class="E"/><path d="M180 447.3l12.6-7.2c1-.4.4-2.6-.6-4.8-1.3-3-4-6-5.2-5.3h0l-12.6 7.2c-2.5 1.4-.2 7 2.6 9.3a3 3 0 0 0 3.3.8z" class="M"/><path d="M181 443.4c-.7-2.8-3-5.6-5-6.2a2.1 2.1 0 0 0-1.9.3c-2 1.8.3 6.8 3 9a3 3 0 0 0 3.2.8c1-.6 1.3-2 .8-4z" class="H"/><path d="M406 211.3L229.8 313c-15.4 9-28 5.8-34.8-6.7a35.1 35.1 0 0 0 14.6-5l176-101.7z" class="B"/><path d="M406 211.3L229.8 313c-15.4 9-28 5.8-34.8-6.7a35.1 35.1 0 0 0 14.6-5l176-101.7z" class="C O"/><use xlink:href="#I" class="B"/><use xlink:href="#I" class="C L"/><use xlink:href="#J" class="B"/><use xlink:href="#J" class="C O"/><path d="M190.7 294L170.4 282l-11 10.3-18-3.2 20.3 11.7 18 3.2 11-10.3z" class="B"/><path d="M190.7 294L170.4 282l-11 10.3-18-3.2 20.3 11.7 18 3.2 11-10.3z" class="C E"/><path d="M159.5 292.4l20.3 11.7-18-3.2-20.3-11.7 18 3.2z" class="B"/><path d="M348.7 265a.2.2 0 0 1 .2 0 .3.3 0 0 1 .1.2v1a.8.8 0 0 1-.1.4.6.6 0 0 1-.2.3l-5 3a.2.2 0 0 1-.2 0 .3.3 0 0 1-.1-.2v-10a.8.8 0 0 1 .1-.4.6.6 0 0 1 .2-.2l1-.5a.2.2 0 0 1 .2 0 .3.3 0 0 1 .1.2v8.5zm6-12.3c.1-.1.2-.1.3 0a.6.6 0 0 1 .2.3l3 8h0a.8.8 0 0 1-.1.4.7.7 0 0 1-.2.3l-.8.5q-.2.1-.3.1a.4.4 0 0 1-.1-.2l-.5-1.4-3.7 2-.5 2a1.3 1.3 0 0 1-.1.3.9.9 0 0 1-.3.3l-.8.5a.2.2 0 0 1-.2 0 .3.3 0 0 1-.1-.2.4.4 0 0 1 0-.1l2.8-11.4a2.2 2.2 0 0 1 .2-.5.7.7 0 0 1 .3-.3zm.6 6.4l-1.3-3.7-1.3 5zm10.6-13a.2.2 0 0 1 .2 0 .3.3 0 0 1 .1.2v6.3a8.1 8.1 0 0 1-.2 1.8 7 7 0 0 1-.6 1.7 6.2 6.2 0 0 1-1 1.5 6.5 6.5 0 0 1-1.4 1.1 3.8 3.8 0 0 1-1.5.5 1.4 1.4 0 0 1-1-.3 1.8 1.8 0 0 1-.6-1 5.4 5.4 0 0 1-.2-1.6V250a.7.7 0 0 1 .1-.3.6.6 0 0 1 .2-.2l1-.6a.2.2 0 0 1 .2 0 .3.3 0 0 1 .1.2v6.3a3.1 3.1 0 0 0 .1 1 .9.9 0 0 0 .4.5.7.7 0 0 0 .6.1 2 2 0 0 0 .7-.3 3.4 3.4 0 0 0 .7-.6 3.2 3.2 0 0 0 .6-.7 4.2 4.2 0 0 0 .4-.9 4.7 4.7 0 0 0 .1-1.2v-6.2a.7.7 0 0 1 .1-.3.5.5 0 0 1 .2-.2zm8.3 6c-.1.1-.2.1-.3 0v-.1l-3.2-4.6v6.4a.7.7 0 0 1-.1.3.6.6 0 0 1-.2.3l-1 .5a.2.2 0 0 1-.2 0 .3.3 0 0 1-.1-.2v-10a.7.7 0 0 1 .3-.6l.8-.5c.1-.1.2-.1.3 0a1.2 1.2 0 0 1 .1.1l3.2 4.6V242a.8.8 0 0 1 .1-.3.6.6 0 0 1 .2-.2l1-.5a.2.2 0 0 1 .2 0 .3.3 0 0 1 .1.2v10a.8.8 0 0 1-.1.3.6.6 0 0 1-.2.3zm8.7-8.5a.7.7 0 0 1 .3-.6l1-.5a.2.2 0 0 1 .2 0c.1 0 .1.1.1.3a7.9 7.9 0 0 1-.2 1.4 6.8 6.8 0 0 1-.6 1.5 7.4 7.4 0 0 1-1.1 1.4 6.5 6.5 0 0 1-1.5 1.2 3.3 3.3 0 0 1-1.4.5 1.6 1.6 0 0 1-1-.3 2.1 2.1 0 0 1-.7-1 5.6 5.6 0 0 1-.3-1.6v-1.3-1.3a9.9 9.9 0 0 1 .3-1.9 8.3 8.3 0 0 1 .7-1.7 7.1 7.1 0 0 1 1-1.5 6 6 0 0 1 1.4-1.1 3.7 3.7 0 0 1 1.5-.6 1.7 1.7 0 0 1 1.1.2 1.6 1.6 0 0 1 .6.8 4.1 4.1 0 0 1 .2 1.1.7.7 0 0 1-.3.6l-1 .5a.3.3 0 0 1-.2 0 .3.3 0 0 1-.1-.2 1.4 1.4 0 0 0-.2-.5.7.7 0 0 0-.3-.3 1 1 0 0 0-.6-.1 2.2 2.2 0 0 0-.8.3 3 3 0 0 0-.8.6 3.8 3.8 0 0 0-.6.8 4.1 4.1 0 0 0-.4.9 5 5 0 0 0-.1 1v1.3 1.3a3 3 0 0 0 .1.8 1.1 1.1 0 0 0 .4.5.8.8 0 0 0 .6.2 1.6 1.6 0 0 0 .8-.3 3.4 3.4 0 0 0 .8-.6 4.4 4.4 0 0 0 .6-.7 4.1 4.1 0 0 0 .4-.7 3.3 3.3 0 0 0 .2-.7zm10.3-13.3a.2.2 0 0 1 .2 0 .3.3 0 0 1 .1.2v10a.8.8 0 0 1-.1.3.6.6 0 0 1-.2.3l-1 .5a.2.2 0 0 1-.2 0 .3.3 0 0 1-.1-.2v-4l-3.5 2v4a.8.8 0 0 1-.1.3.6.6 0 0 1-.2.3l-1 .5a.2.2 0 0 1-.2 0c-.1 0-.1-.1-.1-.2v-10a.6.6 0 0 1 .1-.3.5.5 0 0 1 .2-.2l1-.6a.2.2 0 0 1 .2 0 .3.3 0 0 1 .1.2v4l3.5-2v-4a.7.7 0 0 1 .1-.3.6.6 0 0 1 .2-.2z" class="C"/><use xlink:href="#K" class="B"/><use xlink:href="#K" class="C L"/><use xlink:href="#L" class="B"/><use xlink:href="#L" class="C F"/><path d="M189 216.7l20.3 11.7-16-1-4.7-10.7h.5z" class="B"/><path d="M190.7 294c-3 3.2-7.6 7.6-10.8 10.8h-.2l-9-1.5-9-1.6-20.4-12.3 20.5 11.3 9 1.5 9 1.7-.4.1 11.2-10z" class="D"/><path d="M190.2 242.6a6.1 6.1 0 0 1-1.7 2.4 2.6 2.6 0 0 1-2.1.6 1.5 1.5 0 0 1-1.1-.6 2 2 0 0 1-.2-1.4l-3.4 1.4a.3.3 0 0 1-.1 0 .2.2 0 0 1-.1-.1.3.3 0 0 1 0-.2l.5-1a.9.9 0 0 1 .3-.4 1 1 0 0 1 .3-.1l3.2-1.3.8-1.7-2.4-.4a.2.2 0 0 1-.2-.1.3.3 0 0 1 0-.3l.5-1a.7.7 0 0 1 .2-.2.3.3 0 0 1 .2-.1l6.7 1a.2.2 0 0 1 .2.1.3.3 0 0 1 0 .3zm-2.4-2.4l-.8 2a3.1 3.1 0 0 0-.3 1.2c0 .3.2.5.6.6a1 1 0 0 0 1-.3 3.9 3.9 0 0 0 .7-1.2l.8-2zm-8.6 14a.7.7 0 0 1-.2.3.5.5 0 0 1-.2.1h-.8a.2.2 0 0 1-.2-.1.4.4 0 0 1 0-.2l2-5.7a.5.5 0 0 1 .2-.2.4.4 0 0 1 .3-.1l7.2-.1a.2.2 0 0 1 .2.1.4.4 0 0 1 0 .3l-2 5.6a.7.7 0 0 1-.2.3.5.5 0 0 1-.2.1h-.8a.2.2 0 0 1-.2-.1.3.3 0 0 1 0-.2l1.6-4.2h-2l-1.4 4a.5.5 0 0 1-.4.4h-.8a.2.2 0 0 1-.2-.1.3.3 0 0 1 0-.2l1.4-4h-1.8zM178 261l5 1.3a.4.4 0 0 1 .2.1v.3l-.3 1a.6.6 0 0 1-.2.3.5.5 0 0 1-.2.1h0-.1l-6.5-1.7a.4.4 0 0 1-.2-.1v-.3l.3-1a.7.7 0 0 1 .2-.3 1.8 1.8 0 0 1 .3-.2l8.2-4h.1.1a.2.2 0 0 1 .2.3l-.3 1a.6.6 0 0 1-.2.3 1.3 1.3 0 0 1-.2.2zm-4.2 7.4a.7.7 0 0 1 .2-.3.6.6 0 0 1 .3-.2l7.8-2a.2.2 0 0 1 .2 0 .2.2 0 0 1 0 .2l-.2 1a.5.5 0 0 1-.2.3.6.6 0 0 1-.2.2l-7.8 2a.2.2 0 0 1-.2-.3zm-.3 10a.6.6 0 0 1-.1.3.5.5 0 0 1-.2.2l-1 .3a.2.2 0 0 1-.3-.2l.8-5.5a.6.6 0 0 1 .4-.5l8-3a.2.2 0 0 1 .3.2l-.8 5.4a.6.6 0 0 1-.1.3.5.5 0 0 1-.2.2l-1 .3a.2.2 0 0 1-.3-.2l.6-4-2 .7-.6 3.7a.6.6 0 0 1-.4.5l-1 .3a.2.2 0 0 1-.3-.2l.6-3.7-2 .8zm2 6l-3.7 1a.6.6 0 0 1-.3 0c-.1 0-.1-.1-.1-.2v-1a.6.6 0 0 1 .1-.3 1.5 1.5 0 0 1 .3-.3l8-5.6h.1a.3.3 0 0 1 .2 0 .2.2 0 0 1 .1.2v1a.6.6 0 0 1-.1.3.9.9 0 0 1-.3.3l-5.3 3.8 3.3-1h.2c.1 0 .1.1.1.2v1a.6.6 0 0 1-.2.4 1.6 1.6 0 0 1-.2.2l-3.4 2.6 5.3-1.8c.1-.1.2 0 .3 0a.2.2 0 0 1 .1.2v1a.5.5 0 0 1-.1.3.6.6 0 0 1-.2.2h-.1l-7.8 2.6a.5.5 0 0 1-.3 0c-.1 0-.1-.1-.1-.2v-1a.5.5 0 0 1 .1-.3 3 3 0 0 1 .3-.3z" class="C"/><g class="B"><path d="M259.6 182.4a129 129 0 0 0-50.2 46l-16-1-7.3-17c17.8-27.5 43.7-51.8 73.6-62.8l-7 21.3z"/><use xlink:href="#M"/></g><use xlink:href="#M" class="C F"/><path d="M209.4 228.4c-4.7 0-11.4-.4-16.2-.6h-.3v-.2l-7.4-17c-5.5-3-13.6-8-20-12q10.4 5.5 20.6 11.3c.2.1.1.1.2.2 2.2 4.8 5.3 12 7.3 17l-.4-.3 16 1.5z" class="D"/><path d="M206.4 201.6a4.2 4.2 0 0 1 1-1 2.6 2.6 0 0 1 2.2-.3 4.4 4.4 0 0 1 1.2.5c.4.3 1 .6 1.3 1a4 4 0 0 1 .9 1 2.6 2.6 0 0 1 .3 2.2 4.1 4.1 0 0 1-.7 1.2l-1.6 2.2a.3.3 0 0 1-.4.1l-5.7-4.3a.3.3 0 0 1-.1-.2.3.3 0 0 1 .1-.2zm3.5.4a2.6 2.6 0 0 0-.6-.3 1.5 1.5 0 0 0-.6 0 1.7 1.7 0 0 0-.6.3 2.5 2.5 0 0 0-.6.6l-1 1.2 4 3 1-1.2a2.2 2.2 0 0 0 .4-.7 1.7 1.7 0 0 0 0-.7 1.4 1.4 0 0 0-.2-.6 2.2 2.2 0 0 0-.4-.5c-.4-.4-.8-.7-1.3-1zm8-4.4a.3.3 0 0 1 .2-.1.3.3 0 0 1 .2.1l.6.5a.3.3 0 0 1 .1.2.3.3 0 0 1-.1.2l-3.2 3.7a.3.3 0 0 1-.2.1.3.3 0 0 1-.2-.1l-5.4-4.7a.3.3 0 0 1-.1-.2.3.3 0 0 1 .1-.2l3-3.6a.3.3 0 0 1 .2-.1.3.3 0 0 1 .2.1l.6.5a.3.3 0 0 1 .1.2.3.3 0 0 1-.1.2l-2.3 2.7 1.3 1 2.2-2.5a.3.3 0 0 1 .2-.1.3.3 0 0 1 .2.1l.6.5a.3.3 0 0 1 .1.2.3.3 0 0 1-.1.2L214 199l1.4 1.2zm-1-8.2a3.1 3.1 0 0 1 1.9-1.1 2.7 2.7 0 0 1 2.6 2.6 3.1 3.1 0 0 1-1 1.9l-1.2 1.3 1.8 1.7a.3.3 0 0 1 .1.2.3.3 0 0 1-.1.2l-.6.6a.3.3 0 0 1-.4 0l-5-5a.3.3 0 0 1 0-.4zm1.3 3.8l1.2-1.2a1.8 1.8 0 0 0 .5-.9 1 1 0 0 0-1.2-1.2 1.9 1.9 0 0 0-.9.6l-1.2 1.2zm10-5.8a.3.3 0 0 1 .2-.1.3.3 0 0 1 .2.1l.5.6a.3.3 0 0 1 .1.2.2.2 0 0 1-.1.2l-3.6 3.2a.3.3 0 0 1-.4 0l-4.7-5.3a.3.3 0 0 1-.1-.2.3.3 0 0 1 .1-.2l.7-.6a.3.3 0 0 1 .2-.1.3.3 0 0 1 .2.1l4 4.5zm-1.2-3.6a3.7 3.7 0 0 1-.5-1.1 2.7 2.7 0 0 1-.1-1.1 2.9 2.9 0 0 1 .4-1.1 4.5 4.5 0 0 1 2.2-1.7 2.8 2.8 0 0 1 2.3.3 3.7 3.7 0 0 1 .9.8l.3.4.3.4.3.4c.1.1.2.3.3.4a3.9 3.9 0 0 1 .5 1.1 2.7 2.7 0 0 1 .1 1.1 2.8 2.8 0 0 1-.4 1.1 4 4 0 0 1-1 1 4.1 4.1 0 0 1-1.3.7 2.8 2.8 0 0 1-1.2.1 2.9 2.9 0 0 1-1.1-.4 3.7 3.7 0 0 1-.9-.8l-.3-.4-.3-.4-.3-.4zm4-3a1.6 1.6 0 0 0-2.4-.3 1.6 1.6 0 0 0-.4 2.4c.2.2.3.5.6.8l.6.7a1.7 1.7 0 0 0 1.2.7 1.8 1.8 0 0 0 2-1.5 1.7 1.7 0 0 0-.3-1.3l-.6-.8-.6-.7zm5.8-7.4a.3.3 0 0 1 .2 0 .3.3 0 0 1 .2.1.2.2 0 0 1 0 .1l.3 5.3 1.3 2a.3.3 0 0 1-.1.4l-.7.5a.3.3 0 0 1-.2 0 .3.3 0 0 1-.2-.1l-1.3-2-4.7-2.5-.1-.1a.4.4 0 0 1 0-.2.3.3 0 0 1 .1-.2l.7-.4a.4.4 0 0 1 .3-.1.6.6 0 0 1 .2.1l3.2 1.7-.2-3.6a.6.6 0 0 1 0-.2.5.5 0 0 1 .2-.3z" class="J"/><path d="M311 219.2l-20.3-11.7c.7-13.5-1.3-24.2-5.4-31.6h1.5c15.7-.3 25.6 15.7 24.2 43.3z" class="B"/><path d="M311 219.2l-20.3-11.7c.7-13.5-1.3-24.2-5.4-31.6h1.5c15.7-.3 25.6 15.7 24.2 43.3z" class="C E"/><use xlink:href="#N" class="B"/><use xlink:href="#N" class="C H"/><use xlink:href="#O" class="B"/><use xlink:href="#O" class="H"/><path d="M259.6 182.4l-7.4-13.4 7-21.5.2.6q-10-6-20-12 10.4 5.5 20.6 11.3l.3.2v.4l-7 21.3v-.3l6.5 13.7z" class="D"/><g class="C"><path d="M302.5 159.4c.1 0 .1.1.1.2a.7.7 0 0 1-.1.3l-.5 1a.8.8 0 0 1-.2.3.3.3 0 0 1-.2.1l-1.5-.4-4 8.4a.7.7 0 0 1-.2.3c-.1.1-.1.1-.2.1l-.7-.2c-.1 0-.1-.1-.1-.2a.5.5 0 0 1 .1-.3l3.8-8.4-1.5-.4c-.1 0-.1-.1-.1-.2a.6.6 0 0 1 .1-.3l.5-1a.7.7 0 0 1 .2-.3c.1-.1.1-.1.2-.1zm1 11.4a.2.2 0 0 1 .1.2.6.6 0 0 1-.1.3l-.6 1a.7.7 0 0 1-.2.3.2.2 0 0 1-.2 0l-3.3-1.8a.2.2 0 0 1-.1-.2.7.7 0 0 1 .1-.3l5.4-9.5a.7.7 0 0 1 .2-.2.2.2 0 0 1 .2-.1l3.2 1.8a.2.2 0 0 1 .1.2.7.7 0 0 1-.1.3l-.6 1a.8.8 0 0 1-.2.3.2.2 0 0 1-.2 0l-2.4-1.3-1.3 2.3 2.3 1.2a.2.2 0 0 1 .1.2.6.6 0 0 1-.1.3l-.6 1a.6.6 0 0 1-.2.3.2.2 0 0 1-.2 0l-2.2-1-1.4 2.4z"/><path d="M312.4 165.4a2 2 0 0 1 .6 1 3.4 3.4 0 0 1 .1 1.1 4.4 4.4 0 0 1-.3 1.1 4.2 4.2 0 0 1-.5 1 .6.6 0 0 1-.2.2h-.2l-.4-.4a.3.3 0 0 1-.1-.2 1.8 1.8 0 0 1 .1-.3 2.4 2.4 0 0 0 .1-.9 1.1 1.1 0 0 0-.4-.8 1 1 0 0 0-.4-.2.7.7 0 0 0-.4 0 1 1 0 0 0-.4.2 1.4 1.4 0 0 0-.4.4 2 2 0 0 0-.3.6 1.2 1.2 0 0 0-.1.5 3.1 3.1 0 0 0 .2.6l.4.8a4.6 4.6 0 0 1 .4 1.1 3.1 3.1 0 0 1 0 1 4.2 4.2 0 0 1-.3 1 6.9 6.9 0 0 1-.6 1.1 5.2 5.2 0 0 1-.9 1 3.2 3.2 0 0 1-1 .6 1.9 1.9 0 0 1-1 0 1.9 1.9 0 0 1-.9-.5 2.2 2.2 0 0 1-.5-.8 3.2 3.2 0 0 1-.2-1.1 4.3 4.3 0 0 1 .2-1.2 4.7 4.7 0 0 1 .6-1.3.6.6 0 0 1 .2-.2.2.2 0 0 1 .2 0l.4.4a.3.3 0 0 1 .1.2 1.1 1.1 0 0 1-.1.3l-.1.5a1.6 1.6 0 0 0-.1.5 1.5 1.5 0 0 0 .1.5 1.3 1.3 0 0 0 .3.5 1.6 1.6 0 0 0 .4.3.9.9 0 0 0 .4.1 1.1 1.1 0 0 0 .5-.2 1.6 1.6 0 0 0 .4-.4 1.5 1.5 0 0 0 .3-.6 1.5 1.5 0 0 0 0-.6 4.3 4.3 0 0 0-.3-.7l-.4-1a5.1 5.1 0 0 1-.3-.9 3.2 3.2 0 0 1 0-.9 3.9 3.9 0 0 1 .3-1 8.1 8.1 0 0 1 .7-1.1 5.5 5.5 0 0 1 .9-1 3 3 0 0 1 1-.6 1.9 1.9 0 0 1 .9-.1 1.6 1.6 0 0 1 .8.4z"/><path d="M318 173a.3.3 0 0 1 0 .2.8.8 0 0 1-.2.3l-.8 1a.6.6 0 0 1-.2.2.1.1 0 0 1-.2-.1l-1-1.4-5.8 7a.4.4 0 0 1-.2.2.1.1 0 0 1-.2 0l-.4-.6a.3.3 0 0 1 0-.2.7.7 0 0 1 .2-.3l5.8-7-1-1.4a.4.4 0 0 1 0-.2.7.7 0 0 1 .2-.3l.8-1a.5.5 0 0 1 .2-.2c.1 0 .1 0 .2.1z"/></g><path d="M295.2 279.2l15.4 1.4 7 14.5-20.3-11.7-2-4.2z" class="B"/><path d="M295.2 279.2l15.4 1.4 7 14.5-20.3-11.7-2-4.2z" class="L"/><g class="B"><path d="M311 219.2v1a158 158 0 0 1-16.8 58.9L274 267.4a158 158 0 0 0 16.8-58.9c0-.3 0-.7.1-1z"/><use xlink:href="#P"/></g><use xlink:href="#P" class="E"/><path d="M290.8 207.4l20.6 11.3-.6.1 3.7-3.8 11.4-11.4v-.1h.1l13.7-1-13.4 1.5-11 11.6-3.8 3.8-.3.3-20.4-12.4z" class="D"/><path d="M311 263.8a3.9 3.9 0 0 1 .7-1.2 3.1 3.1 0 0 1 .9-.7 3.2 3.2 0 0 1 1.2-.3 4.9 4.9 0 0 1 1.4.1 15.6 15.6 0 0 1 1.7.4 4.9 4.9 0 0 1 1.2.6 2.5 2.5 0 0 1 .8.8 2.1 2.1 0 0 1 .3 1 3.3 3.3 0 0 1-.2 1.3l-1 2.4a.3.3 0 0 1-.1.2.4.4 0 0 1-.2 0l-7.2-2a.3.3 0 0 1-.2-.1.2.2 0 0 1 0-.2zm3.7-.8a2.9 2.9 0 0 0-.7 0 1.8 1.8 0 0 0-.6.2 1.6 1.6 0 0 0-.5.4 2.4 2.4 0 0 0-.4.7l-.5 1.3 5 1.3.5-1.3a1.8 1.8 0 0 0 .1-.7 1.2 1.2 0 0 0-.2-.6 1.4 1.4 0 0 0-.4-.4 2.6 2.6 0 0 0-.6-.3l-1.6-.5zm5.8-7a.3.3 0 0 1 .2-.2.3.3 0 0 1 .2 0l.8.2a.3.3 0 0 1 .2.1.2.2 0 0 1 0 .2l-1.4 4.3a.3.3 0 0 1-.1.2.3.3 0 0 1-.2 0L313 259a.3.3 0 0 1-.2-.1.3.3 0 0 1 0-.2l1.4-4.2a.3.3 0 0 1 .1-.2.3.3 0 0 1 .2 0l.8.2a.3.3 0 0 1 .2.1.2.2 0 0 1 0 .2l-1 3.2 1.8.4 1-3a.3.3 0 0 1 .1-.2.4.4 0 0 1 .2 0l.8.2a.3.3 0 0 1 .2.1.2.2 0 0 1 0 .2l-1 3 2 .4zm.5-4.7l-5-2.8a.7.7 0 0 1-.2-.1.3.3 0 0 1 0-.2l.2-.7a.3.3 0 0 1 .1-.2.4.4 0 0 1 .2 0h0 .1l6.5 3.7a.8.8 0 0 1 .3.2.3.3 0 0 1 0 .3l-.2.8a.3.3 0 0 1-.2.2.9.9 0 0 1-.3.1l-7.8.8h-.1a.3.3 0 0 1-.2-.1.2.2 0 0 1 0-.2l.2-.7a.3.3 0 0 1 .2-.2l.2-.1zm3.4-9a.3.3 0 0 1 .1-.2.3.3 0 0 1 .2 0h.8a.3.3 0 0 1 .2.1.2.2 0 0 1 .1.2l-1 4.3a.3.3 0 0 1-.1.2.4.4 0 0 1-.2 0l-7.4-1.3a.3.3 0 0 1-.2-.1.2.2 0 0 1-.1-.2l1-4.3a.3.3 0 0 1 .1-.2.4.4 0 0 1 .2 0l.8.1a.3.3 0 0 1 .2.1.2.2 0 0 1 .1.2l-.8 3.2 1.8.3.8-3a.3.3 0 0 1 .1-.2.3.3 0 0 1 .2 0l.8.1a.4.4 0 0 1 .2.1.2.2 0 0 1 0 .2l-.7 3 2 .3zm1.6-6.8a.2.2 0 0 1 .1-.2.4.4 0 0 1 .2 0l.8.1a.3.3 0 0 1 .2.1.2.2 0 0 1 .1.2l-1 4.4a.2.2 0 0 1-.1.2.3.3 0 0 1-.2.1l-7.5-1a.3.3 0 0 1-.2-.1.2.2 0 0 1-.1-.2l.2-.8a.3.3 0 0 1 .1-.2.4.4 0 0 1 .2-.1l6.3 1zm-3.4-2a4.6 4.6 0 0 1-1.2-.4 2.6 2.6 0 0 1-.9-.7 2.4 2.4 0 0 1-.5-1 3 3 0 0 1 0-1.3 3.3 3.3 0 0 1 .5-1.2 2.7 2.7 0 0 1 .8-.8 3.2 3.2 0 0 1 1.1-.4 4.4 4.4 0 0 1 1.3-.1h.5l.6.1h.6l.5.1a4.4 4.4 0 0 1 1.2.4 2.7 2.7 0 0 1 .9.7 2.4 2.4 0 0 1 .5 1 3.1 3.1 0 0 1 0 1.3 3.4 3.4 0 0 1-.5 1.3 2.8 2.8 0 0 1-.8.8 3.1 3.1 0 0 1-1.1.4 4.5 4.5 0 0 1-1.3.1h-.5l-.6-.1h-.6zm1-4.5a2.1 2.1 0 0 0-1.4.3 1.6 1.6 0 0 0-.7 1.1 1.4 1.4 0 0 0 .3 1.2 1.9 1.9 0 0 0 1.2.6l1 .1 1 .1a2 2 0 0 0 1.4-.3 1.6 1.6 0 0 0 .6-1.1 1.4 1.4 0 0 0-.2-1.2 1.9 1.9 0 0 0-1.2-.6l-1-.1zm-2.4-6.5a2.5 2.5 0 0 1 2.9-2.4 2.6 2.6 0 0 1 1.9.8 2.5 2.5 0 0 1 .4 1.9l-.2 1.6 2.6.2a.3.3 0 0 1 .2.1.2.2 0 0 1 .1.2l-.1.8a.3.3 0 0 1-.3.3l-7.6-.6a.4.4 0 0 1-.2-.1.2.2 0 0 1-.1-.2zm3.6 2l.2-1.6a1.4 1.4 0 0 0-.1-.9 1.1 1.1 0 0 0-.9-.4 1.1 1.1 0 0 0-.9.3 1.5 1.5 0 0 0-.4.9l-.2 1.6z" class="C"/><use xlink:href="#Q" class="B"/><use xlink:href="#Q" class="E"/><use xlink:href="#R" class="B"/><use xlink:href="#R" class="F"/><path d="M234 315.2l20.3 11.7 7 13.5-7 21.5-20.3-11.7 7-21.5-7-13.5z" class="B"/><path d="M234 315.2l20.3 11.7 7 13.5-7 21.5-20.3-11.7 7-21.5-7-13.5z" class="L"/><path d="M234 315.2l20.3 11.7 7 13.5-20.3-11.7-7-13.5z" class="E"/><path d="M274 267.4l20.4 11.2 16.5 1.6.1.2 3.3 7.3 3.2 7.4c-1.2-2.4-2.4-4.8-3.6-7.2l-3.6-7.2.3.2-16.3-1.3-20.3-12.2z" class="D"/><path d="M272 328.5a5.3 5.3 0 0 1 1.4-.9 3.2 3.2 0 0 1 1.3-.3 2.6 2.6 0 0 1 1.2.3 3.9 3.9 0 0 1 1 .8 15.8 15.8 0 0 1 1.1 1.3 3.9 3.9 0 0 1 .6 1.1 2.8 2.8 0 0 1 .1 1.2 3.2 3.2 0 0 1-.5 1.2 5.6 5.6 0 0 1-1.1 1.2l-2.4 2a.4.4 0 0 1-.2.1.3.3 0 0 1-.2-.1l-4.6-5.4a.3.3 0 0 1-.1-.2.4.4 0 0 1 .1-.2zm3.6 1a2.1 2.1 0 0 0-.6-.4 1.5 1.5 0 0 0-.6-.1 1.7 1.7 0 0 0-.7.1 3 3 0 0 0-.8.5l-1.3 1 3.2 3.8 1.4-1.2a2.9 2.9 0 0 0 .6-.7 1.7 1.7 0 0 0 .3-.7 1.4 1.4 0 0 0-.1-.6 1.9 1.9 0 0 0-.3-.6 14.2 14.2 0 0 0-1.1-1.2zm9.6-4.8a.3.3 0 0 1 .2-.1.3.3 0 0 1 .2.1l.6.6a.3.3 0 0 1 .1.2.4.4 0 0 1-.1.2l-4 4a.4.4 0 0 1-.2.1.3.3 0 0 1-.2-.1l-5-5a.3.3 0 0 1-.1-.2.3.3 0 0 1 .1-.2l4-4a.4.4 0 0 1 .2-.1.3.3 0 0 1 .2.1l.6.6a.3.3 0 0 1 .1.2.3.3 0 0 1-.1.2l-3 3 1.2 1.2 2.7-2.7a.3.3 0 0 1 .2-.1.3.3 0 0 1 .2.1l.6.6a.3.3 0 0 1 .1.2.3.3 0 0 1-.1.2l-2.7 2.7 1.3 1.3zm-.8-8.7a5.4 5.4 0 0 1 1.1-1 4.2 4.2 0 0 1 1.1-.5 2.2 2.2 0 0 1 .9-.1 1.6 1.6 0 0 1 .7.3.2.2 0 0 1 .1.2.4.4 0 0 1-.1.2l-.6.7a.7.7 0 0 1-.3.2.8.8 0 0 1-.3 0 1.6 1.6 0 0 0-.7.1 2.5 2.5 0 0 0-1.3 1.2 2.1 2.1 0 0 0-.2.5 1 1 0 0 0 0 .4.6.6 0 0 0 .2.3.7.7 0 0 0 .4.2 1 1 0 0 0 .5-.1 5.1 5.1 0 0 0 .7-.4l1-.7a8.4 8.4 0 0 1 1.1-.8 3.2 3.2 0 0 1 .9-.4 1.8 1.8 0 0 1 .8 0 1.9 1.9 0 0 1 1.3 1.2 2.2 2.2 0 0 1 .1 1 3.8 3.8 0 0 1-.4 1.2 6.5 6.5 0 0 1-.9 1.3 5.8 5.8 0 0 1-1 .9 4.4 4.4 0 0 1-1.1.6 2.8 2.8 0 0 1-1 .2 1.7 1.7 0 0 1-.9-.3.2.2 0 0 1-.1-.2.4.4 0 0 1 .1-.2l.6-.7a.8.8 0 0 1 .3-.2.5.5 0 0 1 .3 0 2.2 2.2 0 0 0 .4 0 1.1 1.1 0 0 0 .4-.1 2.4 2.4 0 0 0 .5-.3 3.7 3.7 0 0 0 .6-.6 4.9 4.9 0 0 0 .4-.6 2.4 2.4 0 0 0 .3-.6 1.3 1.3 0 0 0 .1-.5.6.6 0 0 0-.2-.4.5.5 0 0 0-.4-.1 1.5 1.5 0 0 0-.6.2q-.3.2-.7.5l-1 .8a7.9 7.9 0 0 1-1 .6 2.6 2.6 0 0 1-.9.3 1.7 1.7 0 0 1-.8 0 2.2 2.2 0 0 1-.7-.4 1.7 1.7 0 0 1-.5-.8 2.2 2.2 0 0 1-.1-1 3.5 3.5 0 0 1 .3-1.1 4.8 4.8 0 0 1 .7-1.1zm10.2-.2a.4.4 0 0 1-.2.1.3.3 0 0 1-.2-.1l-5.6-4.4a.3.3 0 0 1-.1-.2.3.3 0 0 1 .1-.2l.6-.8a.4.4 0 0 1 .2-.1.3.3 0 0 1 .2.1l5.6 4.4a.3.3 0 0 1 .1.2.5.5 0 0 1-.1.3zm-1.4-6a3 3 0 0 1-.8-.9 2.5 2.5 0 0 1-.4-1.1 3.3 3.3 0 0 1 .2-1.3 6.2 6.2 0 0 1 .8-1.5 5.6 5.6 0 0 1 1.2-1.4 3.6 3.6 0 0 1 1.1-.6 2 2 0 0 1 .9-.1 2 2 0 0 1 .6.2.3.3 0 0 1 .1.2.4.4 0 0 1-.1.3l-.6 1a.4.4 0 0 1-.2.1.4.4 0 0 1-.2 0h-.2a1.5 1.5 0 0 0-.4.1 2.7 2.7 0 0 0-.6.3 3.3 3.3 0 0 0-.6.7 2.5 2.5 0 0 0-.5 1.5 1.5 1.5 0 0 0 .6 1.2 17 17 0 0 0 .7.5l.8.5a1.6 1.6 0 0 0 1.4.3 2.7 2.7 0 0 0 1.2-1 4.4 4.4 0 0 0 .4-.8 1.8 1.8 0 0 0 .2-.7 1.3 1.3 0 0 0-.2-.7 1.8 1.8 0 0 0-.6-.6v-.1l-1 1.3a.3.3 0 0 1-.2.1.3.3 0 0 1-.2 0l-.6-.4a.3.3 0 0 1-.1-.2.5.5 0 0 1 .1-.2l1.7-2.4a.4.4 0 0 1 .2-.1.3.3 0 0 1 .2 0l1 .7a3 3 0 0 1 .9.9 2.6 2.6 0 0 1 .4 1.1 3.4 3.4 0 0 1-.2 1.4 5.7 5.7 0 0 1-.8 1.5 5.6 5.6 0 0 1-1.1 1.3 3.1 3.1 0 0 1-1.2.6 2.5 2.5 0 0 1-1.2.1 3.2 3.2 0 0 1-1.2-.5l-.4-.2-.4-.3-.4-.3c-.1-.1-.3-.2-.4-.3zm12.8-11a.5.5 0 0 1-.2.2l-.2.1-5.7 1 4 2.2a.3.3 0 0 1 .1.2.4.4 0 0 1 0 .3l-.5 1a.4.4 0 0 1-.2.2.3.3 0 0 1-.2 0l-6.2-3.5a.3.3 0 0 1-.1-.2.4.4 0 0 1 .1-.2l.4-.8a.5.5 0 0 1 .3-.2l.2-.1 5.7-1-4-2.2a.3.3 0 0 1-.1-.2.4.4 0 0 1 .1-.2l.5-1a.4.4 0 0 1 .2-.2.3.3 0 0 1 .2 0l6.2 3.5a.3.3 0 0 1 .1.2.3.3 0 0 1-.1.3z" class="C"/><path d="M254.3 327l-117.7 68-20.3-11.7 117.7-68 20.3 11.7z" class="B"/><path d="M254.3 327l-117.7 68-20.3-11.7 117.7-68 20.3 11.7z" class="F"/><path d="M261.3 340.4l-7 21.5-117.7 68 7-21.5-7-13.5 117.7-68 7 13.5z" class="B"/><path d="M261.3 340.4l-7 21.5-117.7 68 7-21.5-7-13.5 117.7-68 7 13.5z" class="L"/><path d="M116.3 383l7 13.5-7 21.5 20.3 11.7 7-21.5-7-13.5-20.3-11.7z" class="B"/><path d="M116.3 383l7 13.5-7 21.5 20.3 11.7 7-21.5-7-13.5-20.3-11.7z" opacity=".5"/><path d="M116.3 383l20.3 11.7 7 13.5-20.3-11.7-7-13.5z" class="E"/><path d="M254.3 362q3-11 6.5-21.7v.4c-1.8-3.3-5.3-10-7-13.5v.2l-5-3-15-9.2 15.4 8.4 5 3 .1.1.1.1 3.5 6.7 3.4 6.8.1.2q-3.6 11-7.4 21.6z" class="D"/><path d="M183.6 380.4c1-.5 1.7-.7 2.2-.4s.8 1 .8 2a6 6 0 0 1-.8 3.1 5.8 5.8 0 0 1-2.2 2.1l-2 1v3.4a.8.8 0 0 1-.1.4.6.6 0 0 1-.2.3l-1 .5a.2.2 0 0 1-.2 0 .3.3 0 0 1-.1-.2v-10a.8.8 0 0 1 .1-.4.6.6 0 0 1 .2-.2zm-2 6l1.8-1a3.3 3.3 0 0 0 1.1-1 2.6 2.6 0 0 0 .4-1.5c0-.6-.1-1-.4-1a1.5 1.5 0 0 0-1.1.3l-1.8 1zm12.4-3.2a.2.2 0 0 1 .2 0 .3.3 0 0 1 .1.2v1a.7.7 0 0 1-.1.3.6.6 0 0 1-.2.3l-5 3a.2.2 0 0 1-.2 0 .3.3 0 0 1-.1-.2v-10a.8.8 0 0 1 .1-.4.7.7 0 0 1 .2-.2l1-.5a.2.2 0 0 1 .2 0 .3.3 0 0 1 .1.2v8.5zm6.2-12.4c.1-.1.2-.1.3 0a.7.7 0 0 1 .2.3l2.8 8a.4.4 0 0 1 0 .1.8.8 0 0 1-.1.3.6.6 0 0 1-.2.3l-.8.5c-.2.1-.3.1-.3.1a.4.4 0 0 1-.1-.2l-.5-1.4-3.7 2-.5 2a1.4 1.4 0 0 1-.1.3.8.8 0 0 1-.3.3l-.8.5a.2.2 0 0 1-.2 0 .3.3 0 0 1-.1-.2.5.5 0 0 1 0-.1l2.8-11.4a2.6 2.6 0 0 1 .2-.5.7.7 0 0 1 .3-.3zm.6 6.4l-1.3-3.7-1.3 5zm10-1.7c-.1.1-.2.1-.3 0l-.2-.1-3.2-4.5v6.4a.8.8 0 0 1-.1.4.6.6 0 0 1-.2.3l-1 .5a.2.2 0 0 1-.2 0 .3.3 0 0 1-.1-.2v-10a.7.7 0 0 1 .1-.3.6.6 0 0 1 .2-.2l.8-.5c.1-.1.2-.1.3 0v.1l3.2 4.6v-6.4a.7.7 0 0 1 .1-.4.6.6 0 0 1 .2-.2l1-.5a.2.2 0 0 1 .2 0 .3.3 0 0 1 .1.2v10a.8.8 0 0 1-.1.4.6.6 0 0 1-.2.3z" class="C"/><use xlink:href="#S" opacity=".8" class="B"/><g class="C"><use xlink:href="#S" class="E"/><path d="M380.8 63.5h0c-2-1-4.6-1-7.4.7a17.5 17.5 0 0 0-3.8 3l-6.7-4-.7-.4.2-.2a17.4 17.4 0 0 1 3.6-2.8c3-1.6 5.5-1.8 7.5-.6h0z" class="L"/><path d="M362.4 62.7l.5.5-.7-.4z" opacity=".8"/><path d="M360.6 61.3h0c-2.5-1.4-5.8-1.2-9.4.8a27 27 0 0 0-9.5 10.2l-7.4-4.3c2.5-4.4 6-8 9.5-10.2 3.8-2.2 7.3-2.2 10-.5h0zm-23.6 32l-1 .6c-3.4 2-6.5 6.3-8 11l-7.4-4.3a22.2 22.2 0 0 1 6-9.4l3-2z" class="L"/></g><use xlink:href="#T" class="B"/><g class="C"><use xlink:href="#T" class="N"/><path d="M332.4 118c-2.3 0-3.7-2.5-3.7-6.3 0-6 3.8-13.4 8.3-16l1-.6a1.9 1.9 0 0 0 .9-1.9h0a21 21 0 0 1-.2-3.2c0-10 6-21.7 13.6-26a9.7 9.7 0 0 1 4.8-1.5c4 0 6.7 4 7 10h0a1.9 1.9 0 0 0 3.5.9h0a20.2 20.2 0 0 1 6.9-7.6 7.4 7.4 0 0 1 3.6-1.1c3 0 5 3.2 5 8.2a20.5 20.5 0 0 1-.2 2.9h0a1.9 1.9 0 0 0 2.8 1.9l.5-.3a2.6 2.6 0 0 1 1.3-.4c1 0 1.4 1.5 1.4 3 0 3.4-2 7.5-4.6 9L335 117a5.4 5.4 0 0 1-2.6.8z" class="N"/></g><use xlink:href="#U" class="B"/><use xlink:href="#U" class="C E"/><path d="M82.3 131a.8.8 0 0 0-1.2-.5l-3 1.3a1.7 1.7 0 0 1-.1 1l-4.6 9.2a1.1 1.1 0 0 0 .4 1.4l7 4-1.2-.7a1 1 0 0 1-.4-1.3L84 136a1.9 1.9 0 0 0-.1-1.7 15.3 15.3 0 0 1-1.5-3.4zM99 148.3a.8.8 0 0 1-.2-.5l-.8-7.5a.8.8 0 0 0-1-.7 15.8 15.8 0 0 1-3.7.4 1.7 1.7 0 0 0-.7.2l.4 4.4a.6.6 0 0 0 .3.5h0zm17.7-44.8a29 29 0 0 1-13.1 22.7c-4.6 2.6-8.6 2.3-11-.5 2 .5 4.3-.1 7-1.7a29 29 0 0 0 13.1-22.7c0-3-.6-5.4-1.7-7 3.3.8 5.5 4 5.5 9z" class="H"/><use xlink:href="#V" class="B"/><use xlink:href="#V" class="C N"/><use xlink:href="#W" class="B"/><use xlink:href="#W" class="C O"/><g class="O C"><path d="M122 73a.3.3 0 0 1 .2 0l5 3a.4.4 0 0 1 .1.5l-4.6 9.3a2.6 2.6 0 0 0 .1 2.3 14.6 14.6 0 0 1 1.5 3.3 1.5 1.5 0 0 0 1.4 1.1 1.5 1.5 0 0 0 .6-.1l6.8-3v9a1.4 1.4 0 0 1-.5 1l-7 5a3.6 3.6 0 0 0-1.3 1.9 45 45 0 0 1-1.8 5.9 2.1 2.1 0 0 0 .6 2.3l4 3.4a.6.6 0 0 1 .1.6l-5.7 9.8a.6.6 0 0 1-.5.3h-.1l-5-1.7a1.8 1.8 0 0 0-.6-.1 2.2 2.2 0 0 0-1.6.7 44.5 44.5 0 0 1-4.2 4.5 3.6 3.6 0 0 0-1 2l-.8 8.6a1.5 1.5 0 0 1-.6.9l-7.7 4.4-.7-7.5a1.5 1.5 0 0 0-1.5-1.3 1.5 1.5 0 0 0-.3 0 15.3 15.3 0 0 1-3.2.4h-.4a2.6 2.6 0 0 0-2 1l-5.7 8.6a.4.4 0 0 1-.3.2.4.4 0 0 1-.2 0l-5-3a.4.4 0 0 1-.2-.5l4.6-9.3a2.5 2.5 0 0 0-.1-2.3 15 15 0 0 1-1.5-3.3 1.5 1.5 0 0 0-1.4-1.1 1.5 1.5 0 0 0-.6.1l-6.8 3v-9a1.5 1.5 0 0 1 .5-1l7-5a3.5 3.5 0 0 0 1.3-1.9 45.1 45.1 0 0 1 1.8-5.9 2.1 2.1 0 0 0-.6-2.3l-4-3.4a.6.6 0 0 1-.1-.6l5.7-10a.6.6 0 0 1 .5-.2h.1l5 1.7a2.1 2.1 0 0 0 .6.1 2.1 2.1 0 0 0 1.6-.6 46.7 46.7 0 0 1 4.2-4.5 3.6 3.6 0 0 0 1-2l.8-8.6a1.4 1.4 0 0 1 .6-.9l7.7-4.5.8 7.5a1.5 1.5 0 0 0 1.5 1.3 1.3 1.3 0 0 0 .3 0 15.3 15.3 0 0 1 3.2-.4h.4a2.6 2.6 0 0 0 2-1l5.7-8.6a.4.4 0 0 1 .3-.2h0m-24.3 55.5a12.5 12.5 0 0 0 6.2-1.9c7.4-4.3 13.4-14.7 13.4-23.2a11.6 11.6 0 0 0-2.2-7.3 7.1 7.1 0 0 0-5.7-2.7 12.4 12.4 0 0 0-6.2 1.9C96 99.6 90 110 90 118.6c0 6 3 10 8 10M122 72.4a1 1 0 0 0-.9.5l-5.7 8.6a1.9 1.9 0 0 1-1.5.7h-.4a15.5 15.5 0 0 0-3.4.4.8.8 0 0 1-.2 0 .8.8 0 0 1-.8-.7l-.8-7.5c0-.4-.3-.6-.5-.6a.7.7 0 0 0-.4.1l-7.7 4.5a2.1 2.1 0 0 0-.9 1.5l-.8 8.6a2.9 2.9 0 0 1-.8 1.6 45.5 45.5 0 0 0-4.2 4.5 1.5 1.5 0 0 1-1.1.5 1.3 1.3 0 0 1-.4-.1l-5-1.7a1 1 0 0 0-.3-.1 1.2 1.2 0 0 0-1 .6l-5.7 10a1.2 1.2 0 0 0 .2 1.5l4 3.4a1.5 1.5 0 0 1 .4 1.5 46.6 46.6 0 0 0-1.8 6 2.9 2.9 0 0 1-1 1.5l-7 5a2.1 2.1 0 0 0-.8 1.5v9c0 .4.2.7.5.7a.9.9 0 0 0 .3-.1l7-3a.9.9 0 0 1 .4-.1.8.8 0 0 1 .8.6 15.8 15.8 0 0 0 1.5 3.4 1.9 1.9 0 0 1 .1 1.7l-4.6 9.3a1 1 0 0 0 .4 1.3l5 3a1 1 0 0 0 1.4-.3l5.7-8.6a1.9 1.9 0 0 1 1.5-.7h.4a15.5 15.5 0 0 0 3.4-.4.8.8 0 0 1 .2 0 .8.8 0 0 1 .8.8l.8 7.5c0 .4.3.6.5.6a.7.7 0 0 0 .4-.1l7.8-4.5a2.1 2.1 0 0 0 .9-1.4l.8-8.6a2.9 2.9 0 0 1 .8-1.6 44.4 44.4 0 0 0 4.3-4.5 1.5 1.5 0 0 1 1.1-.5 1.4 1.4 0 0 1 .4.1l5 1.7a1 1 0 0 0 .3 0 1.2 1.2 0 0 0 1-.6l5.7-10a1.2 1.2 0 0 0-.2-1.5l-4-3.4a1.5 1.5 0 0 1-.4-1.5 45.2 45.2 0 0 0 1.8-6 2.9 2.9 0 0 1 1-1.5l7-5a2.1 2.1 0 0 0 .8-1.5v-9c0-.4-.2-.7-.6-.7a.7.7 0 0 0-.3.1l-7 3a1 1 0 0 1-.4.1.8.8 0 0 1-.8-.6 15.4 15.4 0 0 0-1.5-3.4 1.9 1.9 0 0 1-.1-1.7l4.6-9.3a1 1 0 0 0-.4-1.3l-5-3a1 1 0 0 0-.5-.1zM97.8 128c-4.3 0-7.2-3.4-7.2-9.3A29 29 0 0 1 103.6 96a11.8 11.8 0 0 1 5.8-1.8c4.3 0 7.2 3.4 7.2 9.3a29 29 0 0 1-13.1 22.7 11.9 11.9 0 0 1-5.9 1.8z"/></g><use xlink:href="#X" class="B"/><use xlink:href="#X" class="C E"/><path d="M152 149a1.1 1.1 0 0 0-1.6-.3l-2.2 1.4-1.6 4.3a1 1 0 0 0 .4 1.2l4.5 2.6a1 1 0 0 1-.3-1.2l2-5.3a1.9 1.9 0 0 0-.4-1.8 6.7 6.7 0 0 1-.8-.9zm13.3 6.6a.8.8 0 0 1-.4-.5l-1-3.2a1 1 0 0 0-1.4-.6 12 12 0 0 1-1.8.6 3 3 0 0 0-.6.2l.1.4a.9.9 0 0 0 .4.5h0zm1-13.6c-4 3.2-8 3-9.5-.4a9.5 9.5 0 0 0 4.9-2.2c4.7-3.7 7.8-10.7 7-15.6a7.4 7.4 0 0 0-.6-1.8c2.6-.2 4.6 1.3 5 4.4.8 5-2.3 12-7 15.6z" class="H"/><use xlink:href="#Y" class="B"/><use xlink:href="#Y" class="C N"/><use xlink:href="#Z" class="B"/><use xlink:href="#Z" class="C O"/><g class="O C"><path d="M174.6 107.8h.1l3 .7a.3.3 0 0 1 .2.1.3.3 0 0 1 0 .3l-2 5.3a2.6 2.6 0 0 0 .6 2.5 7.1 7.1 0 0 1 .7.8 1.9 1.9 0 0 0 1.5.8 1.7 1.7 0 0 0 1-.3l3.8-2.5h.1v.1l.7 4.2a1.7 1.7 0 0 1-.4 1.3l-3.8 3.5a4.1 4.1 0 0 0-1.2 2.3 24.8 24.8 0 0 1-.5 2.7 2.1 2.1 0 0 0 1.2 2.3l2.3 1a.4.4 0 0 1 .2.6l-2.6 6a1.1 1.1 0 0 1-.9.6h0-2.8-.1a2.9 2.9 0 0 0-2.3 1.2l-2 2.6a4 4 0 0 0-.8 2.5l.3 4a1.8 1.8 0 0 1-.6 1.3L166 155h-.1a.3.3 0 0 1-.1-.1l-1-3.2a1.7 1.7 0 0 0-1.6-1.2 1.9 1.9 0 0 0-.7.1 13.4 13.4 0 0 1-1.7.6 3.6 3.6 0 0 0-2.1 1.6l-2.7 5a.9.9 0 0 1-.7.4h-.1l-3-.6a.3.3 0 0 1-.2-.2.3.3 0 0 1 0-.3l2-5.3a2.6 2.6 0 0 0-.6-2.5 7 7 0 0 1-.7-.8 1.9 1.9 0 0 0-1.5-.8 1.8 1.8 0 0 0-1 .3l-3.8 2.5h-.1a.2.2 0 0 1 0-.1l-.7-4.2a1.7 1.7 0 0 1 .4-1.3l3.8-3.5a4.2 4.2 0 0 0 1.2-2.3 25.6 25.6 0 0 1 .5-2.7 2.1 2.1 0 0 0-1.2-2.3l-2.3-1a.4.4 0 0 1-.2-.6l2.6-6a1.2 1.2 0 0 1 .9-.6h0l2.8.1h.1a3 3 0 0 0 2.3-1.2c.6-1 1.3-1.8 2-2.6a3.9 3.9 0 0 0 .8-2.5l-.4-4a1.7 1.7 0 0 1 .6-1.2l4.3-3.4h.1a.2.2 0 0 1 0 .1l1 3.3a1.7 1.7 0 0 0 1.6 1.2 1.8 1.8 0 0 0 .7-.1 14.7 14.7 0 0 1 1.7-.6 3.5 3.5 0 0 0 2.1-1.6l2.7-5.2a.9.9 0 0 1 .7-.4M161 145a9.7 9.7 0 0 0 5.8-2.4c5-3.8 8-11.2 7.2-16.3-.5-3.2-2.5-5-5.3-5a9.8 9.8 0 0 0-5.8 2.4c-5 3.8-8 11-7.2 16.3.5 3.2 2.5 5 5.3 5m13.6-37.8a1.6 1.6 0 0 0-1.4.8l-2.7 5.2a2.8 2.8 0 0 1-1.6 1.2 15 15 0 0 0-1.8.6 1.1 1.1 0 0 1-.4.1 1 1 0 0 1-.9-.7l-1-3.2a.8.8 0 0 0-.7-.6.9.9 0 0 0-.5.2L159 114a2.5 2.5 0 0 0-.8 1.8l.3 4a3.2 3.2 0 0 1-.7 2 33.3 33.3 0 0 0-2 2.7 2.3 2.3 0 0 1-1.7.9h-.1l-2.8-.1h-.1a1.8 1.8 0 0 0-1.5 1l-2.6 6a1.1 1.1 0 0 0 .6 1.5l2.3 1a1.4 1.4 0 0 1 .8 1.6 23.4 23.4 0 0 0-.5 2.8 3.5 3.5 0 0 1-.9 1.9l-3.8 3.5a2.4 2.4 0 0 0-.7 1.9l.7 4.2a.7.7 0 0 0 .7.7.9.9 0 0 0 .5-.2l3.8-2.5a1.1 1.1 0 0 1 .6-.2 1.2 1.2 0 0 1 1 .5 9.6 9.6 0 0 0 .7.9 1.9 1.9 0 0 1 .4 1.8l-2 5.3a1 1 0 0 0 .7 1.3l3 .7a1.3 1.3 0 0 0 .3 0 1.6 1.6 0 0 0 1.4-.8l2.7-5.2a2.9 2.9 0 0 1 1.7-1.2 13.7 13.7 0 0 0 1.8-.6 1.3 1.3 0 0 1 .4-.1 1 1 0 0 1 .9.7l1 3.3a.7.7 0 0 0 .7.6.9.9 0 0 0 .5-.2l4.3-3.4a2.4 2.4 0 0 0 .8-1.8l-.3-4a3.3 3.3 0 0 1 .7-2l2-2.7a2.3 2.3 0 0 1 1.7-.9h.1l2.8.1h.1a1.8 1.8 0 0 0 1.5-1l2.6-6a1.1 1.1 0 0 0-.6-1.5l-2.2-1a1.4 1.4 0 0 1-.8-1.6l.5-2.8a3.5 3.5 0 0 1 .9-1.9l3.8-3.5a2.3 2.3 0 0 0 .7-1.9l-.7-4.2a.7.7 0 0 0-.7-.7.9.9 0 0 0-.5.2l-3.8 2.5a1.1 1.1 0 0 1-.6.2 1.2 1.2 0 0 1-1-.5 7.5 7.5 0 0 0-.7-.9 1.9 1.9 0 0 1-.4-1.8l2-5.3a1 1 0 0 0-.7-1.3l-3-.7a1.4 1.4 0 0 0-.3 0zm-13.6 37c-2.3 0-4-1.6-4.7-4.5-.8-5 2.3-12 7-15.6a9.1 9.1 0 0 1 5.4-2.2c2.4 0 4.2 1.5 4.7 4.5.8 5-2.3 12-7 15.6a9 9 0 0 1-5.4 2.2z"/></g><path d="M395.8 158.4L393 153l2.3-6.6v-4l-7 4v4l3 5.2a.4.4 0 0 0 .2.2h0z" class="B"/><path d="M395.8 158.4L393 153l2.3-6.6v-4l-7 4v4l3 5.2a.4.4 0 0 0 .2.2h0z" class="E"/><path d="M412.5 110.2a4.7 4.7 0 0 0-2.1-3.6l-1.7-1a4.6 4.6 0 0 0-4.2 0l-26.2 15.2a4.7 4.7 0 0 0-2.1 3.6v28.8a4.7 4.7 0 0 0 2.1 3.6l1.7 1a4.7 4.7 0 0 0 4.2 0l8.4-5 3 5.2a.5.5 0 0 0 .8-.1l3.2-9.2 10.8-6.2a4.7 4.7 0 0 0 2.1-3.6z" class="B"/><path d="M376.2 153.3a4.7 4.7 0 0 0 2.1 3.6l1.7 1a4.7 4.7 0 0 0 3.9.2c-1 .4-1.7-.2-1.7-1.4v-29a4.3 4.3 0 0 1 .6-2.1l-6-3.4a4.3 4.3 0 0 0-.6 2.1z" class="E"/><g class="C"><path d="M412.4 109.6c-.2-1-1-1.2-2-.6l-26.2 15.2a4.2 4.2 0 0 0-1.5 1.6l-6-3.4a4.3 4.3 0 0 1 1.5-1.6l26.2-15.2a4.7 4.7 0 0 1 4.2 0l1.7 1a4.7 4.7 0 0 1 2 3z" class="F"/><path d="M405 118.6a2.3 2.3 0 0 0-3 1.2l-8.6 20.5-2-2a2.3 2.3 0 0 0-3.2 3.3l4.5 4.3a2.2 2.2 0 0 0 1.6.6 2.2 2.2 0 0 0 2.1-1.4l10-23.6a2.3 2.3 0 0 0-1.2-3z"/></g><use xlink:href="#a" class="B"/><use xlink:href="#a" class="C F"/><use xlink:href="#b" class="B"/><use xlink:href="#b" class="E"/><path d="M119.7 171.4a15.2 15.2 0 0 0-7.5 2.3 37 37 0 0 0-16.7 28.9 14.9 14.9 0 0 0 1.9 7.9 10.1 10.1 0 0 1-5.2 7.9.6.6 0 0 0 .3 1.1h.1a11.6 11.6 0 0 0 6.2-1.6 12.8 12.8 0 0 0 3.8-3.5 9.5 9.5 0 0 0 2.2.3 15.1 15.1 0 0 0 7.5-2.3 37 37 0 0 0 16.8-28.9c0-7.6-3.8-12-9.3-12z" class="B"/><path d="M102.3 198a.5.5 0 0 1 .1-.2l2.2-4.5c.7-1.3 1.3-2.4 2-2.2.3.1.4.5.5 1a2 2 0 0 0 .7 1.2c.8.5 2-1 2.5-2s1.2-3 .4-3.6a1.4 1.4 0 0 0-1.2-.2c-.4.1-.7.1-1-.2-.5-.7.1-2 .8-3.2l2.4-4.3a.5.5 0 0 1 .2-.2.1.1 0 0 1 .2.1 21.3 21.3 0 0 0 1.6 2.4c1.4 2 2 1 2.6.2a2.6 2.6 0 0 0 .3-1.1 7.1 7.1 0 0 1 .7-2c.6-1 1.7-2 2.7-1a2 2 0 0 1 .8 1.6 3.7 3.7 0 0 1-.4 1.9 5.5 5.5 0 0 1-1.2 1.6 2.2 2.2 0 0 0-.7.8c-.3 1-.7 2 1.3 2.7a14.9 14.9 0 0 0 2.5.7c.1 0 .1.1.1.2a.5.5 0 0 1-.1.3l-2.2 4.5c-.7 1.3-1.3 2.4-2 2.3-.3-.1-.4-.5-.5-1a2 2 0 0 0-.7-1.2c-.8-.5-1.8.7-2.5 2s-1.2 3-.4 3.6a1.4 1.4 0 0 0 1.2.2c.4-.1.7-.1 1 .2.5.7-.1 2-.8 3.2l-2.4 4.3a.4.4 0 0 1-.2.2.1.1 0 0 1-.2-.1 21.3 21.3 0 0 0-1.6-2.4c-1.4-2-2-1-2.6-.2a2.6 2.6 0 0 0-.3 1.1 7 7 0 0 1-.7 2c-.6 1-1.7 2-2.7 1s-1-2.3-.3-3.4a5.5 5.5 0 0 1 1.2-1.6 2.2 2.2 0 0 0 .7-.8c.3-1 .7-2-1.3-2.7a17.4 17.4 0 0 0-2.5-.7c-.1 0-.1-.1-.1-.1z" class="C"/><path d="M275.6 171.4s-5 9.2-5.6 13c-.8 4-2 5-1.8 9.5 0 1 .3 3 .3 3.7a1.2 1.2 0 0 1-1.2 1.3c-1.8.1-4.2-3.5-5-7a102.5 102.5 0 0 1-1.7-12.8 5.4 5.4 0 0 1 .9-2.7 8.8 8.8 0 0 1 1-1.3c.8-1.6 1.6-5 2.4-7z" class="Q"/><path d="M256.4 182a4.2 4.2 0 0 0-.7 1.2c-.2.8 1.3 3.6 2 4.6a6.2 6.2 0 0 1 .7 4.7 10.8 10.8 0 0 0 1.7 7.4 17.6 17.6 0 0 0 8 6.8c4 1.8 5.8-.1 5.8-.1s1.6-1.8 1-2.7-18.4-21.8-18.4-21.8z" class="D"/><path d="M262.2 174.8c-.1 0-.4-.1-.7.3-.1.1-1.2 2-2 2.8s-2.7 2.5-3.2 4c.6 3.2 3.2 5.7 3.2 8.7s-.4 6.3 3.7 10.5 8.7 5 10.5 4.4 2-2.5 0-6.2c-2-4-2.6-12-2.6-12a26.8 26.8 0 0 1 0-3.3 21.3 21.3 0 0 1 .8-3.2 2.4 2.4 0 0 0 0-1.5 2.6 2.6 0 0 0-1.1-1 11.8 11.8 0 0 0-2.2-1.1 3.8 3.8 0 0 0-2.4 0c-.6.2-1 .6-1.6.7a2.2 2.2 0 0 1-2.2-.7 1.8 1.8 0 0 1-.3-2.1l.2-.6z" class="G"/><g class="J"><path d="M261 198a7.4 7.4 0 0 1 7.1-2.6c4.8.7 6.2 3.3 6.7 4.8.6 1.8 1 5-1 5.6-2.3.7-4.7.1-8.4-2.4a10.4 10.4 0 0 1-4.4-5.4zm3-14.2a.5.5 0 0 0 .4.1c.8-.3 5-.6 7 1.8.3-.2.3-.6 0-1.3a9.1 9.1 0 0 0-7.2-1.4.5.5 0 0 0-.1.8zm7.3 4.7a1.5 1.5 0 0 0-.1-1.3 9.3 9.3 0 0 0-7-1.2.5.5 0 0 0-.1.8.5.5 0 0 0 .4.1c.8-.3 4.7-.5 6.7 1.6zm1 6.7a2.7 2.7 0 0 0-.4-1.8 9.2 9.2 0 0 0-7.2-1.4.5.5 0 0 0-.3.6.6.6 0 0 0 .2.2.5.5 0 0 0 .4 0c.8-.2 5.3-.6 7.2 2.3z"/><path d="M264.5 189.8a.5.5 0 0 0 .4.1c.8-.3 4.8-.6 6.8 1.8a1.7 1.7 0 0 0-.2-1.5 9.3 9.3 0 0 0-7-1.2.5.5 0 0 0-.3.6.5.5 0 0 0 .2.2z"/></g><path d="M276.4 180.8l1 16.8c.6 5 4.5 7 7.8 10.3.7.7 2.4 2 3 2.5a1.2 1.2 0 0 1 0 1.8c-1.2 1.4-7 2.2-10.4.2s-6.8-6.8-9-8.6a28.5 28.5 0 0 1-2.2-2c-.7-.7-.6-1.4-.7-2.2l-.4-2.4-3-9.2z" class="Q"/><path d="M265.3 206.6a4 4 0 0 0 .2 1.4c.4.7 3.3 2.2 4.4 2.7a6.5 6.5 0 0 1 3.4 3.4 11.2 11.2 0 0 0 5.9 5.1 18.5 18.5 0 0 0 10.8.9c4.5-1 4.4-3.5 4.4-3.5s.1-2.5-1-2.8-28-7.2-28-7.2z" class="D"/><path d="M265.7 197.2c-.1.1-.2.2-.3.7 0 .2.2 2.3.1 3.5s-.7 3.7-.1 5.3c2.4 2.3 6 2.8 8 5.3s3.5 5.5 9.4 6.5 10-.5 11-2.2-.5-3.3-3.6-5.4c-3.7-2.5-9-8.4-9-8.4-.4-.5-1-1-1.3-1.7a6.3 6.3 0 0 1-1-3.6c0-.6-.1-1-.7-1.3a2.5 2.5 0 0 0-.9-.1 12.7 12.7 0 0 0-4.1.6 13 13 0 0 0-1.9.8c-.5.2-1.2.5-1.4 1a1.4 1.4 0 0 0-.1.7 13.8 13.8 0 0 0 .4 2.4.6.6 0 0 1 0 .3c-.2.4-1.4-1.3-1.6-1.5a3 3 0 0 0-1.4-1 1.6 1.6 0 0 1-1.1-1z" class="G"/><path d="M279 217a7.4 7.4 0 0 1 4.3-6.4c4.4-2.3 6.3-.7 7.7.3 1.6 1 4.4 3.4 3 5s-3.6 2.6-8 2.8a10.9 10.9 0 0 1-6.9-1.8zm-6.3-13.4a.5.5 0 0 0 .4-.2c.5-.7 3.7-3.3 7-2.6.2-.4-.1-.7-.7-1a9.4 9.4 0 0 0-6.9 3.1.5.5 0 0 0 .1.7.6.6 0 0 0 .3.1zm9-.6a1.5 1.5 0 0 0-.9-1.1 9.5 9.5 0 0 0-6.5 3.1.5.5 0 0 0 .4.7.5.5 0 0 0 .4-.2c.5-.7 3.5-3.2 6.6-2.6zm5 5a2.7 2.7 0 0 0-1.4-1.3 9.5 9.5 0 0 0-6.8 3.1.5.5 0 0 0 .1.7.6.6 0 0 0 .3.1.5.5 0 0 0 .4-.2c.5-.7 4-3.7 7.4-2.4zm-9.7.3a.5.5 0 0 0 .4-.2c.5-.7 3.6-3.3 6.7-2.6a1.7 1.7 0 0 0-1.1-1.1 9.6 9.6 0 0 0-6.5 3.1.5.5 0 0 0 .1.7.6.6 0 0 0 .3.1z" class="J"/><path d="M258 118s18 11 26.2 20.4c3 3.4 4.8 6.4 1 14.6l-11.7 23-36.6-49.4z" class="I"/><path d="M273.4 176.2l-22.7-40.8 1-.1c4.8-1.8 7-8 7-8a10.9 10.9 0 0 1-2.5 8l17 14.2c1.5 1.3 4.4 3.7 4.2 8.2l-1 13z" class="G"/><path d="M258 118h0l-38.5 3.6c-.2 4.6.6 12.3 3.8 17.6 2.3 4 5 6.3 14.4 12l18.8 11c1.5 1 1.3 5 2 9.3 1.2 8.4 5.6 21 5.6 21a16.9 16.9 0 0 0 13.2-2.4l-1-24.8c-.5-7.4-.4-9.2-3.8-13-3-3.2-20.7-17-20.7-17s9.3-8.5 6.5-17.2z" class="I"/><path d="M224.5 121.3c-.1 6.3.5 11 4.7 16 3-1.8 2.5-3.6 1.6-7l-.8-3.4a32.2 32.2 0 0 1-.7-6.2h.2.4a32.7 32.7 0 0 0 .6 6.1c.2 1.2.6 2.4.8 3.3 1 3.3 1.5 5.5-1.7 7.5a31.3 31.3 0 0 0 3.5 3.2 322 322 0 0 0 21.2 15l4.2 3c3.2 2.3 3.4 4 3 9.7-.3 7 3.3 17.5 5 24.5h-.6c-1.7-7.2-5.4-17.8-5-24.5.4-5.6-.1-7.2-3-9.2l-4.2-3c-5.5-3.7-14.8-10-21.3-15-8-6.4-9-12-8.8-20z" class="G"/><path d="M287.5 92.7c-1.4 1-2.8 2.7-5.2 4.6s-6 5.2-9.4 7-5 2.8-9.3-1.7a117.2 117.2 0 0 1-10.4-13.5l.3-16.2c3.5 1 5.6 3 7.7 6.5l9.2 14.2 11.4-6.6a5.3 5.3 0 0 0 2.1-2.8 24.6 24.6 0 0 1 1.1-2.8l1-2.6c.5-1.2 1-3.3 1-3.8s1-.5 1.7.8a5.1 5.1 0 0 1 .3 2.5c0 .8-.3 1.7-.1 1.8s1.3-.4 2.4-.7 2-.7 3.2-.3a1.4 1.4 0 0 1 1 1.9 1.8 1.8 0 0 1-.6.7 1.5 1.5 0 0 1 1.1.4 1.6 1.6 0 0 1 0 2.1.9.9 0 0 1 .9.8c.1.7 0 1.4-.7 1.7 0 0 .6.1.6.5a1.7 1.7 0 0 1-.6 1.5 5.4 5.4 0 0 1-2 .5s-.1.3-.8.6a16.5 16.5 0 0 1-2.3 1.2 14.6 14.6 0 0 0-3.7 1.6z" class="Q"/><path d="M270.4 93.8a7.9 7.9 0 0 0-3.5 5.2 6 6 0 0 1 3-5.9z" class="S"/><path d="M245.5 72.8c8.3-1.6 11.8 1.8 13.3 3.3s4 5.8 5.7 8.2l3.2 5s0 6.2-7.8 9.3l-7-9.2z" class="B"/><path d="M292.7 87.8a3.6 3.6 0 0 0 .9-.3 8.5 8.5 0 0 1 .9-.2l1.8-.4c-.6 0-1.2.1-1.8.2a5.7 5.7 0 0 0-.9.2 3.4 3.4 0 0 1-.9.2 1.8 1.8 0 0 1-.8-.2 1.9 1.9 0 0 1-.7-.5 1.2 1.2 0 0 1-.2-.4.4.4 0 0 1 .1-.4 1 1 0 0 1 .5-.3 3.2 3.2 0 0 0 .6.1 2.9 2.9 0 0 0 1-.2l1-.4 1.8-1-2 .7a6.9 6.9 0 0 1-1.9.6 2.5 2.5 0 0 1-.9-.2 4.9 4.9 0 0 1-.9-.5.8.8 0 0 1-.4-.8.8.8 0 0 1 .3-.5h.2c.4-.1.8-.1 1.2-.1a3.8 3.8 0 0 0 1.1-.3 9.4 9.4 0 0 0 2-1.2 6.8 6.8 0 0 1-1 .6 9.2 9.2 0 0 1-1.1.5 4.3 4.3 0 0 1-1.1.3c-.4 0-.8 0-1.2.1l-.6.1c-.2 0-.2 0-.3-.2a1 1 0 0 1 .2-1 3.6 3.6 0 0 1 1.9-1.2h0 0a1.5 1.5 0 0 1 .3-.5 4.5 4.5 0 0 1 .4-.4 4.6 4.6 0 0 0-.4.4 1.8 1.8 0 0 0-.3.4 3.5 3.5 0 0 0-2 1.2 1.6 1.6 0 0 0-.3.5.9.9 0 0 0 0 .7.6.6 0 0 0 .2.3h.1a4.3 4.3 0 0 1-2 5.3 5 5 0 0 0 2-1.3 4.1 4.1 0 0 0 1-1.7l.2.3a.4.4 0 0 0 0 .2 1.3 1.3 0 0 0 .2.5 1.9 1.9 0 0 0 .8.6 3.5 3.5 0 0 0 .6.2.5.5 0 0 0-.1.2.8.8 0 0 0 .1.4 2.8 2.8 0 0 0 .5.6 2.6 2.6 0 0 0 .3.2 1 1 0 0 0 .4.2 3.2 3.2 0 0 0 .8.1l-.7-.3a2 2 0 0 1-.3-.2 3.1 3.1 0 0 1-.3-.2 6 6 0 0 1-.5-.5.6.6 0 0 1-.1-.5 1.6 1.6 0 0 0 .4 0zm-2.5-4z" class="S"/><path d="M218.6 99l-.1 2.4c0-.8 0-1.7.1-2.4l-.1 2.8v-.2-1.5a2.3 2.3 0 0 1 0-.3V99c0-.3 0-.6.1-1h0v-.8-.2a.7.7 0 0 1 0-.1v-.3l.4-3.7c.6-5 .5-11 5-14.2l12-4.6a20.2 20.2 0 0 1 11.9-.9 10.5 10.5 0 0 1 6.2 2.4c5 4.6 5.8 12 5.8 18.5l.2 13.2c.2 4.3-.2 8.8 1.6 13 0 .1.1.3 0 .5v.2c-1.8 4-5.4 6.8-9 8.8-7.5 4-24.6 7-32.5 3.6l-1.4-17-.2-17z" class="J"/><path d="M243.7 74a26.3 26.3 0 0 1 4.3.5h.2a9.2 9.2 0 0 1 5.4 2.1c4.7 4.2 5.3 11.3 5.4 17.6v13.2c0 1 .1 1.8.1 2.7 0 3.4.1 7 1.4 10.2h-.1v.3a19.2 19.2 0 0 1-8.4 7.8 56 56 0 0 1-23.4 4.9 24.3 24.3 0 0 1-7.4-1.1 104.2 104.2 0 0 1-1-12.2l-.2-4-.2-4.7-.3-9.7h0v-.1h0v-1.4-.5-.5h-1.2 0 1.3v-.6-.4l.1-.8v-.5-.2l.4-3.7c.1-.7.2-1.5.2-2.2.4-4.3 1-8.7 4.3-11l7.4-3 4.4-1.7a18.1 18.1 0 0 1 7-1.2m-25 25h0m25-26.3a19.4 19.4 0 0 0-7.4 1.4l-12 4.6c-4.6 3-4.5 9-5 14.2l-.4 3.7v.3a.7.7 0 0 0 0 .1v.2.8a.3.3 0 0 1 0 .1v1c-.1.3 0 .6 0 .8a2.3 2.3 0 0 0 0 .3v1.5.2c0-1 0-2 .1-2.8l-.1 2.4c0-.8 0-1.7.1-2.4-.4 5 .3 12 .4 17l1.4 17a23.9 23.9 0 0 0 8.5 1.4 57 57 0 0 0 24-5c3.7-2 7.3-5 9-8.8v-.2c.1-.2.1-.3 0-.5-1.8-4-1.4-8.5-1.6-13l-.2-13.2c-.1-6.5-.7-14-5.8-18.5a10.5 10.5 0 0 0-6.2-2.4 29.7 29.7 0 0 0-4.5-.5zm-25 26.3zm0 0z" class="K"/><path d="M233 71.3c-.5-3-4-7-5.2-9.5s-2-4.5-1.8-7c.1-1.4 1-3.3 2-3.7a6.5 6.5 0 0 1 4.9-8 21.8 21.8 0 0 0 2.9-.8c1-.5 1.4-1.4 2.3-2 1.6-1.3 4.2-1.3 5.2.7 1-1.3 2.5-1.3 4-1a2.8 2.8 0 0 1 2.1 3.2 2.9 2.9 0 0 1 4.4 1.6c.1 1-.1 1.8.5 2.6a1.5 1.5 0 0 0 2.4.2c.2 1.4-.3 2.4-1.8 2.3a3 3 0 0 1 .3 2.6 2.8 2.8 0 0 1-2.5 1.9 4.8 4.8 0 0 1-.7 2 4.9 4.9 0 0 1-1.7 1.5 29.9 29.9 0 0 1-7.1 1.8l-2.8.5c-.2 0-1 .1-1 .2z" class="D"/><path d="M228.8 66.6c2 1.3 4-.8 4-.8l-.6 10.8c1.8 3.8 8.7 6.4 13 5 2.7-1 1.6-3 0-5.2v-2.8a18.3 18.3 0 0 0 2.7-.1c2.3-.3 4-2.2 4.8-4.7a26.4 26.4 0 0 0 .4-10.1 8.8 8.8 0 0 1-.1-2.5 11.6 11.6 0 0 0-.7-5.3c-2.6-2-8.5-3-14 .4.6 3.3-.7 6-3 7.2.1 1 .2 3-1.3 3-1 0-1-1.4-2.2-2.5s-3.6-1.5-4.6.2a5.7 5.7 0 0 0 1.7 7.4z" class="Q"/><path d="M238.3 57l-7 1.8a2.8 2.8 0 0 1 1 1.1l6.2-1.4z" class="D"/><path d="M254.5 55.8a13.4 13.4 0 0 0-5 .4c-1.4.5-2 1-2.7 1.2s-1.4-.5-3-1a14.4 14.4 0 0 0-4.9.1c-.6 0-1 .2-1 1s.5.8.7 1.4c.3 2.2 1 5 3.8 4.7 4.7-.2 2.8-5 4.7-5 .7.1.7 1.5 1.2 2.5a4.3 4.3 0 0 0 .9 1.3c1.8 1.6 5 .4 5.2-1.4a18.8 18.8 0 0 0 .4-2.9c.1-.5.5-.7.5-1.4-.2-.5-.4-1-.7-1zm-9.5 4.5a3.4 3.4 0 0 1-.7 1.6h0c-1 1.5-4.2 1.3-4.8-.6h0c0-.1-.1-.2-.1-.3-.3-.8-.6-2.6-.2-3.2.8-1 4.5-1 5.6.3a3.7 3.7 0 0 1 .1 2.3zm8.8-.8a2.7 2.7 0 0 1-4.8 1.8 4.7 4.7 0 0 1-.6-3.5 4 4 0 0 1 2.4-1.2 3.6 3.6 0 0 1 2.8.4c.3.3.3 1.8.2 2.6z" class="G"/><path d="M245.8 60.5l.8 4.7 3.7-1.2c-.1-.2-2-4.5-3.5-5.3-.7 0-.7 1-1 1.8zm-.6 13c-3.7-.2-7.4-1-9.3-3.7a23.5 23.5 0 0 1-2.2-4.4 14.4 14.4 0 0 0 1.5 5.5c1.4 2.3 4 3.6 10 4.2z" class="S"/><path d="M243 59.3a1.1 1.1 0 0 1-1 1.1 1.1 1.1 0 0 1-1.1-1.1 1.1 1.1 0 1 1 2.1-.1zm-.3-5l-2.3 1.2a1.3 1.3 0 0 1 .6-1.8 1.3 1.3 0 0 1 1.7.6z" class="D"/><path d="M242.8 65.4l3.4 1a1.9 1.9 0 0 1-2.3 1.2 1.8 1.8 0 0 1-1.1-2.3z" class="P"/><path d="M244.8 67.8a2.7 2.7 0 0 0-2.1-1.8 1.7 1.7 0 0 0 1.2 1.7 1.8 1.8 0 0 0 .9 0z" class="M"/><path d="M251.6 54.5l-2.4-1a1.2 1.2 0 0 1 1.6-.8 1.4 1.4 0 0 1 .8 1.7zm-.2 4.5a1 1 0 1 1-1-1.1 1.1 1.1 0 0 1 1 1.1z" class="D"/><path d="M292.3 135v.5a2 2 0 0 1-1 1.8l-36 20.3a1.9 1.9 0 0 1-1 .3 2.1 2.1 0 0 1-1-.3L233.7 146a2.1 2.1 0 0 1-1-1.8v-.7h0a.3.3 0 0 0 .1.2l21.3 12.7z" class="K"/><path d="M254.2 156.5v1.4a2 2 0 0 0 1-.3l36-20.3a2 2 0 0 0 1-1.8v-.5z" class="D"/><path d="M233 143.8a.2.2 0 0 1-.1-.2.2.2 0 0 1 .1-.2l37-21a1.1 1.1 0 0 1 .6-.2 1.2 1.2 0 0 1 .5.2l21 12.5-38 21.3z" fill="#f0f0f0"/><g class="K"><path d="M270.6 122.5a1.1 1.1 0 0 1 .5.2l21 12.3-37.8 21.3-21.2-12.6a.1.1 0 0 1 0-.1.1.1 0 0 1 0-.1l37-20.8a1 1 0 0 1 .6-.1m0-.2a1.3 1.3 0 0 0-.7.2l-37 21a.3.3 0 0 0 0 .5l21.3 12.7 38.2-21.4-21-12.5a1.3 1.3 0 0 0-.6-.2zM254 154.7l-11.4-6.7 33.8-19 11.4 6.7-33.8 19z"/><path d="M287.8 135.7l-.4.3-11-6.5-33.3 18.7-.4-.3 33.8-19 11.4 6.7z"/></g><path d="M287.8 135.7l-.4.3-11-6.5-33.3 18.7-.4-.3 33.8-19 11.4 6.7z" class="H"/><path d="M248.6 136.2l.2.1 5.6 3.3 10-5.7h.2l-5.8-3.4-10.3 5.8z" class="K"/><path d="M248.6 136.2l.2.1 5.6 3.3 10-5.7h.2l-5.8-3.4-10.3 5.8z" class="H"/><path d="M248.8 136.3l5.6 3.3 10-5.7-5.6-3.3-10 5.7z" class="K"/><path d="M208.6 114c2.3-8.7 3.7-16.5 6-23 1.3-4 1.8-9.2 9.6-11.6 4.8 3.8 3.8 14 3 16.6l-5.4 20a94 94 0 0 0 5.9 6.3c3.8 4 5.7 5.3 10.2 6s5 .5 7.2 1.7l5 2.6c1 .6 2.6 2.4 4 3.7s-.5 2-1.6 1.4a15.3 15.3 0 0 1-3.4-1.9 19.7 19.7 0 0 0-3-1.3 18 18 0 0 1 .4 3.6c0 .6.1 1.4-.5 2a4.8 4.8 0 0 1-1.4.5 1 1 0 0 1-.3.6 1.6 1.6 0 0 1-1.2.2 4.5 4.5 0 0 1-.7-.1 1.2 1.2 0 0 1-.8.9 5.2 5.2 0 0 1-2.8-.1l-1.4-.8c-.4-.2-.8-.4-1-.7s.5-1 1-1a5.3 5.3 0 0 1 1.8.2 6.5 6.5 0 0 1-.4-1.5c-.4-.8-4-.2-7-1-2.3-.5-4-2.7-5-3.3a134.4 134.4 0 0 1-13.5-9.6c-5.8-4.6-6-5.4-4.8-10z" class="Q"/><path d="M245 132.5a8.1 8.1 0 0 1 .9 2l.6.2c-.3-1-.8-2-1.5-2.2zm-2 .7a2.9 2.9 0 0 1 .5.8 5.4 5.4 0 0 1 .3.9 12.2 12.2 0 0 1 .3 1.8c.1.6.2 1.3.2 2a17.1 17.1 0 0 1 .1 1.9 7.2 7.2 0 0 0 .2-1.9 15.2 15.2 0 0 0-.1-1.9 8.3 8.3 0 0 0-.4-1.9 3.6 3.6 0 0 0-1.1-1.6zm-1.2 2.4a3.6 3.6 0 0 0-.9-1.7 2.6 2.6 0 0 1 .4.8l.2 1 .3 1.8a41 41 0 0 1 .4 3.7 9 9 0 0 0 .1-1.9 16.7 16.7 0 0 0-.2-1.9 12.9 12.9 0 0 0-.4-1.8zm-4.5 3.7a3 3 0 0 1 .8.2 5.1 5.1 0 0 1 .6.3 1.4 1.4 0 0 0 0 .2.9.9 0 0 0 .2.3 1 1 0 0 0 .5.4 2.2 2.2 0 0 1-.3-.5 1.2 1.2 0 0 1-.1-.2 1.5 1.5 0 0 1 0-.2v-.1h-.1a2.6 2.6 0 0 0-.7-.2 1.6 1.6 0 0 0-.8.1z" class="S"/><path d="M224.4 78.7c-5 2-7 3-9 8.6l-5 17.3s1.7 2.5 6.7 4 7.3.1 7.3.1l3.7-12.3c1-3.6 1.8-14.3-3.5-17.6z" class="B"/><path d="M254.7 156.8a2.4 2.4 0 0 0 2.1-.1l36-20.2a2.4 2.4 0 0 0 1.2-1.7l4.2-23.2a1.9 1.9 0 0 0 0-.4 2.4 2.4 0 0 0-.7-1.7l-37.4 21a1.8 1.8 0 0 0-.9 1.3z" class="D"/><path d="M254.2 156.5l.2.1a2.2 2.2 0 0 0 .3.2l4.5-25.2a1.8 1.8 0 0 1 .9-1.2l37.4-21a2.7 2.7 0 0 0-.5-.4l-37.4 21a1.8 1.8 0 0 0-.9 1.2z" class="I"/><path d="M259.6 130.8l-.6-.3a1.8 1.8 0 0 0-.3.8l-4.5 25.2.2.1a2.2 2.2 0 0 0 .3.2l4.5-25.2a1.7 1.7 0 0 1 .4-.8z" class="G"/><path d="M275 135.5a7.9 7.9 0 0 1 3.6-4.6c1.7-1 3-.5 2.6 1a7.9 7.9 0 0 1-3.6 4.6c-1.7 1-3 .5-2.6-1z" class="B"/><g class="D"><path d="M431 332.5l-2.3-1.2 2.3-.6v1.8z"/><path d="M407.7 336s28-11.5 28.4-9.6a2.8 2.8 0 0 1-.1 1.1.9.9 0 0 1 .1-.1l-.6 3.5a8.2 8.2 0 0 1-4.4 1.6v-1.8a14.3 14.3 0 0 0-2.5 1.2c-1.8 1-3 3-5 5.5-1.4 1.7-4 2.4-7.5 2.8-4 .4-7.3-.5-8.2-1.6a2.8 2.8 0 0 1-.1-2.6z"/></g><path d="M408.5 335.4a36.1 36.1 0 0 1 2.7-2.5 51.4 51.4 0 0 1 4.1-3.3 15.4 15.4 0 0 0 2-1.6l1.4-1.6a29.2 29.2 0 0 0 3.2-4.9 7.8 7.8 0 0 0 1-4.2 98.5 98.5 0 0 0-.7-12.4l13.3.2c-.5 2-.7 5.7-1 8-.4 3.6-.6 4.4.7 8a10.6 10.6 0 0 1 1 3.3c0 2-1.5 3.4-3.2 4.3-1.4.7-3 1-4.3 1.7a13.7 13.7 0 0 0-3.6 3.3c-1 1.2-1.8 2.6-3 3.3a12.1 12.1 0 0 1-4.6 1.4 24.2 24.2 0 0 1-6.1.1c-3-.3-5-1.5-3-3.4z" class="P"/><path d="M419.5 330a5.2 5.2 0 0 0-4.3-.6l-5 4c-1.5 1.2-2.8 2.2-2.8 3.6 0 2.2 8.5 3.2 13.3 1.3a5.9 5.9 0 0 0 3.5-2.8s-.6-3-4.6-5.4zm16.4-7.3l-1-2.2a8.7 8.7 0 0 0-3.5 9.1 6.4 6.4 0 0 0 4.3-2.7 4 4 0 0 0 .2-4.2z" class="G"/><path d="M456.4 325.6c-.8 1.3.2 6 .1 9.4-.2 3-1 8.4 0 11.4 1 3.6 3.4 7.8 7.6 4.4 2.6-2 4-4.8 4.5-9.2.3-3-1-7.3-2-11l-1.7-6.7z" class="D"/><path d="M465 303c.3 7-.5 12.2-.6 16.8a31.9 31.9 0 0 0 .7 6.2c.6 3 1.6 7 2 9 .6 2.6 1 4.3.1 7.3a3.6 3.6 0 0 1-.3.7c-1.3 2.4-4.5 4.3-5.6 4a1.8 1.8 0 0 1-1.8.6l-.4-.1a1.6 1.6 0 0 1-.3-.1 3.5 3.5 0 0 1-1.7-2.2 6.2 6.2 0 0 1-.2-.6 22.8 22.8 0 0 1-.1-7.5 64 64 0 0 0-.2-6.5 121.5 121.5 0 0 0-1.7-15.1l-2.5-10z" class="P"/><path d="M467.8 338.2c-2.6-1-10-1.3-11.2 2.3 0 3.4-.1 5.7 2 8.7 3 4 6.6-.2 8-3a13.7 13.7 0 0 0 1.1-8.1zm-12.4-128.7c3.6 6.5 6.5 12 7.5 29l1 29c.1 2.3 1.6 6.6 3 18s-.1 39.3-.1 39.3-1 2-5.3 2.3a11.2 11.2 0 0 1-6.4-1l-9.4-41.8-5.4-29.2-2 16.3s1.3 6.3.1 16.4l-3.3 29.4a14.3 14.3 0 0 1-6 2.2 10.3 10.3 0 0 1-6.6-1.4s-4-40-4-51.4.8-40 4.3-57z" class="G"/><path d="M425 226.4c1.8 4.7 8 8 10.8 8.6l2.8 20.2-.5 16.5 2-16.3-3.2-24s-7.7-.5-12-5zm26-2.5l1.3 5.6 1.4 5.6a38.5 38.5 0 0 0-.4-5.8 57.7 57.7 0 0 0-1.1-5.7 50.7 50.7 0 0 0-1.7-5.6 27.4 27.4 0 0 0-2.5-5.2l1.6 5.5 1.4 5.5zm3.2-3.6l1.8 3.4 1.8 3.4a15.7 15.7 0 0 0-.9-3.8 27 27 0 0 0-1.6-3.6 28.6 28.6 0 0 0-2.1-3.3 20.8 20.8 0 0 0-2.6-2.9l2 3.4 1.8 3.4zm-2.5 52.2a306 306 0 0 1-2.8-17.9l-2.5-18 1.5 18c.6 6 1.4 12 2.5 18l3.7 17.8c1.3 6 2.6 11.8 4 17.7q-1.4-9-3-18c-1-6-2.3-12-3.4-17.8zm-27.6-20l1-15.8q-1 7.8-1.8 15.7a185 185 0 0 0-.8 15.8l1 15.8 1.7 15.7q-.3-8-.7-15.8l-.5-8-.4-8c-.1-2.6.1-5.2.2-8l.4-8z" class="D"/><path d="M384 182.3a6.7 6.7 0 0 1 1.6.6 8.4 8.4 0 0 1-2.8-2.7 1.4 1.4 0 0 1-.2-.7c0-.2.1-.7.5-.8l-.8-1c-.3-.4-1-1.3-.3-1.6s1.3.1 2 .6a2.1 2.1 0 0 1-.6-1.1c0-.8.6-1.2 2-.3s5 3.2 8.2 3.4c.6.1 1.6.3 2 0h0c.7-.4-.2-1.4-.5-1.8a11.6 11.6 0 0 1-.9-1.2 4.4 4.4 0 0 1-.7-1.5 1.9 1.9 0 0 1 .3-1.6c.2-.2.5-.4.7-.2l3 2.7a21.3 21.3 0 0 1 2.8 2.7c1 1.2 1.6 2.7 3 4.3a38.4 38.4 0 0 0 6.1 5.8l5 4.3 7-13c3.6-6.8 6.8-8.6 13-9.4l-1.6 15.4-9.3 19c-2.6 4.7-5 5.4-6.7 5.2h0c-5.6-.7-9.7-8-17.4-18.5a6.8 6.8 0 0 0-4.8-2.8l-3-.4a19.3 19.3 0 0 1-3.1-.9c-1.6-.6-1.7-.5-4-2.4-.3-.2-1.4-1.3-1.3-1.6a.6.6 0 0 1 .8-.4z" class="P"/><path d="M385.5 183a14.6 14.6 0 0 0 2.3 1c.8.3 1.6.5 2.4.8a9.9 9.9 0 0 1-2.5-.5 6 6 0 0 1-2.2-1.3zm14.7 2a1.9 1.9 0 0 0-.1-.5 2.9 2.9 0 0 0-.4-.8 3.9 3.9 0 0 0-1.4-1.2 4 4 0 0 0-3.9.1s-.1.2 0 .1a5.5 5.5 0 0 1 3.7.2 4.3 4.3 0 0 1 1.9 2.6c0 .1.1.1.1 0a1.6 1.6 0 0 0 .1-.5zm-8.8-4.6a29 29 0 0 1-3.7-1.7c-1.2-.6-2.3-1.2-3.4-2a16.6 16.6 0 0 0 3.5 2.3 23.2 23.2 0 0 0 3.6 1.3 0 0 0 0 0 0 0zm-.1 2.3a29 29 0 0 1-3.7-1.7l-1.4-.7a12.4 12.4 0 0 1-1.3-.8l-.4-.3a4.2 4.2 0 0 0-.5-.3 1.6 1.6 0 0 0-.6-.2 2 2 0 0 1 .7.3 4.4 4.4 0 0 1 .4.3l.4.3a12.2 12.2 0 0 0 1.2.8l1.6 1a23.2 23.2 0 0 0 3.6 1.3h0z" class="T"/><path d="M435 169.4c-6.5.8-9.3 2-12 6l-8.8 16.4-5.5-4.4s.4 1.6-1.5 4.6a7.3 7.3 0 0 1-4.9 3.4 86.3 86.3 0 0 0 6.4 8.8c3 3.6 6.3 6.2 9.7 5s5-4.4 7-8.2l7.6-16z" class="G"/><path d="M420 201.7c-.7-3.6-3-8-5.8-10l.7-1.3c4.3 3 5.2 8 5 11.2zm27.2-36a7.2 7.2 0 0 1 1.3-.7c2.4-.8 5 .3 7.3-1.2a5.2 5.2 0 0 0 2.3-4 2.5 2.5 0 0 0 3.3.1c-.8.2-2 0-2-.8s.6-1.5 1.2-2.2a4.2 4.2 0 0 0 .7-4c-.5-1.4-2-2-2-3.6a10.2 10.2 0 0 1 .3-2.7 7.2 7.2 0 0 0-1.4-5 6.6 6.6 0 0 0-1.8-1.7c-.2-.1-2.6-1-2.6-.8a5.9 5.9 0 0 0-4.9-5.8c-1-.1-1.7-.1-2.6-.2-1.8-.2-3.3-1.4-5-1.7a8.1 8.1 0 0 0-4.8.6c-1.4.7-2 2-3.3 2.7s-3 1-4.5 1.3a5.5 5.5 0 0 0-4.2 4.3c-.2 1.6.5 3.3-.4 4.7a15 15 0 0 1-1.2 1.3 3.7 3.7 0 0 0-.6 3.2c.3 1.2 1.2 2 1.6 3.2a1.8 1.8 0 0 1-.4 2c-.6.4-1.7.1-1.7-.6a1.6 1.6 0 0 0 .5 2 3.9 3.9 0 0 0 2.6.5c-.4 1.5-.7 3.2.2 4.4s2.6 1.2 4 2a22 22 0 0 1 2 2.1 5.4 5.4 0 0 0 5 1.3c1.8-.5 3-1.4 4.6-.6 1.3.6 2.5 1.3 4 1.2a7 7 0 0 0 2.7-1z" class="D"/><path d="M436.5 171a3.3 3.3 0 0 1 1.5-.8c.6-.1.6-.7.7-1.8v-1.6a7.2 7.2 0 0 1-5.4-1.4c-2.3-1.8-3.6-5.6-3.6-9.7a33.9 33.9 0 0 1 .6-4.6c-.4-3.6-.1-4.3.6-6.2 1.4-3 5.2-4.3 7-1.2 4.6-4 10 .7 10 6.3-.4 4.7 1 4.8 2 4.8 1.2-3 4.2-3 5.6-1.2 1.2 1.6 1.3 4.2-.8 6.7s-4.5 1-4.6.6v7.5c0 1.3.3 2.6 2 3h0a6.4 6.4 0 0 1 2 .8 4.4 4.4 0 0 0-.6.6c-.5.7-1.3 1.3-3.3 3.8a109.6 109.6 0 0 0-15 7.7 68.6 68.6 0 0 1-2.8-8.1 29.9 29.9 0 0 1 4.1-5.1z" class="P"/><path d="M441.3 158.7l-3.5 1a1.8 1.8 0 0 0 2.2 1.2 1.9 1.9 0 0 0 1.3-2.3z" class="T"/><path d="M441 159.5a2 2 0 0 0-2 1.6 1.8 1.8 0 0 0 1 0 1.9 1.9 0 0 0 1.3-1.5z" class="M"/><path d="M431.4 149.4l2.7-1a1.4 1.4 0 0 0-1.7-.9 1.5 1.5 0 0 0-1 1.8zm12.6.1l-2.7-1a1.4 1.4 0 0 1 1.8-.8 1.5 1.5 0 0 1 .9 1.8zm-9.3 2.5a1.2 1.2 0 0 1-1.1 1.3 1.1 1.1 0 0 1-1.2-1 1.2 1.2 0 0 1 1.1-1.2 1.1 1.1 0 0 1 1.2 1zm8.3 0a1.2 1.2 0 0 1-1.1 1.3 1.1 1.1 0 0 1-1.3-1 1.2 1.2 0 0 1 1.1-1.3 1.1 1.1 0 0 1 1.3 1z" class="D"/><path d="M438.7 166.7c4.5-.4 8.8-1.7 10-4.4a4.6 4.6 0 0 1-2.6 3.8 16.3 16.3 0 0 1-7.3 1.9zm-4.7-11.2l4 1.5.5-7.7-4.7 6.2z" class="T"/><path d="M423.5 201.5a54.6 54.6 0 0 0-.1-7.1 11.3 11.3 0 0 1-2.9-6.9c0-4 1.8-7 6-11a50.9 50.9 0 0 1 8.1-6.3h3.3s-2 4-1 6.6c6.7-.5 12.5-3.4 15-5.4l5.6 1s3.4 7.2 2 13l-3.4 13a17.8 17.8 0 0 0 1.2 12.5l.5 1c1.6 3.3 3.8 9.5 3.8 9.5s-9.4 4.2-25 2.3-16.7-4.6-16.7-4.6l3-13.4a28.6 28.6 0 0 0 .6-4.4z" class="C"/><path d="M449.2 194.5a8.6 8.6 0 0 1-7.6 5.4 9.1 9.1 0 0 1-8.2-4s1 6.3 8.4 5.5 7.5-7 7.5-7z" class="K"/><path d="M450.5 170.2s-6 11.3-8 17.5-1.3 11-1 22.4l.6 21.8s16.4.4 21.8-6.7c-1.2-4.3-5-14.5-6-17.3s-.4-5.2 1.6-11.5 5-9.7 5-14.3a13.1 13.1 0 0 0-4.2-9.5zm-12-.6a.8.8 0 0 1-.4.5s-11.5 10.3-12.7 21.3l-2.8 35.3a13.8 13.8 0 0 1-3.4-3.3c.7-5 3.2-24.8 2.8-27.2s-5.6-7.7-.4-15 13.4-12 13.4-12l3.6-.4a3.4 3.4 0 0 1-.1.6z" class="I"/><path d="M433.3 172c-.7.6-1.5 1.2-2.2 2l-4.2 4-2 2-1 1a3.7 3.7 0 0 0-.8 1.3 4.2 4.2 0 0 0-.1 1.5 8.9 8.9 0 0 0 .2 1.5 17 17 0 0 0 .8 2.6 11.5 11.5 0 0 0-2 3 2.9 2.9 0 0 0-.1.5 2.9 2.9 0 0 0 0 .5c0 .3 0 .6.1 1l.3 1.8 1.5 7.3-1-7.3-.2-1.8c0-.3-.1-.6-.1-1a1.8 1.8 0 0 1 .1-.8 11.9 11.9 0 0 1 2.1-2.9l.1-.1h-.1a16.8 16.8 0 0 1-.8-2.7 8.2 8.2 0 0 1-.2-1.4 3.5 3.5 0 0 1 .1-1.3 3.1 3.1 0 0 1 .7-1.1c.3-.4.6-.7 1-1l2-2 4-4 4.2-4c-.8.5-1.5 1-2.2 1.7zm19 15.4V186l.1-3a480 480 0 0 0 .2-12l-.8 12-.1 3v1.5.4a.9.9 0 0 1 0 .3 1.4 1.4 0 0 1-.3.5 7.1 7.1 0 0 1-2.4 1.5 20.2 20.2 0 0 1-2.9.9h-.3l.1.3a35.6 35.6 0 0 1 1.1 3.8l.2 1a2.4 2.4 0 0 1 0 .9v.1.1l-.8 1.5-2 3.5-2 3.5 2-3.4 2-3.4.5-1 .3-.4.2-.3v-.2a2.8 2.8 0 0 0 .1-1.1 8.5 8.5 0 0 0-.2-1 33.4 33.4 0 0 0-1-3.6 19.9 19.9 0 0 0 2.6-.8 7.1 7.1 0 0 0 2.7-1.6 2.1 2.1 0 0 0 .4-.8 1.8 1.8 0 0 0 .1-.5zm8-15c5.3 1.2 7.3 4.5 9.4 11.6l5.8 24-12.6-4-6.2-14s-2-11 3.6-17.7z" class="G"/><path d="M432.5 225.2L460 222l5.5-35-27.6 3.2-5.5 35z" class="B"/><path d="M432.5 225.2L460 222l5.5-35-27.6 3.2-5.5 35z" class="E"/><path d="M433.6 223.7l26.4-3 5-32.6-26.4 3-5 32.6z" class="J"/><path d="M437.4 214l3.5-22 24.8-4.8-5.5 35-26.2 5a.7.7 0 0 1-.8-.8l1.8-11.2a1.2 1.2 0 0 1 .9-1z" class="B"/><path d="M475.3 208c-.1 3.6-.7 4.2-4.7 6s-14 4.6-22 5c-5.2.3-7.8 0-9.8-1a8.3 8.3 0 0 1-4.8-9.2c-.8-2.5.6-2.8 1.6-3l-.3 1.6a9.8 9.8 0 0 0 4.4 1.8c2 .1.2-2.4-.1-4s-.2-2.4 1-3c.7 0 1 1 3 3.2 1.6 1.7 2.7 4.7 5.3 4.4 2-.2 14-5.2 14-5.2l.7-4.5z" class="P"/><path d="M475.5 208c.1 2.3-.4 3.4-1.4 4.3s-5.4 2.8-8 3.6a137 137 0 0 1-10.9 2.6c1.4-2 1.3-6.3.2-8.2s-2.6-1.5-2.6-1.5l10.3-4.2 1-6z" class="G"/><path d="M36.8 398v1.3a2.5 2.5 0 0 0 1.1 1.6c1.4 1.2 4.6 2 7.2 1.7a6.9 6.9 0 0 0 4.3-1.9c1.3-1.2 2.4-2.6 3-3a14.4 14.4 0 0 1 4.4-2.1c2-.7 6.3-2 8-5a7.5 7.5 0 0 0 1-5.5z" class="D"/><path d="M51.8 383c-4.6 1.2-9 9-14.3 6.4-.3 3-1.3 5-.6 8.7 2 3 7.5 4 10.7 2 1.6-1 2.2-2.2 3.8-3.3a14.7 14.7 0 0 1 4.2-1.9 42.7 42.7 0 0 0 5-2.1c5.3-3 6.7-8 4.2-10.6-2-2-5.6-1.2-13 .7z" class="I"/><path d="M54 382.3l.7-.2a8.4 8.4 0 0 1 6.1 2.6c1.7 1.8 2 5.4 2 6.3l-.2.1s.1.8 1.3-.7a8.8 8.8 0 0 0 2.1-5.6c-.1-2.3-1.4-4-4.3-4-2-.1-7.8 1-7.7 1.5z" class="J"/><path d="M62.2 410.4a6.8 6.8 0 0 0 .1 1.7 2 2 0 0 0 1.2.8c2.5.8 5 .8 7.5 1.6a38.9 38.9 0 0 1 4.7 1.7 31 31 0 0 0 4.7 1.9 19 19 0 0 0 10.6 0c5-2 4.8-3.5 4.7-5.4s-33.6-2.4-33.6-2.4z" class="D"/><path d="M63.3 398.3c-1 3.7-2 9.3-1 12 1 1 4.4 1.8 7.4 2.4a22.1 22.1 0 0 1 7.9 2.9c5.7 2.7 15.5 2.2 18.2-2 2-6-9.3-6.4-15.8-11-1.6-1.2-2-2.2-2.3-4a72 72 0 0 1-14.2-.4z" class="I"/><path d="M81 416.8a7.3 7.3 0 0 1 1.2-7.2 8.1 8.1 0 0 1 6.8-2.7A14 14 0 0 1 95 410c1.2 1.3 1.8 3.5-.4 5s-6.3 3.3-13.5 1.7z" class="J"/><path d="M37.7 351.6c.5-7.8 3.4-14.2 3.3-18.5-.1-8.3.3-13.7-.4-20.6A117.7 117.7 0 0 1 40 294c.3-5.2 1.2-9.4 2-16 0 0 40.2-2.5 41 12.6s-.2 53.8-.7 60.5c-.3 6.8-3.8 44-4 49-7 5-15.6 1-15.6 1-1-17-4.2-27.6-1.2-42.5l-1.8-22-8.8 53c-3.5 4.8-12 3-13.6 0l.3-37.8z" class="G"/><path d="M59.8 336.3L58 311a21.8 21.8 0 0 1-11.7-7.5c1.3 5 6.7 9.2 10 10.5l1 17.2-.8 23.8z" class="D"/><path d="M66.2 232.3l-1.4 10.3-14-.7 1.5-11 13.8 1.6z" class="R"/><path d="M71.8 213l4.5 6.3-2.7 1.7z" class="M"/><path d="M64 202.8c4.3-.5 7 2.6 8.3 11.8 0 .4.6 1 1 2.3 1.7 6 .8 11.5-.2 13a12 12 0 0 1-9.3 2.4C60.8 232 53 231 49 227c-4.6-5-7-12.2-3.7-16 4.7-5.3 16.4-7.8 18.7-8z" class="R"/><path d="M73 229.8c-.5.8-4.4 2.8-7 3v-2a26.9 26.9 0 0 0 6.9-1.1z" class="M"/><path d="M65 219a.8.8 0 0 1-1.4.2 10.9 10.9 0 0 0-1.6-1.8 4 4 0 0 0-2.7-.9c-3.6.3-2.7 5-1 6.7 3 2.7 4.5.4 4.5.4s2 4.6-1 7.3c0 0-5.2 2.3-9.4 1a88.3 88.3 0 0 1-7.2-8.3c-5-6.8-5-13.5-1.8-15.4-.2-2.4 1-6 6-8 4.7-2 7.8-1.8 11.2-1.6s7.6 1.7 10.7-1a6.4 6.4 0 0 1-.5 5.9 2.1 2.1 0 0 1 1.8 3.8 1.7 1.7 0 0 1 .8 2 2 2 0 0 1-1.8 1.3 8.5 8.5 0 0 1-2.1-.1c-1 2.8-4 3.8-6 3.6l.3.4c0 .1.2.3.3.5a6.4 6.4 0 0 1 .4 1 5.7 5.7 0 0 1 .4 2.2 2.3 2.3 0 0 1-.1.7z" class="D"/><path d="M49 236.5c-5.2-.2-10.3 1.3-13.5 8.5L27 266.6c-.7 2.4-2 4.6 2.4 8.8a71.2 71.2 0 0 0 13.8 9.8l4.5-9.7-7-6.8 3-6.5z" class="I"/><path d="M40.5 268.8a9.3 9.3 0 0 1-4.2 3.5c2 .5 4.2-1.7 4.8-3z" class="D"/><use xlink:href="#c" class="B"/><g class="L C"><use xlink:href="#c"/></g><path d="M129 226.4c2-2.3 2.8-3.3 4-4s4.4-3.2 5.7-4c1-.5 1.6 1 .7 2.2a34.6 34.6 0 0 1-3.7 3.5 18.9 18.9 0 0 0-2.3 3.8z" class="M"/><path d="M109.2 257.5c-2 1-4 .8-10.5.5L76 256.5c-4.2-4.2-5.2-11.5-1-16 4.3-1 17.5 4.3 31.6 4 0 0 13.8-6.3 15.4-7.5s4.3-7 5.4-8.8c1.4-2.3 2.5-2.3 3.5-2.5 3.3-.4 4-.3 5 0a1.5 1.5 0 0 1 .9 1.1c1-.1 2-.5 2.7 1a3.8 3.8 0 0 1 .3 1.1.9.9 0 0 1 .6.2c1 .6.5 3.8-.1 4.7a2.9 2.9 0 0 1-2.2 1c-1 .1-.7-1-.7-1l-1.2.4c-2 2.5-1.3 6.2-4.5 8a23.7 23.7 0 0 0-4 1.9l-18.5 13.4z" class="R"/><g class="M"><path d="M136.7 227h-4l3.8-.7a1.6 1.6 0 0 1 .2.5zm3 2l-4.5.6 4.4-1a2.4 2.4 0 0 1 .1.5zm0 2a1.4 1.4 0 0 1-.5.7 2.9 2.9 0 0 1-.7.4l.1-.1-.2.8-.1-.1a1 1 0 0 1 .7 0 1.3 1.3 0 0 1 .5.5 1.4 1.4 0 0 0-.6-.4.9.9 0 0 0-.6 0l-.2.1v-.2l.2-.8h0 0a4.2 4.2 0 0 0 .7-.4 1.7 1.7 0 0 0 .6-.6z"/><path d="M138.7 231.8a13 13 0 0 1-1.6.5 1.8 1.8 0 0 1-.3 1 8.9 8.9 0 0 1-.7.9l1.2-.4s.2-.6 1.2-1z"/></g><path d="M74.3 239.7a35 35 0 0 1 8.5 1.2c2.6.7 12 2.5 14.8 2.7l9 .6 8.4-3.6s1.5.5 3 3.6.5 7.2.5 7.2l-9 6c-1.6 1-2.5 1.3-5 1l-21-1a7 7 0 0 0-3.5 1.5c-1 .6-4-.4-5.7-3.2s-5.5-12.3-.2-16.3z" class="I"/><defs ><path id="B" d="M39.7 384l-9 5a73.6 73.6 0 0 0 0-11.1c-2.8-19.5-10.3-26-14-35.4-3.8-10 .8-13.2 7-11.4 5.4 1.6 13.2 9.6 15.6 24a108.4 108.4 0 0 1 .4 28.7z"/><path id="C" d="M33.3 387.6l-5 3h0c-2.7-8-5.4-11-8.8-16.2-3-4.7-6.7-7.6-8.6-11-1.7-3-3-6.6-.4-8.8 4-3.5 9.2.2 13 4.3 3 3.5 9.3 12.8 10 28.8z"/><path id="D" d="M463.5 322.4l8.3 4.8a68.5 68.5 0 0 1 0-10.3c2.5-18 9.6-24 13-33 3.5-9.3-.8-12.3-6.4-10.6-5 1.5-12.2 9-14.5 22.4a100.7 100.7 0 0 0-.3 26.7z"/><path id="E" d="M469.5 325.8l4.7 2.7h0c2.5-7.3 5-10.2 8.2-15 3-4.4 6.2-7 8-10.2 1.6-2.7 2.8-6 .4-8.2-3.7-3.3-8.6.2-12 4-3 3.2-8.7 12-9.3 26.7z"/><path id="F" d="M389.4 360.7c-8.4-4.8-19.6-7.5-31.7-7.5s-23.3 2.7-31.7 7.5a26 26 0 0 0-9.8 9 11.9 11.9 0 0 0 .1 12.6c2-3.2 5.2-6.2 9.6-8.7 8.4-4.8 19.6-7.5 31.7-7.5s23.3 2.7 31.7 7.5c4.5 2.6 7.8 5.6 9.6 8.7.1-.1.1-.2.1-.2 4.3-7.4.6-15.4-9.8-21.4z"/><path id="G" d="M392 356a76 76 0 0 0-68.9 0c-19 11-19 28.8 0 39.8a76 76 0 0 0 68.9 0c19-11 19-28.8 0-39.8zm-34.4-2.8c12 0 23.3 2.7 31.7 7.5 10.4 6 14 14 9.8 21.3v.2c-2 3.2-5.2 6.2-9.6 8.7-8.4 4.8-19.6 7.5-31.7 7.5S334.4 396 326 391a26 26 0 0 1-9.6-8.7 11.9 11.9 0 0 1-.1-12.6c2-3.3 5.3-6.4 9.8-9 8.4-4.8 19.6-7.5 31.7-7.5z"/><path id="H" d="M259.4 442.4a13.1 13.1 0 0 1-5.9-10.2c0-3.8 2.7-5.3 6-3.4a13.1 13.1 0 0 1 5.9 10.2c0 3.8-2.7 5.3-6 3.4z"/><path id="I" d="M413 224.8l-7 21.5-167.6 97c-19.3 11.2-37 12-50.7 4h0-.1-.1l-.3-.2c-13.2-7.8-22.4-23.7-25.4-46l18 3.2 11-10.3c0 .3.1.5.2.8a42 42 0 0 0 4.1 11.5h0c6.8 12.5 19.5 15.6 34.8 6.7l176-101.7z"/><path id="J" d="M187.2 347l-20-11.5c-13.4-7.7-22.8-23.7-25.8-46.3l20.3 11.8c3 22.3 12.2 38.2 25.4 46z"/><path id="K" d="M160.8 284.6a124.8 124.8 0 0 0 1 16.4l-20.3-11.7a123 123 0 0 1-1.1-16.4c0-22.5 9.4-49.7 25.2-74.2l20.4 11.7c-16 24.6-25.2 51.6-25.2 74.2z"/><path id="L" d="M190.7 294l-11 10.3-18-3.2a124.8 124.8 0 0 1-1-16.4c0-22.6 9.4-49.7 25.2-74.2l7.3 17 16 1c-9.5 14.5-16.3 30.2-18.8 44.6a58.1 58.1 0 0 0 0 21z"/><path id="M" d="M259.5 147.6h0c-30 11-55.8 35.3-73.6 62.8h0l-20.3-11.7c17.8-27.5 43.7-51.8 73.6-62.8z"/><path id="N" d="M312.6 146.2a38.9 38.9 0 0 0-19.1-4.8 98.4 98.4 0 0 0-34 6.2L239.2 136a98 98 0 0 1 34-6.2 40 40 0 0 1 20.2 5.4z"/><path id="O" d="M313.7 146.8a.1.1 0 0 1-.1 0h0a.1.1 0 0 0-.1 0h0l-.4-.2h0l-.5-.3a38.9 38.9 0 0 0-19.1-4.8 98.4 98.4 0 0 0-34 6.2h0l-7 21.3 7 13.5a65.4 65.4 0 0 1 25.8-6.5h1.5c15.7-.3 25.6 15.7 24.2 43.3h0l15-15.4 13.7-1.2c-1.5-27.5-11.3-47-26.2-56z"/><path id="P" d="M340 209.2c0 28.4-8.6 59-22.5 85.8l-7-14.5-16.3-1.4a158 158 0 0 0 16.8-58.9c0-.3 0-.7.1-1h0l15-15.4 13.7-1.2.2 6.7z"/><path id="Q" d="M294.2 279c-9.6 19.2-22.4 36-36 45.3a61 61 0 0 1-3.9 2.5L234 315.2a53 53 0 0 0 3.9-2.5c13.6-9.4 26.4-26 36-45.3z"/><path id="R" d="M317.5 295c-14 27-33.4 49.7-55 62l-8.2 4.8 7-21.6-7-13.5a61 61 0 0 0 3.9-2.5c13.6-9.4 26.4-26 36-45.3l16.3 1.4z"/><path id="S" d="M389 75.4h0l-.2-.1-.1-.1-3.8-2.2v-.3c0-4.7-1.6-8-4-9.3h0l-7.3-4.2h0c-2-1.2-4.6-1-7.5.6a17.4 17.4 0 0 0-3.6 2.9 7.5 7.5 0 0 0-1.6-1.2h0l-7-4h0c-2.6-1.7-6-1.7-10 .5-8 4.6-14.5 17-14.5 27.7a23.1 23.1 0 0 0 .3 3.5l-1 .6c-5 3-9.2 10.8-9.2 17.6h0c0 3.8 1.3 6.4 3.3 7.6h0l7.4 4.3h0c1.6 1 3.7.8 6-.5l13.4-7.7L385 90.4c3-1.8 5.5-6.5 5.5-10.6h0c0-2.2-.7-3.7-1.8-4.4z"/><path id="T" d="M385 75.6l-.5.3a22.3 22.3 0 0 0 .2-3.1c0-8.5-5-12.3-11.5-8.7a22 22 0 0 0-7.6 8.3c-.3-10.2-6.6-14.8-14.5-10.2-8 4.6-14.5 17-14.5 27.7a23 23 0 0 0 .3 3.5l-1 .6c-5 3-9.2 10.8-9.2 17.6h0c0 6.8 4 10 9.2 7l13.4-7.7h0L385 90.4c3-1.8 5.5-6.5 5.5-10.6h0c0-4-2.5-6-5.5-4.2z"/><path id="U" d="M133.6 88.5h0l-5.8-3.3h0a.6.6 0 0 0-.6 0l-4 1.8a1.6 1.6 0 0 1 .1-1l4.6-9.3a1 1 0 0 0-.4-1.3l-5-3h0l-5.8-3.3a1.1 1.1 0 0 0-1.4.3l-5.7 8.6a1.8 1.8 0 0 1-.8.6l-.4-4.4a.6.6 0 0 0-.3-.5h0l-5.8-3.3h0a.6.6 0 0 0-.6.1L94 75a2.1 2.1 0 0 0-.9 1.4l-.8 8.6a2.9 2.9 0 0 1-.8 1.6 46.8 46.8 0 0 0-4.3 4.6 1.5 1.5 0 0 1-1.5.4l-5-1.7a1.2 1.2 0 0 0-1.4.5l-5.7 10a1.2 1.2 0 0 0 .3 1.5l4 3.4a1.5 1.5 0 0 1 .4 1.5 46.7 46.7 0 0 0-1.8 6 2.8 2.8 0 0 1-1 1.5l-7 5a2.1 2.1 0 0 0-.8 1.5v9a.7.7 0 0 0 .3.6h0l5.8 3.3h0a.7.7 0 0 0 .6 0l4-1.8a1.6 1.6 0 0 1-.1 1l-4.6 9.2a1 1 0 0 0 .4 1.3l7 4h0l3.8 2.2a1 1 0 0 0 1.4-.3l5.7-8.6a1.7 1.7 0 0 1 .8-.6l.4 4.4a.6.6 0 0 0 .3.5h0l5.8 3.3h0a.6.6 0 0 0 .6-.1l7.8-4.5a2.1 2.1 0 0 0 .9-1.4l.8-8.6a2.9 2.9 0 0 1 .8-1.6 44.4 44.4 0 0 0 4.3-4.5 1.5 1.5 0 0 1 1.5-.4l5 1.7a1.2 1.2 0 0 0 1.4-.5l5.7-10a1.2 1.2 0 0 0-.2-1.5l-4-3.4a1.5 1.5 0 0 1-.4-1.5 45.6 45.6 0 0 0 1.8-6 2.9 2.9 0 0 1 1-1.5l7-5a2.1 2.1 0 0 0 .8-1.5v-9a.7.7 0 0 0-.3-.6zm-43 30A29 29 0 0 1 103.6 96c2.8-1.6 5.4-2 7.6-1.6 1 1.5 1.7 4 1.7 7A29 29 0 0 1 99.8 124c-2.8 1.6-5.2 2.2-7 1.7a10.7 10.7 0 0 1-2.2-7.1z"/><path id="V" d="M116.7 69.2a1 1 0 0 0-1.4.3l-5.7 8.6a1.3 1.3 0 0 1-.4.4l5.8 3.3a1.3 1.3 0 0 0 .4-.4l5.7-8.6a1.1 1.1 0 0 1 1.3-.4zm11 16h0a.7.7 0 0 0-.6 0l-4 1.8a2.2 2.2 0 0 0 .2.7 15.1 15.1 0 0 1 1.5 3.3l.1.2a.9.9 0 0 0 .2.4h.1a1 1 0 0 0 .2.1.9.9 0 0 0 .4 0 .7.7 0 0 0 .2-.1l7-3a.6.6 0 0 1 .2-.1.5.5 0 0 1 .2 0 .4.4 0 0 1 .2.1h0zm-25.5-14.7a.6.6 0 0 0-.6.1L94 75a2 2 0 0 0-.8.9l5.8 3.3a2.1 2.1 0 0 1 .8-.9l7.8-4.5a.7.7 0 0 1 .6-.1zM76 113.7a2.5 2.5 0 0 1-.5.6l-7 5a2.1 2.1 0 0 0-.5.5l5.8 3.3a1.8 1.8 0 0 1 .5-.5l7-5a2.8 2.8 0 0 0 .5-.6zm4.3-23.8a1.2 1.2 0 0 0-1 .6l-5.7 10a1.2 1.2 0 0 0-.1.7l5.8 3.3a1.2 1.2 0 0 1 .1-.7l5.7-10a1.2 1.2 0 0 1 .9-.6z"/><path id="W" d="M134 98v-9a.6.6 0 0 0-.9-.6l-7 3a.8.8 0 0 1-1.1-.5 15.4 15.4 0 0 0-1.5-3.4 1.9 1.9 0 0 1-.1-1.7l4.6-9.3a1 1 0 0 0-.4-1.3l-5-3a1 1 0 0 0-1.4.3l-5.7 8.6a1.9 1.9 0 0 1-1.5.7 15.4 15.4 0 0 0-3.7.4.8.8 0 0 1-1-.7l-.8-7.5a.6.6 0 0 0-.9-.5l-7.7 4.5a2.1 2.1 0 0 0-.9 1.5l-.8 8.6a2.9 2.9 0 0 1-.8 1.6 45.5 45.5 0 0 0-4.2 4.5 1.5 1.5 0 0 1-1.5.4l-5-1.7a1.2 1.2 0 0 0-1.4.5l-5.7 10a1.2 1.2 0 0 0 .2 1.5l4 3.4a1.5 1.5 0 0 1 .4 1.5 46.6 46.6 0 0 0-1.8 6 2.9 2.9 0 0 1-1 1.5l-7 5a2.1 2.1 0 0 0-.8 1.5v9a.6.6 0 0 0 .9.6l7-3a.8.8 0 0 1 1.1.5 15.8 15.8 0 0 0 1.5 3.4 1.9 1.9 0 0 1 .1 1.7l-4.6 9.3a1 1 0 0 0 .4 1.3l5 3a1 1 0 0 0 1.4-.3l5.7-8.6a1.9 1.9 0 0 1 1.5-.7 15.8 15.8 0 0 0 3.7-.4.8.8 0 0 1 1 .7l.8 7.5a.6.6 0 0 0 .9.5l7.8-4.5a2.1 2.1 0 0 0 .9-1.4l.8-8.6a2.9 2.9 0 0 1 .8-1.6 44.4 44.4 0 0 0 4.3-4.5 1.5 1.5 0 0 1 1.5-.4l5 1.7a1.2 1.2 0 0 0 1.4-.5l5.7-10a1.2 1.2 0 0 0-.2-1.5l-4-3.4a1.5 1.5 0 0 1-.4-1.5 45.2 45.2 0 0 0 1.8-6 2.9 2.9 0 0 1 1-1.5l7-5a2.1 2.1 0 0 0 .8-1.5zm-30.3 28c-7.2 4.2-13 .8-13-7.5s6-18.5 13-22.6 13-.8 13 7.5a29 29 0 0 1-13.1 22.6z"/><path id="X" d="M179.5 127a3.5 3.5 0 0 1 .9-1.9l3.8-3.5a2.3 2.3 0 0 0 .7-1.9l-.7-4.2a.8.8 0 0 0-.4-.6h0l-4.6-2.6h0a.7.7 0 0 0-.8.1l-1.7 1 1.6-4.3a.9.9 0 0 0-.5-1.1h0l-4.6-2.6h0a.9.9 0 0 0-.3-.1l-3-.7a1.6 1.6 0 0 0-1.6.8l-2.7 5.2a2.6 2.6 0 0 1-1.1 1l-.1-.4a.9.9 0 0 0-.4-.5h0l-4.6-2.6h0a.7.7 0 0 0-.9.1l-4.3 3.4a2.4 2.4 0 0 0-.8 1.8l.3 4a3.2 3.2 0 0 1-.7 2c-.7.8-1.4 1.8-2 2.7a2.3 2.3 0 0 1-1.8.9l-2.8-.1a1.8 1.8 0 0 0-1.6 1l-2.6 6a1.1 1.1 0 0 0 .4 1.4h0l3 1.8a1.4 1.4 0 0 1 .1.8 26.2 26.2 0 0 0-.5 2.8 3.5 3.5 0 0 1-.9 1.9L141 142a2.3 2.3 0 0 0-.6 1.9l.7 4.2a.8.8 0 0 0 .3.6h0l4.6 2.6h0a.7.7 0 0 0 .8-.1l1.7-1-1.6 4.3a1 1 0 0 0 .4 1.2h0l4.6 2.6h0a1.2 1.2 0 0 0 .3.1l3 .7a1.6 1.6 0 0 0 1.6-.8l2.7-5.2a2.7 2.7 0 0 1 1.1-1l.1.4a.8.8 0 0 0 .4.5h0l4.5 2.6h0 .1 0a.8.8 0 0 0 .8-.1l4.3-3.4a2.4 2.4 0 0 0 .8-1.8l-.3-4a3.3 3.3 0 0 1 .7-2l2-2.7a2.2 2.2 0 0 1 1.8-.9l2.8.1a1.8 1.8 0 0 0 1.6-1l2.6-6a1.1 1.1 0 0 0-.6-1.5l-2.2-1a1.4 1.4 0 0 1-.8-1.6c.2-1 .4-1.8.5-2.8zm-23.2 12.8c-.8-5 2.3-12 7-15.6a9.5 9.5 0 0 1 4.9-2.2 7.1 7.1 0 0 1 .5 1.8c1 5-2.3 12-7 15.6a9.6 9.6 0 0 1-4.9 2.2 7.1 7.1 0 0 1-.5-1.8z"/><path id="Y" d="M150.4 122.8a1.8 1.8 0 0 1-.8.2h-2.8a1.7 1.7 0 0 0-1.2.4l4.6 2.6a1.9 1.9 0 0 1 1.2-.4l2.8.1a1.9 1.9 0 0 0 .8-.2zm9.4-15a.7.7 0 0 0-.8.1l-4.3 3.4a2.4 2.4 0 0 0-.7 1.1l4.6 2.6a2.3 2.3 0 0 1 .7-1.1l4.3-3.4a.7.7 0 0 1 .9-.1h0zm-15 30.5L141 142a2.3 2.3 0 0 0-.6 1.1l4.6 2.6a2.3 2.3 0 0 1 .6-1.1l3.8-3.5zm28.8-33.2a1 1 0 0 0-.3-.1l-3-.7a1.6 1.6 0 0 0-1.6.8l-2.7 5.2a2.3 2.3 0 0 1-.6.7l4.6 2.6a2.3 2.3 0 0 0 .6-.7l2.7-5.2a1.6 1.6 0 0 1 1.6-.8l3 .7a1 1 0 0 1 .3.1zm5.8 7h0a.7.7 0 0 0-.8.1l-1.7 1-.4 1a1.9 1.9 0 0 0 .5 1.8 6.7 6.7 0 0 1 .7.9l.2.2v.1a1.2 1.2 0 0 0 .4.2.9.9 0 0 0 .5 0 .7.7 0 0 0 .3-.1l3.8-2.6a1.5 1.5 0 0 1 .3-.1.5.5 0 0 1 .3 0h.2z"/><path id="Z" d="M185 119.7l-.7-4.2a.7.7 0 0 0-1.2-.5l-3.8 2.5a1.1 1.1 0 0 1-1.5-.3 7.5 7.5 0 0 0-.7-.9 1.9 1.9 0 0 1-.4-1.8l2-5.3a1 1 0 0 0-.7-1.3l-3-.7a1.6 1.6 0 0 0-1.7.8l-2.7 5.2a2.8 2.8 0 0 1-1.6 1.2 15 15 0 0 0-1.8.6 1 1 0 0 1-1.4-.6l-1-3.2a.7.7 0 0 0-1.2-.4l-4.3 3.4a2.5 2.5 0 0 0-.8 1.8l.3 4a3.2 3.2 0 0 1-.7 2 33.3 33.3 0 0 0-2 2.7 2.3 2.3 0 0 1-1.8.9l-2.8-.1a1.8 1.8 0 0 0-1.6 1l-2.6 6a1.1 1.1 0 0 0 .6 1.5l2.3 1a1.4 1.4 0 0 1 .8 1.6 25.7 25.7 0 0 0-.5 2.8 3.5 3.5 0 0 1-.9 1.9l-3.8 3.5a2.4 2.4 0 0 0-.7 1.9l.7 4.2a.7.7 0 0 0 1.1.5l3.8-2.5a1.1 1.1 0 0 1 1.6.3 8.4 8.4 0 0 0 .7.9 1.9 1.9 0 0 1 .4 1.8l-2 5.3a1 1 0 0 0 .7 1.3l3 .7a1.6 1.6 0 0 0 1.6-.8l2.7-5.2a2.9 2.9 0 0 1 1.7-1.2 13.7 13.7 0 0 0 1.8-.6 1 1 0 0 1 1.4.6l1 3.3a.7.7 0 0 0 1.2.4l4.3-3.4a2.4 2.4 0 0 0 .8-1.8l-.3-4a3.3 3.3 0 0 1 .7-2l2-2.7a2.2 2.2 0 0 1 1.8-.9l2.8.1a1.8 1.8 0 0 0 1.6-1l2.6-6a1.1 1.1 0 0 0-.6-1.5l-2.2-1a1.4 1.4 0 0 1-.8-1.6l.5-2.8a3.5 3.5 0 0 1 .9-1.9l3.8-3.5a2.3 2.3 0 0 0 .7-1.9zM166.4 142c-4.7 3.7-9.2 2.7-10-2.2s2.3-12 7-15.6 9.2-2.7 10 2.3-2.2 12-7 15.6z"/><path id="a" d="M118.3 169.2c-3-1.7-7.2-1.4-11.8 1.2a37 37 0 0 0-16.7 29c0 5.3 2 9 5 10.8l5.7 3.3c3 1.7 7.2 1.5 11.8-1.2 9.2-5.3 16.8-18.3 16.8-29 0-5.3-2-9-5-10.8z"/><path id="b" d="M103 213.7a12.4 12.4 0 0 1-4.2 4.1 11.6 11.6 0 0 1-6.3 1.6.7.7 0 0 1-.3-.1l-5.7-3.3a.6.6 0 0 1 0-1 10.1 10.1 0 0 0 5.2-7.9z"/><path id="c" d="M45.2 238c-3.6 2-6.4 8.8-6 14.4l2.5 21c.3 2.6-.7 7-1.2 12l-.8 8s5.2 6 18.5 6.8c17 1 25.2-3.4 25.2-3.4l-1-24.5c-.6-16.2-.7-21-3.2-26.5-.8-1.6-1.7-5.3-4.5-6l-9.2-2c-3.3.8-11.8 1-14-1v-.5c-3.6 0-4 .4-6.4 1.7z"/></defs></svg>