<svg xmlns="http://www.w3.org/2000/svg" width="48" height="48" xmlns:v="https://vecta.io/nano"><path fill="#304ffe" d="M41.67 13.48c-.4.26-.97.5-1.21.77-.09.09-.14.19-.12.29v1.03l-.3 1.01-.3 1-.33 1.1-.68 2.25-.66 2.22-.5 1.67-.03.77a9.9 9.9 0 0 1-.59 2.74 9.1 9.1 0 0 1-.7 1.52 6.4 6.4 0 0 1-.34.56c-.4.63-.88 1.21-1.41 1.72a8.5 8.5 0 0 1-1.35 1.11c-.09.07-.18.13-.28.18-.31.21-.64.39-.98.55a6.2 6.2 0 0 1-.7.31c-.05.03-.11.05-.16.07-.57.27-1.23.45-1.89.54-.04.01-.07.01-.11.02l-1.19.16c-.18.02-.37.03-.55.03l-.71-.04-3.42-.18-1.73-.09c-.13 0-.27 0-.4-.01a9.2 9.2 0 0 1-1.58-.19c-.96-.18-1.87-.5-2.72-.93-.47-.24-.93-.51-1.36-.82a6.8 6.8 0 0 1-.52-.42c-.48-.4-.91-.83-1.31-1.27-.06-.06-.11-.12-.16-.18a2.9 2.9 0 0 1-.17-.19c-.38-.48-.7-.97-.96-1.49-.24-.46-.43-.95-.58-1.49l-.15-.57c-.01-.01-.02-.03-.02-.05-.1-.41-.19-.84-.24-1.27-.06-.33-.09-.66-.09-1-.02-.13-.02-.27-.02-.4l1.91-2.95 1.87-2.88.85-1.31.77-1.18.26-.41v-1.03c.02-.23.03-.47.02-.69-.01-.7-.15-1.38-.38-2.03-.22-.69-.53-1.34-.85-1.94l-1.11-1.87c-.49-.82-.83-1.49-.74-1.96C14.47 6.09 15.23 6 16 6h16c4.18 0 7.78 2.6 9.27 6.26a8.3 8.3 0 0 1 .4 1.22z"/><path fill="#4928f4" d="M42 16v.27l-1.38.8-.88.51-.97.56-1.94 1.13-1.9 1.1-1.94 1.12-.77.45a2.7 2.7 0 0 1-.34 1.32c-.31.58-.83 1.06-1.49 1.47a9 9 0 0 1-2.41.98c-3.57.92-8.43.5-10.79-1.26-.66-.49-1.12-1.09-1.32-1.78-.06-.23-.09-.48-.09-.73v-7.19c.01-.15-.09-.3-.27-.45-.54-.43-1.81-.84-3.23-1.25l-3.3-.92a10 10 0 0 1-1.86-.71 10.7 10.7 0 0 1 .61-1.03c1.4-2.05 3.54-3.56 6.02-4.13C14.47 6.09 15.23 6 16 6h10.8a33.7 33.7 0 0 1 14.47 6.26 8.3 8.3 0 0 1 .4 1.22c.18.66.29 1.34.32 2.05A7.2 7.2 0 0 1 42 16z"/><path fill="#6200ea" d="M42 16v4.41l-.22.68-.75 2.33-.78 2.4-.41 1.28-.38 1.19-.37 1.13-.36 1.12-.19.59-.25.78-.07 2c-.01.06-.02.12-.02.18-.06.53-.14.98-.27 1.36-.01.06-.03.12-.05.17-.26.72-.65 1.18-1.23 1.48a2.9 2.9 0 0 1-.47.2c-.53.18-1.2.27-2.02.32l-2.07.05h-.69l-1.19-.05-.21-.01-2.17-.09-2.2-.09-7.25-.3-1.88-.08h-.26c-.78-.01-1.45-.06-2.03-.14-.84-.13-1.49-.35-1.98-.68-.7-.45-1.11-1.11-1.35-2.03a4.8 4.8 0 0 1-.14-.7 15.8 15.8 0 0 1-.18-2l-.01-.46v-.59l-.01-.9.05-1.61.03-1.15.04-1.34v-.19l.07-2.46.07-2.46.07-2.31.06-2.27.02-.6c0-.31-1.05-.49-2.22-.64l-2.56-.37.16-.68c.18-.72.45-1.4.79-2.05a10.7 10.7 0 0 1 .61-1.03c2.16-.95 4.41-1.69 6.76-2.17 2.06-.43 4.21-.66 6.43-.66 7.36 0 14.16 2.49 19.54 6.69a25.9 25.9 0 0 1 1.53 1.28A7.2 7.2 0 0 1 42 16z"/><path fill="#673ab7" d="M42 18.37v4.54l-.55 1.06-1.05 2.05-.56 1.08-.51.99-.22.43-.02.9-.05 1.22-.16 1.24a7.1 7.1 0 0 1-.66 2.03l-.12.2c-.11.18-.24.35-.38.51a3 3 0 0 1-.61.57c-.34.26-.74.47-1.2.63-.57.21-1.23.35-2.01.43l-1.68.08-.42.02-2.08.12h-.01l-2.21.13-2.25.13-3.1.18-3.77.22-.55.03a11.2 11.2 0 0 1-1.45-.09c-.05-.01-.09-.02-.14-.02-.68-.11-1.3-.29-1.86-.54a6.1 6.1 0 0 1-1.77-1.18c-.44-.43-.82-.92-1.13-1.47l-.2-.39c-.3-.59-.54-1.25-.72-1.97l-.08-.38a5.4 5.4 0 0 1-.14-.72c-.11-.64-.17-1.32-.2-2.03v-.01l-.02-.87-.49-1.17-.07-.18-.06-.15-.75-1.79-.12-.29-.72-1.73-.8-1.93-.82-1.95-.29-.71V16c0-.63.06-1.25.17-1.85l.16-.68a27.4 27.4 0 0 1 2.65-1.34 28.9 28.9 0 0 1 6.62-2.04 30.1 30.1 0 0 1 5.32-.48 29.7 29.7 0 0 1 19.12 6.97l.58.49a23.9 23.9 0 0 1 1.38 1.3z"/><path fill="#8e24aa" d="M42 21.35v5.14l-.57 1.19-1.08 2.25-.01.03-.05 1.17c-.1 1.15-.38 1.88-.84 2.33-.33.34-.74.53-1.25.63-.03.01-.07.01-.1.02-.16.03-.33.05-.51.05-.62.06-1.35.02-2.19-.04-.09 0-.19-.01-.29-.02l-1.98-.11-1.22-.02h-.02l-1.01.08h-.01l-2.27.16-2.59.2-.38.03-3.03.22-1.57.12-1.55.11c-.27 0-.53 0-.79-.01-1.14-.02-2.15-.09-3.05-.26-.83-.14-1.56-.36-2.18-.69-.64-.31-1.17-.75-1.6-1.31-.41-.55-.71-1.24-.9-2.07-.14-.68-.22-1.46-.22-2.34l-.15-.27-.89-1.59-.13-.22-.07-.14-.93-1.65-.46-.83-.58-1.03-1-1.79-.53-.94v-3.68c.88-.58 1.79-1.09 2.73-1.55 1.14-.58 2.32-1.07 3.55-1.47a27.3 27.3 0 0 1 4.17-1.02c1.45-.24 2.94-.36 4.47-.36 6.8 0 13.04 2.43 17.85 6.47.22.17.43.36.64.54.84.75 1.64 1.56 2.37 2.41.08.09.16.17.22.26z"/><path fill="#c2185b" d="M42 24.71v7.23a9.8 9.8 0 0 0-.98-.49l-.73-.32-1.25-.49a2.8 2.8 0 0 0-.31-.1l-.56-.19-1.92-.5-.8-.14a17.4 17.4 0 0 0-2.77-.25c-.08-.01-.17-.01-.25-.01l-2.57.02-3.5.02h-.01l-7.49.06c-2.38 0-3.84.57-4.72.8-.94.25-1.23.1-1.31-1.53l-.03-1.74-.56-.43-.98-.74-.6-.46-.12-.09-1.66-1.26-.25-.19-.52-.4-.96-.72L6 21.91v-3.4l.29-.21c1.45-1 3-1.85 4.64-2.54a26.3 26.3 0 0 1 4.58-1.46l1.32-.24a24 24 0 0 1 4.09-.34 25.6 25.6 0 0 1 15.91 5.55l1.9 1.66a25.8 25.8 0 0 1 2.3 2.49l.42.55.55.74z"/><path fill="#d81b60" d="M42 28.72V32c0 .65-.06 1.29-.18 1.91-.18.92-.49 1.8-.91 2.62-.22.05-.47.05-.75.01-.63-.11-1.37-.44-2.17-.87-.04-.01-.08-.03-.11-.05l-.77-.43-1.65-.91-.35-.18c-.64-.33-1.3-.63-1.96-.86l-.45-.14a6.4 6.4 0 0 0-1.71-.26l-1.1-.32-4.87-1.41-3-.87h-.01l-1.3-.38c-3.76 0-6.07 1.6-7.19.99-.44-.23-.7-.81-.79-1.95l-.04-1.1-1.17-.57-.05-.02h-.01l-.84-.42-.92-.44-.07-.03-.17-.09-1.96-.95-1.5-.73v-3.43l.53-.43.57-.44c1.19-.85 2.44-1.6 3.77-2.22a22.4 22.4 0 0 1 4.91-1.68l.77-.16c1.42-.27 2.88-.41 4.37-.41a23.5 23.5 0 0 1 14.01 4.59 24.5 24.5 0 0 1 3.14 2.78 23.3 23.3 0 0 1 2.18 2.67l.15.2c.37.54.71 1.09 1.03 1.66.21.34.39.69.57 1.04z"/><path fill="#f50057" d="M41.82 33.91c-.18.92-.49 1.8-.91 2.62a10.2 10.2 0 0 1-.63 1.06l-.44.6-1.54-.56-1.65-.53-.52-.15a18.2 18.2 0 0 0-2.17-.46c-.6-.1-1.19-.16-1.74-.16l-.46-.13h-.01l-2.42-.7-1.49-.43-1.66-.48h-.01l-.54-.15-6.53-1.88-1.88-.54-1.4-.33-2.28-.54-.28-.07-2.3-.53-.41-.1-.21-.05-1.67-.39-.19-.05-1.42-1.17L6 27.9v-4.08l1.15-1.03a5.7 5.7 0 0 1 .38-.31l.38-.3a20.2 20.2 0 0 1 2.89-1.84 19.8 19.8 0 0 1 4.13-1.66l.85-.23c1.64-.41 3.36-.62 5.14-.62a21.6 21.6 0 0 1 12.07 3.66c1.71 1.15 3.25 2.53 4.55 4.1.66.79 1.26 1.62 1.79 2.5l.13.2.89 1.64a17.1 17.1 0 0 1 .67 1.52c.32.8.58 1.62.8 2.46z"/><path fill="#ff1744" d="M40.28 37.59l-.44.6a9.8 9.8 0 0 1-1.46 1.49 10.3 10.3 0 0 1-1.5 1.04 5.3 5.3 0 0 1-.61-.19c-.66-.23-1.35-.61-1.99-1.01a23.9 23.9 0 0 1-2.16-1.57l-.21-.18-1.7-.15-.21-.02-2.2-.19-2.28-.2-3.37-.3-5.34-.47-.02-.01-1.88-.91-1.9-.92-1.53-.74-.33-.16-.41-.2-1.42-.69-1.89-.91-.59-.29-.84-.26v-4.47a20.6 20.6 0 0 1 1.5-1.6l1.07-.94.18-.14c.04-.05.09-.08.13-.1.59-.48 1.21-.91 1.85-1.3.74-.47 1.52-.89 2.33-1.24a17.9 17.9 0 0 1 2.72-.97c1.63-.46 3.36-.7 5.14-.7a19.3 19.3 0 0 1 10.96 3.37 19.4 19.4 0 0 1 5.07 5.07c.45.64.85 1.32 1.22 2.02l.37.78.34.75a21.2 21.2 0 0 1 .57 1.58 18.6 18.6 0 0 1 .71 3.08l.12 1.05z"/><path fill="#ff5722" d="M38.39 39.42l-.01.26a10.3 10.3 0 0 1-1.5 1.04l-.67.34-.7.3c-.34-.18-.8-.4-1.29-.61-.69-.31-1.44-.59-2.02-.68-.14-.03-.27-.04-.39-.04l-1.64-.21h-.02l-2.04-.27-2.06-.27-.96-.12-7.56-.98c-.49 0-1.01-.03-1.55-.1l-2.04-.3c-.68-.12-1.37-.28-2.03-.45l-2-.53-1.98-.62-1.18-.4c-.18-.43-.33-.88-.44-1.34A9.4 9.4 0 0 1 6 32v-1.67a14.5 14.5 0 0 1 1.06-1.54c.71-.94 1.52-1.8 2.4-2.56.03-.04.07-.07.1-.09l.01-.01c.31-.28.63-.53.97-.77.04-.04.08-.07.12-.1l.51-.35c1.43-.97 3.01-1.73 4.7-2.24a17.5 17.5 0 0 1 5.05-.73 17.4 17.4 0 0 1 9.47 2.79 17.3 17.3 0 0 1 5.06 4.98l.46.7c.69 1.17 1.26 2.43 1.68 3.75.05.15.09.3.13.46l.21.83.06.22a17.6 17.6 0 0 1 .31 1.95 18.1 18.1 0 0 1 .09 1.8z"/><path fill="#ff6f00" d="M36.33 39.42c0 .35-.02.73-.06 1.11l-.06.53-.7.3a9.5 9.5 0 0 1-1.38.41l-.98.16h-.01l-1.04-.68-1.93-1.43-.02-.02-1.01-.79-1.06.04-2.04.07-.95.04-3.82.14-3.23.12a9.8 9.8 0 0 1-.77 0h-.01l-1.47-.09-2.05-.18-2.06-.24-2.04-.25-1.21-.15a9.6 9.6 0 0 1-.77-1.01 9.1 9.1 0 0 1-.91-1.72c-.18-.43-.33-.88-.44-1.34a14.4 14.4 0 0 1 1.12-2.54c.36-.66.78-1.29 1.24-1.89.45-.59.94-1.14 1.47-1.64v-.01l.45-.42a12 12 0 0 1 .87-.73h.01c.01-.02.02-.02.03-.03.24-.19.49-.36.74-.53 1.48-1.01 3.15-1.76 4.95-2.2 1.19-.29 2.44-.45 3.73-.45a15.2 15.2 0 0 1 7.05 1.71h.01a15.2 15.2 0 0 1 4.7 3.75c.71.82 1.32 1.72 1.82 2.67a14.8 14.8 0 0 1 .9 1.99l.06.16a19.5 19.5 0 0 1 .45 1.54l.22 1.13.05.35a14.8 14.8 0 0 1 .15 2.12z"/><path fill="#ff9800" d="M34.28 39.42v.1c0 .34-.03.77-.06 1.23l-.09 1.02-.98.16h-.01A8.6 8.6 0 0 1 32 42h-1.75l-.38-.11-1.97-.6-2-.6-4.63-1.39-2-.6-2 .72h-.01l-1.46.47-2.02.53c-.7.16-1.39.28-2.01.33l-.55.03c-.56-.31-1.1-.68-1.59-1.09a10.3 10.3 0 0 1-1.2-1.18 9.6 9.6 0 0 1-.77-1.01l.27-1.32a12.6 12.6 0 0 1 1.39-3.37c.34-.59.72-1.16 1.16-1.69.01-.03.04-.06.07-.08.13-.18.27-.34.41-.49.41-.45.83-.87 1.29-1.26l.48-.39c.03-.03.06-.05.1-.08a13.3 13.3 0 0 1 8.09-2.76c3.44 0 6.57 1.29 8.94 3.41a13.4 13.4 0 0 1 2.84 3.63c.06.1.12.21.17.32l.26.57a11.8 11.8 0 0 1 .77 2.26l.06.24.2 1.13a13.4 13.4 0 0 1 .12 1.8z"/><path fill="#ffc107" d="M32.22 39.42l-.02.65-.1 1.18c-.02.25-.06.5-.1.75h-5.48l-1.06-.17-4.14-.66-.59-.09-1.35-.22c-.59 0-1.87.26-3.22.51l-2.08.36-.23.03h-.01a9.4 9.4 0 0 1-2.02-.68l-.6-.3c-.56-.31-1.1-.68-1.59-1.09l-.02-.27.03-.76c.04-.64.13-1.26.27-1.86a11.1 11.1 0 0 1 .97-2.6l.27-.5c.04-.08.09-.15.13-.23.18-.29.38-.57.58-.85a12.7 12.7 0 0 1 1.39-1.54l.13-.11c.05-.04.09-.09.14-.12l.61-.49c1.9-1.42 4.24-2.25 6.79-2.25 1.98 0 3.82.5 5.43 1.38h.01a11.3 11.3 0 0 1 3.53 3.03 10.2 10.2 0 0 1 .98 1.53h.01l.15.3c.3.59.54 1.21.72 1.85h.01c.01.05.03.1.04.15.12.43.22.87.29 1.32l.03.28a10.2 10.2 0 0 1 .1 1.47z"/><path fill="#ffd54f" d="M30.17 39.31l-.02.49v.01c-.02.73-.12 1.44-.28 2.08 0 .04-.01.07-.03.11h-4.67l-3.85-.83-.51-.11-.08.02-4.27.88-.19.04H16c-.64 0-1.27-.06-1.88-.18l-.27-.06h-.01a9.4 9.4 0 0 1-2.02-.68l-.05-.33c-.07-.43-.1-.88-.1-1.33l.01-.51a9.1 9.1 0 0 1 .23-1.58c.08-.38.19-.75.32-1.1a9 9 0 0 1 .38-.9c.12-.25.26-.49.4-.73l.45-.67c.4-.55.87-1.06 1.39-1.51a8.8 8.8 0 0 1 .97-.73c1.46-.96 3.21-1.52 5.1-1.52.37 0 .73.02 1.08.07h.02a9.1 9.1 0 0 1 2.99.87 9.2 9.2 0 0 1 3.59 3.1 8.2 8.2 0 0 1 .43.7c.11.19.21.39.3.59a10.3 10.3 0 0 1 .38.97h.01c.11.37.21.74.28 1.13v.01c.11.55.17 1.12.17 1.7z"/><path fill="#ffe082" d="M28.11 39.52v.03c0 .59-.07 1.17-.21 1.74-.05.24-.12.48-.21.71h-4.48l-2.29-.63-2.29.63H16c-.64 0-1.27-.06-1.88-.18-.02-.03-.03-.06-.04-.09-.14-.43-.25-.86-.3-1.31a6.6 6.6 0 0 1-.06-.9c0-.12 0-.25.02-.37.01-.47.08-.93.2-1.37a4.4 4.4 0 0 1 .27-.87 2 2 0 0 1 .17-.4c.15-.34.33-.67.53-.99a7 7 0 0 1 .73-.9c.32-.36.68-.69 1.09-.96a6.7 6.7 0 0 1 2.37-1.1c.58-.16 1.19-.24 1.82-.24a7.2 7.2 0 0 1 5.09 2.09l.16.18h.01c.14.15.27.3.4.47.37.47.68.98.92 1.54a5.6 5.6 0 0 1 .3.81l.03.11c.14.49.23 1 .25 1.53a3.6 3.6 0 0 1 .03.47z"/><path fill="#ffecb3" d="M26.06 39.52a4.1 4.1 0 0 1-.16 1.17 5.1 5.1 0 0 1-.44 1.14c-.03.06-.1.17-.1.17h-8.88c-.01-.01-.02-.03-.02-.04-.12-.19-.22-.38-.3-.59a4.6 4.6 0 0 1-.36-1.48c-.02-.12-.02-.25-.02-.37 0-.06 0-.13.01-.19a4.6 4.6 0 0 1 .19-1.25c.1-.36.23-.69.4-1.01 0 0 .01-.01.01-.02.12-.21.25-.42.4-.62a5 5 0 0 1 1.89-1.55 4.4 4.4 0 0 1 .76-.29 5.2 5.2 0 0 1 1.48-.21 4.9 4.9 0 0 1 1.68.28c.19.05.37.13.55.22.87.41 1.6 1.05 2.1 1.85a3.7 3.7 0 0 1 .27.48c.04.07.08.15.11.22a5 5 0 0 1 .41 1.69c.01.05.01.1.01.16.01.08.01.16.01.24z"/><path fill="none" stroke="#fff" stroke-linejoin="round" stroke-miterlimit="10" stroke-width="2" d="M30 11H18c-3.9 0-7 3.1-7 7v12c0 3.9 3.1 7 7 7h12c3.9 0 7-3.1 7-7V18c0-3.9-3.1-7-7-7z"/><circle cx="31" cy="16" r="1" fill="#fff"/><circle cx="24" cy="24" r="6" fill="none" stroke="#fff" stroke-linejoin="round" stroke-width="2"/></svg>