<svg xmlns="http://www.w3.org/2000/svg" xmlns:xlink="http://www.w3.org/1999/xlink" viewBox="0 0 500 500" xmlns:v="https://vecta.io/nano"><style><![CDATA[.B{fill:#263238}.C{fill:#7e57c2}.D{fill:#fff}.E{fill:#ffbe9d}.F{fill:#455a64}.G{fill:#e0e0e0}.H{fill:#eb996e}]]></style><path d="M213.77 95.33h-19.29a4.78 4.78 0 0 0-4.68 4.89v3.5a4.79 4.79 0 0 1-4.69 4.89h-37.59a4.8 4.8 0 0 1-4.68-4.9v-3.5a4.8 4.8 0 0 0-4.68-4.9H114.5a15.17 15.17 0 0 0-15.19 15.17v243.4A15.16 15.16 0 0 0 114.43 369l99.27.06a15.18 15.18 0 0 0 15.18-15.17l.05-243.41a15.17 15.17 0 0 0-15.16-15.15z" class="D"/><path d="M213.77 95.33h.52a12 12 0 0 1 1.53.12 14.34 14.34 0 0 1 5.7 2 14.63 14.63 0 0 1 3.46 2.8 15.26 15.26 0 0 1 2.89 4.53 15.8 15.8 0 0 1 1.14 6.16v7.16l.05 85.62v127 22.74a16.17 16.17 0 0 1-.59 4.63 15.14 15.14 0 0 1-1.93 4.28 16.73 16.73 0 0 1-3.16 3.51 15.38 15.38 0 0 1-8.77 3.4h-9.54-19.29-39.66-30.54a16.12 16.12 0 0 1-9.88-2.73 15.58 15.58 0 0 1-6-8.31 16.9 16.9 0 0 1-.63-5.14V348q0-10.21 0-20.29 0-20.16 0-39.68v-75-67.86q0-15.94 0-30.76v-3.68l.08-1.84.32-1.81a15.39 15.39 0 0 1 3.19-6.43 15.37 15.37 0 0 1 12.37-5.48h22.71a4.84 4.84 0 0 1 4.84 3.28 8 8 0 0 1 .31 3v1.48a9.94 9.94 0 0 0 .05 1.45 4.83 4.83 0 0 0 1.13 2.54 4.47 4.47 0 0 0 2.32 1.44 5.22 5.22 0 0 0 1.37.13h6.87 20 8.83 2.06a4.59 4.59 0 0 0 1.86-.65 4.87 4.87 0 0 0 2.13-3.06 8.13 8.13 0 0 0 .11-1.84v-1.82a10.45 10.45 0 0 1 .08-1.77 5 5 0 0 1 .57-1.62 4.85 4.85 0 0 1 2.42-2.15 7.69 7.69 0 0 1 3-.32h9.84 6 2.07-2.07-6-9.84a7.53 7.53 0 0 0-3 .32 4.69 4.69 0 0 0-2.34 2.09 4.79 4.79 0 0 0-.55 1.58 9.08 9.08 0 0 0-.07 1.74v1.82a9.13 9.13 0 0 1-.12 1.87 5 5 0 0 1-2.2 3.18 4.6 4.6 0 0 1-1.93.68c-.7.06-1.38 0-2.09 0h-35.7a5.34 5.34 0 0 1-1.43-.14 4.67 4.67 0 0 1-2.45-1.51 5.09 5.09 0 0 1-1.2-2.68 10.51 10.51 0 0 1 0-1.48v-1.48a8 8 0 0 0-.3-2.9 4.78 4.78 0 0 0-1.76-2.31 4.6 4.6 0 0 0-2.83-.78h-22.61A15.13 15.13 0 0 0 103 100.8a15.3 15.3 0 0 0-3.12 6.3c-.15.58-.2 1.18-.3 1.77s-.08 1.2-.08 1.81v34.44 67.86 75q0 19.51 0 39.68v25.4a16.28 16.28 0 0 0 .62 5 15.07 15.07 0 0 0 5.84 8.07 15.64 15.64 0 0 0 9.64 2.66h10.25 20.29 39.66 19.32 9.52a15 15 0 0 0 8.53-3.31 16.63 16.63 0 0 0 3.08-3.41 15.05 15.05 0 0 0 1.88-4.17 15.62 15.62 0 0 0 .57-4.52v-4.6q0-9.18 0-18.14l.07-127 .09-85.62v-7.16a15.72 15.72 0 0 0-1.11-6.11 15 15 0 0 0-2.85-4.5 14.58 14.58 0 0 0-3.43-2.81 14.38 14.38 0 0 0-5.65-2 13.3 13.3 0 0 0-1.54-.15zm2.93 24.58c0 .06-2.51.13-5.6.16s-5.6 0-5.6-.07 2.5-.14 5.6-.17l5.6.08zm.02 2.86c0 .07-2.5.14-5.6.17s-5.6 0-5.6-.08 2.51-.13 5.6-.16l5.6.07zm.03 2.87c0 .06-2.51.14-5.6.16s-5.61 0-5.61-.07 2.51-.14 5.6-.16l5.61.07z" class="B"/><rect x="105.19" y="171.33" width="57.56" height="57.56" rx="4.6" class="C"/><g class="B"><path d="M157.52 158.94l-.73-1h-1.13v1h-.34v-3.23h1.21c.82 0 1.32.41 1.32 1.11a1 1 0 0 1-.74 1l.79 1.11zm0-2.12c0-.52-.34-.82-1-.82h-.86v1.62h.86c.64 0 .98-.3.98-.8z"/><use xlink:href="#B"/><use xlink:href="#B" x="2.89"/><path d="M168.36 157.53v1.41H168v-1.38c0-.51-.26-.77-.7-.77a.77.77 0 0 0-.81.87v1.28h-.33v-1.38c0-.51-.25-.77-.7-.77a.78.78 0 0 0-.81.87v1.28h-.33v-2.43h.32v.49a1 1 0 0 1 .89-.46.87.87 0 0 1 .86.51 1.06 1.06 0 0 1 1-.51.91.91 0 0 1 .97.99zm.56 1.13l.15-.26a1.47 1.47 0 0 0 .86.27c.46 0 .65-.15.65-.39 0-.63-1.57-.14-1.57-1.1 0-.39.34-.69 1-.69a1.6 1.6 0 0 1 .85.23l-.14.26a1.23 1.23 0 0 0-.71-.21c-.44 0-.64.17-.64.41 0 .65 1.58.16 1.58 1.09 0 .42-.37.69-1 .69a1.64 1.64 0 0 1-1.03-.3z"/></g><path d="M132.67 209.59v4h-.91v-1.62H130v1.62h-.91v-4h.91v1.56h1.8v-1.56zm3.57 2.22v1.74h-.83v-.38a1 1 0 0 1-.92.42c-.71 0-1.14-.39-1.14-.92s.38-.91 1.31-.91h.7c0-.38-.23-.6-.7-.6a1.45 1.45 0 0 0-.88.29l-.31-.62a2.3 2.3 0 0 1 1.31-.37c.92 0 1.46.43 1.46 1.35zm-.88.78v-.32h-.61c-.41 0-.54.16-.54.36s.19.37.5.37a.66.66 0 0 0 .65-.41zm1.64-3.23h.88v4.19H137zm1.74 0h.88v4.19h-.88z" fill="#fafafa"/><path d="M221 228.88s.19 0 .57-.07a4 4 0 0 0 3.15-2.72 4.93 4.93 0 0 0 .17-1.71v-2l-.08-23.94v-16.53-4.53-2.3a3.76 3.76 0 0 0-2.57-3.33 7.16 7.16 0 0 0-2.34-.19h-4.94-43.47a3.73 3.73 0 0 0-3.7 3.24v5.64 11.09 21q0 5 0 9.76v2.36a3.82 3.82 0 0 0 4.1 4h16.53l23.94.08 6.51.05h1.69.58-.58-1.69-6.51l-23.94.09h-16.53a4.26 4.26 0 0 1-4-2.11 4.38 4.38 0 0 1-.56-2.34v-2.36-9.76-21-10.83-5.71a4.28 4.28 0 0 1 4.22-3.7h43.47H221a4.89 4.89 0 0 1 1.26.21 4.24 4.24 0 0 1 2 1.45 4.13 4.13 0 0 1 .85 2.3v2.33 4.53 16.53l-.09 23.94v2a5 5 0 0 1-.21 1.76 4.08 4.08 0 0 1-1.69 2.16 3.87 3.87 0 0 1-1.6.56 2.23 2.23 0 0 1-.52.05z" class="G"/><g class="B"><path d="M186.64,210.26l-.53.55v1h-.91v-3.95h.91v1.84l1.75-1.84h1l-1.64,1.76,1.73,2.19H187.9Z"/><path d="M189.15 207.86a.5.5 0 0 1 .55-.49.49.49 0 0 1 .55.47.55.55 0 0 1-1.1 0zm.11.91h.88v3h-.88zm3.66 2.89a1.27 1.27 0 0 1-.72.2 1 1 0 0 1-1.13-1.09v-1.25h-.47v-.68h.47v-.74h.93v.74h.76v.68H192v1.23a.36.36 0 0 0 .38.41.53.53 0 0 0 .35-.12zm.18-1.37a1.57 1.57 0 0 1 1.69-1.56 1.39 1.39 0 0 1 1.36.77l-.68.37a.81.81 0 1 0-.69 1.26.75.75 0 0 0 .69-.42l.68.38a1.42 1.42 0 0 1-1.36.77 1.57 1.57 0 0 1-1.69-1.57zm6.64-.22v1.74h-.88v-1.6c0-.49-.22-.72-.61-.72s-.73.26-.73.82v1.5h-.88v-4.19h.88v1.47a1.31 1.31 0 0 1 1-.36 1.19 1.19 0 0 1 1.22 1.34zm3.79.47h-2.3a.82.82 0 0 0 .87.61 1.06 1.06 0 0 0 .77-.29l.47.5a1.77 1.77 0 0 1-3-1.07 1.54 1.54 0 0 1 1.62-1.56 1.5 1.5 0 0 1 1.58 1.57 1.94 1.94 0 0 1-.01.24zm-2.31-.51h1.5a.76.76 0 0 0-1.5 0zm6.02.04v1.74h-.88v-1.6c0-.49-.22-.72-.61-.72s-.73.26-.73.82v1.5h-.88v-3h.86v.36a1.32 1.32 0 0 1 1-.4 1.19 1.19 0 0 1 1.24 1.3z"/></g><rect x="189.25" y="186.24" width="13.86" height="13.86" rx="1.28" class="C"/><g class="B"><path d="M201.25 198.19a3.3 3.3 0 0 1-.05-.61v-1.65l-.12-5.75.22.22h-10.12c-.06.06.49-.49.26-.25h0v1.06 1.06 2.06 3.81l-.23-.23 7.24.11 2.09.07a5.48 5.48 0 0 1 .79.05 2.73 2.73 0 0 1-.69.06l-2 .06-7.39.11h-.24v-.24-3.81-4.12h0c-.24.23.31-.32.26-.27l10.12.05h.22v.21l-.12 5.89a19.77 19.77 0 0 1-.24 2.11z"/><use xlink:href="#C"/><path d="M194.45 188.32c-.07 0-.13-.2-.33-.29a.33.33 0 1 0 0 .58c.2-.09.26-.29.33-.29s.2.26-.1.58a.72.72 0 0 1-.71.16.78.78 0 0 1 0-1.48.72.72 0 0 1 .71.16c.3.32.16.6.1.58zm1.94 0c-.08 0-.13-.2-.33-.29a.34.34 0 1 0 0 .58c.2-.09.25-.29.33-.29s.19.26-.11.58a.71.71 0 0 1-.71.16.78.78 0 0 1 0-1.48.71.71 0 0 1 .71.16c.3.32.16.6.11.58z"/><use xlink:href="#C" x="5.81"/><use xlink:href="#C" x="8.86"/></g><g fill="#fafafa"><rect x="125.57" y="187.82" width="16.72" height="8.92" rx="1.44"/><rect x="121.92" y="191.69" width="24.09" height="8.56" rx=".59"/></g><g class="B"><path d="M142.29 191.69a17.44 17.44 0 0 1 .18 3v.17h-.18l-8.36.08c-3.36 0-6.32 0-8.36-.08h-.18v-.17a17.44 17.44 0 0 1 .18-3 17 17 0 0 1 .17 3l-.17-.17 8.36-.09 8.36.09-.17.17a17 17 0 0 1 .17-3z"/><path d="M125.49 200.17a16 16 0 0 1-.27-4.14 16 16 0 0 1 .27-4.14 16.89 16.89 0 0 1 .26 4.14 16.89 16.89 0 0 1-.26 4.14zm16.82.07a15.16 15.16 0 0 1-.26-4 15.22 15.22 0 0 1 .26-4 30.75 30.75 0 0 1 0 8zm15.01-62.7h.36 1l3.67-.09-.1.11-.05-2.66v-1.53a1.4 1.4 0 0 1 1.23-1.13h1.75a1.43 1.43 0 0 1 1.2 1.42v3.87l-.17-.16 4.62-.05-.17.18v-5.76-1.47a1.49 1.49 0 0 0-.64-1.09l-2-2-2.02-1.98-1-.94a2.22 2.22 0 0 0-.95-.71 1.24 1.24 0 0 0-1.06.2c-.28.24-.58.57-.86.85l-1.66 1.67-2.92 3a3.26 3.26 0 0 0-.23 1.72v1.63 2.63 1.67a5.22 5.22 0 0 1 0 .61v-.56-1.65l-.06-2.64v-1.66-.91a1.88 1.88 0 0 1 .26-1c.85-1.05 1.87-2 2.92-3.09l1.65-1.68.89-.89a1.59 1.59 0 0 1 1.34-.26 2.53 2.53 0 0 1 1.11.79l.95.93 2 1.92 2 2a4 4 0 0 1 .51.56 1.56 1.56 0 0 1 .25.78v1.48 5.75.18h-.17-4.62-.17v-.16-3.88a1.11 1.11 0 0 0-.94-1.12h-1.67a1.13 1.13 0 0 0-1 .9c-.05.47 0 1 0 1.48v2.76h-.1-3.73-1zm-13.44 8.31l.32-.69a2.31 2.31 0 0 0 1.3.41c.54 0 .76-.18.76-.42 0-.74-2.3-.23-2.3-1.7 0-.67.55-1.23 1.67-1.23a2.66 2.66 0 0 1 1.37.35l-.28.69a2.24 2.24 0 0 0-1.1-.31c-.54 0-.75.21-.75.45 0 .73 2.3.23 2.3 1.68 0 .66-.55 1.23-1.68 1.23a2.84 2.84 0 0 1-1.61-.46zm8.99-1.35v1.74H152v-1.61c0-.49-.22-.71-.58-.71s-.67.25-.67.79v1.53h-.88v-1.61c0-.49-.21-.71-.58-.71s-.66.25-.66.79v1.53h-.88v-3h.84v.35a1.21 1.21 0 0 1 .95-.39 1.12 1.12 0 0 1 1 .49 1.36 1.36 0 0 1 1.1-.49 1.17 1.17 0 0 1 1.23 1.3zm3.48 0v1.74h-.83v-.38a1 1 0 0 1-.92.42c-.71 0-1.14-.39-1.14-.92s.38-.91 1.31-.91h.7c0-.37-.23-.59-.7-.59a1.44 1.44 0 0 0-.88.28l-.31-.62a2.29 2.29 0 0 1 1.31-.36c.92 0 1.46.42 1.46 1.34zm-.88.78V145h-.61c-.41 0-.54.15-.54.35s.19.37.5.37a.66.66 0 0 0 .65-.44zm3.53-2.12v.84h-.2a.74.74 0 0 0-.8.84v1.44h-.88v-3h.88v.4a1.22 1.22 0 0 1 1-.52zm2.62 2.93a1.23 1.23 0 0 1-.71.19 1 1 0 0 1-1.14-1.09V144h-.47v-.68h.47v-.74h.88v.74h.76v.68h-.76v1.23a.35.35 0 0 0 .38.4.64.64 0 0 0 .36-.11zm5.79-3.8v4h-.92v-1.62h-1.79v1.62h-.92v-4h.92v1.55h1.79v-1.55zm.65 2.43a1.67 1.67 0 1 1 1.67 1.56 1.55 1.55 0 0 1-1.67-1.56zm2.44 0a.78.78 0 1 0-1.55 0 .78.78 0 1 0 1.55 0zm6.62-.22v1.74h-.89v-1.61c0-.49-.22-.71-.57-.71s-.67.25-.67.79v1.53h-.88v-1.61c0-.49-.21-.71-.58-.71s-.67.25-.67.79v1.53H172v-3h.84v.35a1.24 1.24 0 0 1 1-.39 1.15 1.15 0 0 1 1 .49 1.36 1.36 0 0 1 1.09-.49 1.17 1.17 0 0 1 1.19 1.3zm3.78.5h-2.3a.82.82 0 0 0 .87.61 1 1 0 0 0 .76-.3l.47.51a1.77 1.77 0 0 1-3-1.07 1.54 1.54 0 0 1 1.62-1.56 1.5 1.5 0 0 1 1.58 1.57 2.12 2.12 0 0 1 0 .24zm-2.31-.52h1.5a.73.73 0 0 0-.75-.63.72.72 0 0 0-.75.6zm-58.7-15.88h0a.13.13 0 0 1-.12-.14c0-.12.11-3-2.52-3.36a.11.11 0 0 1-.1-.1.13.13 0 0 1 .07-.14 1.8 1.8 0 0 0 1.08-1.67 1.76 1.76 0 0 0-1.68-1.82h0a1.61 1.61 0 0 0-1.19.52 1.87 1.87 0 0 0-.5 1.28 1.77 1.77 0 0 0 1.08 1.69.13.13 0 0 1 .07.13.11.11 0 0 1-.1.11c-2.65.4-2.57 3.22-2.57 3.33a.12.12 0 0 1-.12.13.13.13 0 0 1-.13-.11s-.09-2.9 2.43-3.52a2.15 2.15 0 0 1-.34-3.21 1.86 1.86 0 0 1 1.37-.6h0a2 2 0 0 1 1.93 2.07 2.07 2.07 0 0 1-.91 1.74c2.49.62 2.38 3.52 2.38 3.55a.14.14 0 0 1-.13.12z"/></g><path d="M158.1 292.8s.2 0 .57-.06a4.23 4.23 0 0 0 1.56-.56 4.35 4.35 0 0 0 1.76-2c.48-1 .31-2.26.33-3.67l-.08-23.87v-16.49-4.52-2.3a4 4 0 0 0-.71-2.08 4.16 4.16 0 0 0-1.71-1.42 4.94 4.94 0 0 0-2.28-.35h-4.93-43.36a4.07 4.07 0 0 0-3.94 3.07 14.75 14.75 0 0 0-.13 2.77v13.88 20.92 9.73 2.35a4.2 4.2 0 0 0 .46 2.14 4.1 4.1 0 0 0 3.45 2.21h16.47l23.88.08 6.49.05h1.68.58-.58-1.68l-6.49.05-23.88.08L109 293a4.53 4.53 0 0 1-3.83-2.44 4.74 4.74 0 0 1-.51-2.34v-2.35-9.73-20.92-11.06-4.24a5.72 5.72 0 0 1 .14-1.47 4.6 4.6 0 0 1 4.45-3.47h43.36 4.93a5.36 5.36 0 0 1 2.46.4 4.49 4.49 0 0 1 2.69 3.9v2.32 4.52 16.49l-.09 23.87v2a4.31 4.31 0 0 1-.38 1.73 4.4 4.4 0 0 1-1.84 2 4.17 4.17 0 0 1-1.61.52 2.55 2.55 0 0 1-.67.07z" class="G"/><g class="B"><path d="M124 274.65c0 .69-.55 1.08-1.59 1.08h-2v-4h1.93c1 0 1.5.41 1.5 1a1 1 0 0 1-.53.87 1 1 0 0 1 .69 1.05zm-2.72-2.18v.93h.91c.45 0 .69-.16.69-.47s-.24-.46-.69-.46zm1.8 2.09c0-.34-.26-.49-.73-.49h-1.07v1h1.07c.46-.07.72-.18.72-.51zm4.5-.1h-2.3a.82.82 0 0 0 .87.61 1.06 1.06 0 0 0 .76-.29l.47.5a1.77 1.77 0 0 1-3-1.07 1.55 1.55 0 0 1 1.62-1.56 1.51 1.51 0 0 1 1.59 1.57c.01.07-.01.17-.01.24zm-2.31-.51h1.5a.76.76 0 0 0-1.5 0z"/><path d="M131.28 271.54v4.19h-.84v-.35a1.17 1.17 0 0 1-.95.4 1.57 1.57 0 0 1 0-3.13 1.2 1.2 0 0 1 .91.36v-1.47zm-.87 2.67a.78.78 0 1 0-.77.84.77.77 0 0 0 .77-.84zm3.59-1.56v.81h-.2a.75.75 0 0 0-.81.85v1.43h-.88v-3h.84v.4a1.25 1.25 0 0 1 1.05-.49z"/><path d="M134.25 274.21a1.67 1.67 0 1 1 1.67 1.57 1.57 1.57 0 0 1-1.67-1.57zm2.44 0a.78.78 0 1 0-.77.84.77.77 0 0 0 .77-.84zm1.31 0a1.67 1.67 0 1 1 1.67 1.57 1.56 1.56 0 0 1-1.67-1.57zm2.44 0a.78.78 0 1 0-.77.84.77.77 0 0 0 .72-.84zM147 274v1.74h-.88v-1.6c0-.49-.22-.72-.58-.72s-.67.25-.67.8v1.52H144v-1.6c0-.49-.21-.72-.58-.72s-.66.25-.66.8v1.52h-.89v-3h.85v.26a1.21 1.21 0 0 1 .95-.39 1.15 1.15 0 0 1 1 .49 1.36 1.36 0 0 1 1.09-.49A1.18 1.18 0 0 1 147 274z"/></g><g class="C"><rect x="121.55" y="261.01" width="24.19" height="5.66" rx="1.24"/><rect x="123.34" y="254.86" width="20.3" height="8.02" rx=".39"/></g><g class="B"><path d="M139.4 261a1.72 1.72 0 0 1-.1-.58 1.71 1.71 0 0 0-1.59-1.6h-1.24-2.89-2.9-1.25a1.75 1.75 0 0 0-.9.34 1.8 1.8 0 0 0-.68 1.26c0 .37-.07.58-.11.58a1.48 1.48 0 0 1-.1-.59 1.91 1.91 0 0 1 .65-1.53 2.07 2.07 0 0 1 1.1-.49h1.29 2.9 2.89 1.28a2 2 0 0 1 1.1.49 1.85 1.85 0 0 1 .65 1.53c-.02.39-.06.59-.1.59z"/><path d="M144.49 260.94c0 .14-4.86.26-10.85.26s-10.84-.12-10.84-.26 4.85-.26 10.84-.26 10.85.11 10.85.26z"/></g><path d="M219.29 292.8a4.86 4.86 0 0 0 2.13-.61 4.32 4.32 0 0 0 2.19-3.62v-2l-.09-23.86v-16.47-4.52-2.3a4.17 4.17 0 0 0-.7-2.09 4.32 4.32 0 0 0-3.94-1.86h-4.98-43.32a4.17 4.17 0 0 0-4 3 10.75 10.75 0 0 0-.16 2.75v2.81 11.06 20.89 9.74 2.34a4.23 4.23 0 0 0 3.85 4.44l16.45.05 23.86.08 6.48.05h1.69.58-.58-1.69l-6.48.05-23.86.08h-16.53a4.64 4.64 0 0 1-3.76-2.53 4.85 4.85 0 0 1-.51-2.34v-2.34-9.74-20.89-15.1a5 5 0 0 1 .18-1.48 4.69 4.69 0 0 1 4.51-3.4h43.32 4.93a5.08 5.08 0 0 1 2.45.46 4.77 4.77 0 0 1 1.88 1.62 4.6 4.6 0 0 1 .76 2.32v2.32 4.52 16.47l-.08 23.86v2a4.58 4.58 0 0 1-.43 1.71 4.41 4.41 0 0 1-1.89 2 4.07 4.07 0 0 1-1.61.51 2.45 2.45 0 0 1-.65.02z" class="G"/><g class="B"><path d="M185.27 274.65c0 .69-.54 1.08-1.58 1.08h-2v-4h1.93c1 0 1.49.41 1.49 1a1 1 0 0 1-.52.87 1 1 0 0 1 .68 1.05zm-2.71-2.18v.93h.9c.45 0 .69-.16.69-.47s-.24-.46-.69-.46zm1.79 2.09c0-.34-.25-.49-.73-.49h-1.06v1h1.06c.48-.07.73-.18.73-.51zm4.24-.56v1.73h-.82v-.38a1 1 0 0 1-.93.43c-.71 0-1.13-.4-1.13-.92s.38-.91 1.3-.91h.7c0-.38-.22-.6-.7-.6a1.48 1.48 0 0 0-.87.28l-.32-.62a2.4 2.4 0 0 1 1.31-.36c.93 0 1.46.43 1.46 1.35zm-.88.77v-.31h-.6c-.41 0-.54.15-.54.36s.18.36.49.36a.64.64 0 0 0 .65-.41z"/><path d="M191.35 275.58a1.27 1.27 0 0 1-.72.2 1 1 0 0 1-1.13-1.09v-1.25h-.5v-.68h.47V272h.88v.74h.75v.68h-.75v1.24a.36.36 0 0 0 .38.4.53.53 0 0 0 .35-.12zM195 274v1.74h-.88v-1.6c0-.49-.22-.72-.61-.72s-.73.26-.73.82v1.5h-.88v-4.19h.88V273a1.3 1.3 0 0 1 1-.36A1.19 1.19 0 0 1 195 274zm2.64-1.35v.81h-.2a.75.75 0 0 0-.81.85v1.43h-.88v-3h.84v.4a1.25 1.25 0 0 1 1.05-.49z"/><use xlink:href="#D"/><use xlink:href="#D" x="3.7"/><path d="M210.66 274v1.74h-.88v-1.6c0-.49-.22-.72-.57-.72s-.67.25-.67.8v1.52h-.88v-1.6c0-.49-.21-.72-.58-.72s-.67.25-.67.8v1.52h-.88v-3h.84v.26a1.24 1.24 0 0 1 1-.39 1.15 1.15 0 0 1 1 .49 1.36 1.36 0 0 1 1.09-.49 1.17 1.17 0 0 1 1.2 1.39z"/></g><g class="C"><path d="M195.19 253.78h0a1 1 0 0 0-1 1v11.07h2v-11.08a1 1 0 0 0-1-.99zm-5.510007324219 9.940001220703h1.129999995232v2.119999885559h-1.129999995232z"/><path d="M188.520004272461 262.820007324219h3.450000047684v1.580000042915h-3.450000047684zm10.5.899993896484h1.129999995232v2.119999885559h-1.129999995232z"/><path d="M197.860000610352 262.820007324219h3.450000047684v1.580000042915h-3.450000047684z"/></g><path d="M191.86 264.42c0 .15-.75.26-1.67.26s-1.68-.11-1.68-.26.75-.26 1.68-.26 1.67.12 1.67.26zm9.48 0c0 .15-.75.26-1.67.26s-1.67-.11-1.67-.26.75-.26 1.67-.26 1.67.12 1.67.26z" class="B"/><path d="M198.88 349.9h-69.57a12 12 0 0 1-12-12h0a12 12 0 0 1 12-12h69.57a12 12 0 0 1 12 12h0a12 12 0 0 1-12 12z" class="C"/><path d="M163.15 339.9c0 .85-.65 1.34-1.91 1.34h-2.37v-5h2.23c1.14 0 1.78.49 1.78 1.29a1.17 1.17 0 0 1-.66 1.11 1.21 1.21 0 0 1 .93 1.26zm-3.57-3.06v1.59H161c.72 0 1.13-.27 1.13-.79s-.41-.8-1.13-.8zm2.85 3c0-.58-.43-.83-1.22-.83h-1.63v1.65h1.63c.79 0 1.22-.24 1.22-.82zm1.72-3.84h.68v5.28h-.68zm1.63 3.36a2 2 0 1 1 2 1.92 1.88 1.88 0 0 1-2-1.92zm3.23 0a1.27 1.27 0 1 0-2.54 0 1.27 1.27 0 1 0 2.54 0zm1.29 0a1.88 1.88 0 0 1 2-1.92 1.68 1.68 0 0 1 1.54.8l-.52.33a1.2 1.2 0 0 0-1-.54 1.33 1.33 0 0 0 0 2.66 1.22 1.22 0 0 0 1-.54l.52.32a1.69 1.69 0 0 1-1.54.81 1.88 1.88 0 0 1-2-1.92zm5.82.12l-.78.73v1h-.68V336h.68v3.39l2-1.88h.83l-1.54 1.49 1.74 2.21h-.83zm-22.39-2.91v-.48a1.59 1.59 0 0 0-3.17 0v.5a.88.88 0 0 0-.75.88v2.86a.9.9 0 0 0 .9.88h3a.88.88 0 0 0 .88-.9v-2.85a.91.91 0 0 0-.86-.89zm-1.12 3.05h-.78l.12-.57a.45.45 0 0 1-.23-.39.47.47 0 0 1 .47-.48.45.45 0 0 1 .47.46.44.44 0 0 1-.2.4zm.78-3.05h-2.49v-.48a1.25 1.25 0 1 1 2.49 0z" class="D"/><path d="M158.92 307.92a2.07 2.07 0 1 1-2.06-2.07 2.07 2.07 0 0 1 2.06 2.07zm8.33 0a2.07 2.07 0 1 1-2.07-2.07 2.07 2.07 0 0 1 2.07 2.07zm8.33 0a2.07 2.07 0 1 1-2.07-2.07 2.07 2.07 0 0 1 2.07 2.07z" class="G"/><path d="M292.52 41.31h-19.25a4.79 4.79 0 0 0-4.68 4.89v3.49a4.79 4.79 0 0 1-4.68 4.89h-37.53a4.78 4.78 0 0 1-4.67-4.89v-3.54a4.78 4.78 0 0 0-4.71-4.89h-23.59a15.14 15.14 0 0 0-15.15 15.14v243a15.15 15.15 0 0 0 15.14 15.15l99.1.06a15.15 15.15 0 0 0 15.16-15.15l.05-243a15.14 15.14 0 0 0-15.19-15.15z" class="D"/><path d="M293.06 40.63h.52a10.35 10.35 0 0 1 1.53.12 14.25 14.25 0 0 1 5.69 2 14.4 14.4 0 0 1 3.45 2.8 15.13 15.13 0 0 1 2.89 4.52 15.75 15.75 0 0 1 1.13 6.15q0 3.36 0 7.15l.05 85.47v126.78 22.7a15.82 15.82 0 0 1-.58 4.63 15.21 15.21 0 0 1-1.93 4.27 16.68 16.68 0 0 1-3.16 3.5 15.31 15.31 0 0 1-8.75 3.39l-9.52.05h-19.26-39.6H195a16 16 0 0 1-9.87-2.72 15.59 15.59 0 0 1-6-8.3 16.77 16.77 0 0 1-.63-5.12v-5.11q0-10.2 0-20.26 0-20.11 0-39.61v-74.88-67.75q0-15.91 0-30.7V56l.09-1.84.31-1.8a15.4 15.4 0 0 1 3.18-6.42 15.41 15.41 0 0 1 12.36-5.48h13.2 9.47a4.86 4.86 0 0 1 3 .83 5 5 0 0 1 1.85 2.44 8 8 0 0 1 .31 3v1.47a9.9 9.9 0 0 0 .05 1.45 4.72 4.72 0 0 0 1.13 2.53 4.49 4.49 0 0 0 2.31 1.44 5.23 5.23 0 0 0 1.37.14h6.86 20 8.81 2.06a4.27 4.27 0 0 0 1.85-.65 4.79 4.79 0 0 0 2.13-3 8.76 8.76 0 0 0 .12-1.84v-1.86a10.45 10.45 0 0 1 .08-1.77 5.2 5.2 0 0 1 .66-1.64 4.79 4.79 0 0 1 2.42-2.14 7.64 7.64 0 0 1 3-.32h9.83 6 2.06-2.06-6-9.83a7.31 7.31 0 0 0-3 .32 4.67 4.67 0 0 0-2.34 2.08 4.79 4.79 0 0 0-.55 1.58 9.93 9.93 0 0 0-.07 1.74v1.81a8.48 8.48 0 0 1-.12 1.87 5 5 0 0 1-2.19 3.17 4.65 4.65 0 0 1-1.93.68c-.7.07-1.38 0-2.08 0h-35.6a5.83 5.83 0 0 1-1.43-.14 4.73 4.73 0 0 1-2.45-1.52 5.12 5.12 0 0 1-1.19-2.67 10.51 10.51 0 0 1 0-1.48v-1.27a8 8 0 0 0-.3-2.9 4.75 4.75 0 0 0-1.75-2.3 4.54 4.54 0 0 0-2.83-.78h-22.72a15 15 0 0 0-12.11 5.37 15.09 15.09 0 0 0-3.12 6.29c-.15.58-.2 1.18-.3 1.77S179 55.35 179 56v34.34 67.75V233q0 19.47 0 39.61V298a16.23 16.23 0 0 0 .62 5 15 15 0 0 0 5.83 8.06 15.59 15.59 0 0 0 9.63 2.65h30.48 39.6 19.29 9.5a14.92 14.92 0 0 0 8.51-3.3 15.84 15.84 0 0 0 3.04-3.41 14.94 14.94 0 0 0 1.88-4.15 15.66 15.66 0 0 0 .57-4.52v-4.59q0-9.16 0-18.11l.07-126.78.08-85.47v-7.15a15.64 15.64 0 0 0-1.1-6.13 15.27 15.27 0 0 0-2.85-4.5 15.07 15.07 0 0 0-9.06-4.79 12.87 12.87 0 0 0-1.53-.14zM296 65.17c0 .07-2.51.14-5.59.16s-5.6 0-5.6-.07 2.5-.14 5.59-.16l5.6.07zm0 2.83c0 .07-2.5.14-5.59.17s-5.59 0-5.59-.08 2.5-.13 5.59-.16L296 68zm0 2.89c0 .07-2.5.14-5.59.17s-5.59 0-5.59-.07 2.5-.14 5.59-.17l5.59.07z" class="B"/><g class="C"><path d="M199.55 68.56v5.16h-1.19v-2.11H196v2.11h-1.19v-5.16H196v2h2.35v-2zm4.66 2.9v2.26h-1.08v-.49a1.3 1.3 0 0 1-1.21.55c-.93 0-1.48-.52-1.48-1.2s.49-1.19 1.7-1.19h.92c0-.49-.3-.78-.92-.78A1.9 1.9 0 0 0 201 71l-.41-.8a3 3 0 0 1 1.71-.48c1.21-.02 1.91.54 1.91 1.74zm-1.15 1v-.41h-.79c-.54 0-.71.2-.71.47s.24.48.65.48a.86.86 0 0 0 .85-.53zm2.19-4.21h1.15v5.47h-1.15zm2.22 0h1.15v5.47h-1.15z"/><rect x="233.66" y="84.63" width="16.69" height="8.9" rx="1.42"/><rect x="230.02" y="88.49" width="24.05" height="8.54" rx=".39"/></g><g class="B"><path d="M250.36 88.49a17 17 0 0 1 .17 3v.17h-.18l-8.35.09c-3.35 0-6.3 0-8.35-.09h-.18v-.17a19.85 19.85 0 0 1 .17-3 17.44 17.44 0 0 1 .18 3l-.18-.18 8.35-.08 8.35.08-.18.18a17.44 17.44 0 0 1 .2-3z"/><path d="M233.58 97a16.89 16.89 0 0 1-.26-4.14 16.84 16.84 0 0 1 .26-4.13 16.84 16.84 0 0 1 .26 4.13 16.89 16.89 0 0 1-.26 4.14zm16.8 0a15.11 15.11 0 0 1-.26-4 15.16 15.16 0 0 1 .26-4 15.69 15.69 0 0 1 .26 4 15.64 15.64 0 0 1-.26 4zM228 120.85h-1.4v-.36h3.22v.36h-1.4v3.61H228z"/><use xlink:href="#E"/><path d="M238.48 122.73v1.73h-.4v-1.69c0-.63-.32-1-.86-1a1 1 0 0 0-1 1.08v1.56h-.4v-1.69c0-.63-.32-1-.87-1a1 1 0 0 0-1 1.08v1.56h-.41v-3h.39v.64a1.19 1.19 0 0 1 1.09-.57 1.09 1.09 0 0 1 1.07.63 1.3 1.3 0 0 1 1.18-.63 1.13 1.13 0 0 1 1.21 1.3zm4.13.27a1.45 1.45 0 0 1-1.49 1.52 1.3 1.3 0 0 1-1.14-.59v1.66h-.4v-4.08h.42v.59a1.29 1.29 0 0 1 1.15-.62 1.45 1.45 0 0 1 1.46 1.52zm-.41 0a1.11 1.11 0 1 0-2.22 0 1.11 1.11 0 1 0 2.22 0z"/><use xlink:href="#E" x="13.28"/><path d="M248.37 121.45v.4h-.1a1 1 0 0 0-1 1.1v1.52h-.41v-3h.39v.58a1.13 1.13 0 0 1 1.12-.6zm2.97 1.16v1.85H251V124a1.15 1.15 0 0 1-1 .49c-.68 0-1.09-.35-1.09-.87s.29-.84 1.15-.84h.95v-.18c0-.52-.29-.79-.85-.79a1.49 1.49 0 0 0-1 .35l-.18-.3a1.86 1.86 0 0 1 1.21-.41 1.06 1.06 0 0 1 1.15 1.16zm-.4 1v-.49H250c-.58 0-.76.23-.76.53s.27.56.75.56a1 1 0 0 0 .95-.64zm3.06.67a1 1 0 0 1-.63.21.79.79 0 0 1-.87-.87v-1.8h-.5v-.34h.53v-.66h.4v.66h.91v.34h-.91v1.78a.48.48 0 0 0 .52.55.68.68 0 0 0 .44-.16zm3.44-2.8v3h-.39v-.54a1.19 1.19 0 0 1-1.07.57 1.15 1.15 0 0 1-1.26-1.28v-1.73h.4v1.69a.84.84 0 0 0 .9 1 1 1 0 0 0 1-1.09v-1.56zm2.63-.03v.4H260a1 1 0 0 0-1 1.1v1.52h-.4v-3h.4v.58a1.11 1.11 0 0 1 1.07-.6zm3.3 1.65h-2.49a1.1 1.1 0 0 0 1.17 1 1.17 1.17 0 0 0 .91-.39l.23.26a1.45 1.45 0 0 1-1.15.49 1.48 1.48 0 0 1-1.57-1.52 1.46 1.46 0 1 1 2.91 0l-.01.16zm-2.49-.31H263a1.06 1.06 0 0 0-2.11 0zm-39.55 1.09v-4.23a1.06 1.06 0 0 0-2.11 0v4.23a2.22 2.22 0 1 0 2.11 0z"/></g><rect x="203.65" y="252.87" width="79.58" height="20.43" rx="10.22" class="C"/><path d="M235.58 264.56l.26-.54a2.42 2.42 0 0 0 1.58.56c.84 0 1.2-.32 1.2-.74 0-1.18-2.92-.44-2.92-2.23 0-.74.58-1.37 1.84-1.37a2.79 2.79 0 0 1 1.55.43l-.23.55a2.47 2.47 0 0 0-1.32-.4c-.82 0-1.17.35-1.17.77 0 1.17 2.92.44 2.92 2.21 0 .73-.59 1.37-1.87 1.37a2.86 2.86 0 0 1-1.84-.61zm7.51-1.65v2.2h-.62v-.48a1.36 1.36 0 0 1-1.2.52c-.83 0-1.35-.44-1.35-1.07s.38-1.07 1.47-1.07h1v-.13c0-.56-.32-.88-1-.88a1.83 1.83 0 0 0-1.15.39l-.28-.49a2.39 2.39 0 0 1 1.51-.47c1.06 0 1.62.48 1.62 1.48zm-.66 1.09v-.51h-1c-.65 0-.84.25-.84.56s.31.59.81.59a1 1 0 0 0 1.03-.64zm5.05-2.54l-1.6 3.65h-.67l-1.6-3.65h.69l1.25 2.93 1.28-2.93zm3.8 2.05h-3a1.23 1.23 0 0 0 1.32 1.06 1.36 1.36 0 0 0 1.06-.44l.36.43a2 2 0 0 1-3.4-1.27 1.79 1.79 0 0 1 1.83-1.86 1.76 1.76 0 0 1 1.8 1.88 1.41 1.41 0 0 1 .03.2zm-3-.48h2.34a1.18 1.18 0 0 0-2.34 0z" class="D"/><path d="M274 300.85h-59.19a10.34 10.34 0 1 1 0-20.68H274a10.34 10.34 0 1 1 0 20.68zm-59.14-20.43a10.09 10.09 0 1 0 0 20.18H274a10.09 10.09 0 1 0 0-20.18zm17.96 9.7a2.43 2.43 0 0 1 2.55-2.46 2.39 2.39 0 0 1 1.84.75l-.45.43a1.8 1.8 0 0 0-1.36-.57 1.85 1.85 0 1 0 1.36 3.12l.45.44a2.58 2.58 0 0 1-4.39-1.71zm8.12.21v2.2h-.63v-.48a1.34 1.34 0 0 1-1.19.52c-.83 0-1.35-.44-1.35-1.07s.38-1.07 1.46-1.07h1.05v-.13c0-.56-.32-.88-1-.88a1.83 1.83 0 0 0-1.15.39l-.28-.5a2.44 2.44 0 0 1 1.51-.46c1.02 0 1.58.48 1.58 1.48zm-.66 1.08v-.51h-1c-.65 0-.84.26-.84.57s.3.59.81.59a1.07 1.07 0 0 0 1.03-.65zm5.35-.98v2.1H245v-2c0-.71-.36-1.06-1-1.06a1.08 1.08 0 0 0-1.15 1.21v1.88h-.66v-3.65h.63v.55a1.58 1.58 0 0 1 1.32-.58 1.41 1.41 0 0 1 1.49 1.55zm.91.27a1.82 1.82 0 0 1 1.93-1.85 1.6 1.6 0 0 1 1.48.77l-.5.33a1.13 1.13 0 0 0-1-.53 1.29 1.29 0 0 0 0 2.57 1.12 1.12 0 0 0 1-.52l.5.31a1.62 1.62 0 0 1-1.48.79 1.83 1.83 0 0 1-1.93-1.87zm7.46.22h-3a1.24 1.24 0 0 0 1.4 1.08 1.33 1.33 0 0 0 1-.44l.37.43a1.84 1.84 0 0 1-1.44.59 1.83 1.83 0 0 1-2-1.87 1.78 1.78 0 0 1 1.83-1.85 1.75 1.75 0 0 1 1.8 1.87 1.34 1.34 0 0 1 .04.19zm-3-.47h2.34a1.18 1.18 0 0 0-2.34 0zm4-3.03h.66v5.11H255zm42.3-88.09v-.43c0-.29-.05-.72-.09-1.26l-.13-2a18.79 18.79 0 0 0-.26-2.78l-.53-3.46-.16-1-.25-1-.54-2.1-.6-2.23-.83-2.33-.9-2.45-1.17-2.49c-.42-.84-.76-1.75-1.28-2.58l-1.53-2.6-.8-1.33-.93-1.28-1.91-2.63-2.22-2.54-1.17-1.3c-.39-.43-.84-.81-1.27-1.21l-2.61-2.44-2.91-2.25a28.47 28.47 0 0 0-3.13-2.1 29.41 29.41 0 0 0-3.32-1.94l-3.53-1.74-3.76-1.42a50.13 50.13 0 0 0-32.81 0l-3.76 1.42-3.53 1.74a30.47 30.47 0 0 0-3.33 1.94 29.32 29.32 0 0 0-3.12 2.1l-2.92 2.25-2.62 2.44-1.26 1.21-1.14 1.29-2.22 2.54-1.91 2.63-.94 1.28-.79 1.34-1.54 2.59c-.52.84-.85 1.74-1.27 2.58l-1.18 2.49c-.38.81-.6 1.66-.89 2.45l-.84 2.33c-.25.75-.4 1.51-.59 2.23l-.54 2.1-.25 1c-.08.33-.11.65-.16 1l-.53 3.46a20.4 20.4 0 0 0-.27 2.78c0 .81-.09 1.49-.12 2l-.09 1.26a2 2 0 0 1 0 .43 2.3 2.3 0 0 1 0-.43q0-.47 0-1.26l.08-2.06a21.26 21.26 0 0 1 .21-2.79l.5-3.49c0-.31.08-.64.15-1l.24-1 .51-2.11.59-2.25.82-2.35.88-2.47c.32-.84.77-1.66 1.16-2.52l1.27-2.6 1.54-2.62.79-1.35.93-1.3 1.92-2.66 2.23-2.57 1.14-1.3c.4-.44.85-.82 1.27-1.23l2.64-2.47 2.93-2.27a27.46 27.46 0 0 1 3.14-2.13 29.54 29.54 0 0 1 3.36-2l3.56-1.76 3.79-1.44a50.46 50.46 0 0 1 33.15 0l3.79 1.44 3.56 1.76a31.11 31.11 0 0 1 3.36 2 27.46 27.46 0 0 1 3.14 2.13l2.93 2.27L281 160l1.27 1.22 1.15 1.31 2.22 2.57 1.92 2.66.94 1.29.79 1.35 1.53 2.62c.52.85.85 1.77 1.28 2.61l1.16 2.52c.38.82.59 1.67.88 2.47l.82 2.34c.26.75.39 1.53.58 2.26l.52 2.11.24 1c.07.33.1.65.15 1l.49 3.49a19.8 19.8 0 0 1 .22 2.79l.07 2.06v1.26a1.73 1.73 0 0 1 .07.4z" class="C"/><path d="M201.22 197a7.47 7.47 0 0 1 2.6.27 7.53 7.53 0 0 1-2.61.23 6.4 6.4 0 0 1-2.6-.26 6.64 6.64 0 0 1 2.61-.24zm.61-6.83c1.42.24 2.54.64 2.5.89s-1.23.28-2.65.08-2.54-.61-2.5-.9 1.23-.32 2.65-.07zm1.69-6.66c1.36.47 2.4 1 2.32 1.28s-1.26.09-2.63-.34-2.41-1-2.32-1.28 1.27-.12 2.63.34zm2.71-6.3c1.27.68 2.21 1.4 2.09 1.63s-1.25-.12-2.54-.76-2.22-1.37-2.09-1.62 1.31.08 2.54.75zm3.68-5.79c1.15.86 2 1.73 1.81 1.93s-1.22-.31-2.39-1.14-2-1.7-1.81-1.94 1.24.28 2.39 1.15zm4.53-5.15c1 1 1.67 2 1.49 2.19s-1.16-.49-2.19-1.5-1.69-2-1.48-2.19 1.18.47 2.18 1.5zm5.28-4.38c.82 1.18 1.33 2.25 1.12 2.4s-1.06-.67-1.92-1.83-1.36-2.22-1.13-2.39 1.1.64 1.93 1.82zm5.89-3.51c.63 1.3 1 2.43.74 2.55s-.95-.83-1.62-2.1-1-2.41-.74-2.55 1.01.81 1.62 2.1zm6.39-2.54c.42 1.38.57 2.55.33 2.63s-.8-1-1.26-2.33-.61-2.54-.34-2.62.83.95 1.27 2.32zm6.67-1.51c.2 1.42.17 2.61-.08 2.65s-.65-1.08-.89-2.5-.2-2.6.08-2.65.69 1.07.89 2.5zm6.85-.46c0 1.44-.24 2.6-.49 2.6s-.47-1.16-.49-2.6.2-2.6.48-2.61.51 1.17.5 2.61zm6.84.6c-.24 1.42-.64 2.54-.89 2.5s-.29-1.23-.08-2.65.59-2.54.88-2.5.33 1.23.09 2.65zm6.64 1.66c-.46 1.36-1 2.4-1.27 2.33s-.09-1.26.33-2.63 1-2.42 1.27-2.33.14 1.27-.33 2.63zm6.33 2.67c-.67 1.28-1.39 2.22-1.61 2.11s.1-1.25.74-2.55 1.35-2.23 1.61-2.1-.07 1.27-.74 2.54zm5.82 3.64c-.86 1.15-1.72 2-1.92 1.82s.3-1.22 1.12-2.4 1.69-2 1.92-1.82-.27 1.24-1.12 2.4zm5.18 4.49c-1 1-2 1.68-2.18 1.5s.49-1.16 1.49-2.19 2-1.71 2.18-1.51-.46 1.19-1.49 2.2zm4.42 5.24c-1.17.84-2.24 1.35-2.38 1.15s.66-1.07 1.8-1.94 2.22-1.38 2.39-1.14-.64 1.1-1.81 1.93zm3.55 5.83c-1.28.64-2.42 1-2.54.76s.82-1 2.09-1.63 2.41-1 2.54-.76-.8 1.03-2.09 1.63zm2.58 6.4c-1.37.43-2.55.58-2.62.34s1-.81 2.32-1.28 2.53-.62 2.62-.34-.95.88-2.32 1.28zm1.54 6.68c-1.42.21-2.61.18-2.65-.07s1.08-.65 2.5-.9 2.6-.21 2.65.08-1.07.68-2.5.89zm.47 6.42a7.49 7.49 0 0 1-2.6-.23 7.42 7.42 0 0 1 2.6-.27 6.64 6.64 0 0 1 2.61.24 6.43 6.43 0 0 1-2.61.26z" class="B"/><circle cx="257.81" cy="146.8" r="2.16" class="C"/><path d="M224.59 195.48v3.35h-13.4v-2.66l6.84-6.46c1.57-1.5 1.85-2.41 1.85-3.27 0-1.39-1-2.2-2.83-2.2a4.35 4.35 0 0 0-3.68 1.77l-3-1.93a8.24 8.24 0 0 1 7.05-3.29c3.95 0 6.58 2 6.58 5.24 0 1.73-.48 3.3-3 5.6l-4 3.85zm1.65-5.48c0-5.85 3.24-9.17 7.6-9.17s7.59 3.32 7.59 9.17-3.21 9.17-7.59 9.17-7.6-3.36-7.6-9.17zm11.07 0c0-4-1.42-5.7-3.47-5.7s-3.45 1.67-3.45 5.7 1.42 5.7 3.45 5.7 3.47-1.7 3.47-5.7zm5.84-6c0-2.43 2-4.18 4.82-4.18s4.78 1.75 4.78 4.18-2 4.2-4.78 4.2-4.82-1.74-4.82-4.2zm6.92 0a2.12 2.12 0 1 0-2.1 2.1 2 2 0 0 0 2.1-2.1zm11.44 6c0-5.34 4.11-9.17 9.63-9.17a9.17 9.17 0 0 1 7.29 3.14l-2.63 2.43a5.7 5.7 0 0 0-4.46-2.07 5.67 5.67 0 1 0 4.46 9.24l2.63 2.43a9.12 9.12 0 0 1-7.32 3.17c-5.49-.04-9.6-3.87-9.6-9.17z" class="B"/><path d="M307.22 106.47c0 .14-28.55.26-63.77.26s-63.79-.12-63.79-.26 28.55-.26 63.79-.26l63.77.26z" class="G"/><path d="M281.15 223.65c0 .15-16.87.26-37.68.26s-37.68-.11-37.68-.26 16.87-.26 37.68-.26l37.68.26zm0 7.35c0 .15-16.87.26-37.68.26s-37.68-.11-37.68-.26 16.87-.26 37.68-.26l37.68.26zM189.28 73.52a.11.11 0 0 1-.08 0l-2.55-2.11a.11.11 0 0 1 0-.09.12.12 0 0 1 0-.1l2.55-2.28a.11.11 0 0 1 .17 0 .13.13 0 0 1 0 .18l-2.44 2.19 2.44 2a.12.12 0 0 1 0 .17.14.14 0 0 1-.09.04z" class="B"/><use xlink:href="#F" class="C"/><g opacity=".5"><use xlink:href="#F"/></g><path d="M100.2 420.17c5.06-4.81 4.81-13.18 2.28-19.69s-8-11.52-14.19-14.81a45 45 0 0 0-39.19-1.27 18.61 18.61 0 0 1 15 8.83c2.78 4.61 3.39 10.2 5.68 15.07a23.74 23.74 0 0 0 30.38 11.87m2.47-28.9c5.61-6.62 6.36-17.24 5.53-25.87s-2.83-17.33-1.46-25.89c.8-5.08 2.77-9.92 3.44-15s-.28-10.85-4.23-14.14c-4.54-3.78-11.68-2.89-16.4.66s-7.46 9.12-9.46 14.68c-4.39 12.21-6 25.75-2.39 38.21s12.07 23.61 24.49 27.37" class="C"/><path d="M105.32 445.57a3.69 3.69 0 0 0 0-.76v-2.19l-.68-8a105.11 105.11 0 0 0-2.15-11.73 53.77 53.77 0 0 0-5.36-13.59 56.15 56.15 0 0 0-8.75-11.7 55 55 0 0 0-9.19-7.6c-1.4-1-2.76-1.71-3.93-2.39L72.17 386l-2-.85a6.21 6.21 0 0 0-.71-.27 3.59 3.59 0 0 0 .68.35l2 .93 3 1.62c1.13.62 2.48 1.45 3.86 2.43a57.67 57.67 0 0 1 17.71 19.29c5.15 9 6.57 18.5 7.59 25.15.46 3.35.7 6.09.82 8l.13 2.18a5.69 5.69 0 0 0 .07.74z" class="B"/><use xlink:href="#G" class="C"/><g opacity=".5"><use xlink:href="#G"/></g><path d="M161.45,372c-2.72-3.75-9.42-4.84-13.65-3s-7.33,5.58-10.1,9.28-5.47,7.61-9.32,10.19-9.21,3.51-13,.91a11.22,11.22,0,0,1-4.43-7.67,25.78,25.78,0,0,1,.61-9c.92-4.35,2.41-8.89,5.89-11.66,3.88-3.08,9.27-3.22,14.22-3.06,5.68.18,11.45.61,16.78,2.58s10.77,6.22,13,11.44" class="C"/><path d="M114 437.26v-.23-.67l.09-2.57.27-9.47.58-14c.29-5.25.68-11.08 1.48-17.12a56.16 56.16 0 0 1 1.72-8.69 44.88 44.88 0 0 1 3.18-7.6 43.63 43.63 0 0 1 4-6.3 40.92 40.92 0 0 1 4.38-4.81 32.2 32.2 0 0 1 7.76-5.29l1.35-.62 1-.39.62-.25.21-.1-.22.05-.64.21-1 .35c-.41.15-.86.37-1.37.59a31 31 0 0 0-7.91 5.21 40.58 40.58 0 0 0-4.46 4.82 43.67 43.67 0 0 0-4.09 6.33 44.72 44.72 0 0 0-3.23 7.67 54.12 54.12 0 0 0-1.75 8.76c-.8 6.06-1.18 11.88-1.45 17.16s-.39 10-.48 14l-.12 9.48v2.57.67a.6.6 0 0 0 .08.24zm-3.79 4.74a30 30 0 0 0 1.14-4.46 46.41 46.41 0 0 0 .47-12.51 82.73 82.73 0 0 0-3.95-18.16c-2.13-6.67-5-13.81-7.49-21.48a98.77 98.77 0 0 1-3-11.36 101.93 101.93 0 0 1-1.48-10.85 160.81 160.81 0 0 1-.33-18.54c.18-5.29.46-9.56.64-12.51l.2-3.4v-.88a1.23 1.23 0 0 0 0-.31 1.77 1.77 0 0 0 0 .3c0 .23-.05.52-.08.88l-.29 3.4c-.23 2.95-.56 7.22-.78 12.51a153.27 153.27 0 0 0 .23 18.59A99.82 99.82 0 0 0 97 374.06a97.23 97.23 0 0 0 3 11.42c2.48 7.7 5.38 14.83 7.52 21.47a83.93 83.93 0 0 1 4 18.06 48.37 48.37 0 0 1-.33 12.45c-.25 1.46-.49 2.58-.69 3.33l-.21.86a2.37 2.37 0 0 0-.08.35z" class="B"/><g class="F"><path d="M84.5 446.64h48.7l1.11-9.38H84.5v9.38z"/><path d="M127.97 445.57l-6.08 28.12H95.42l-5.7-28.12h38.25z"/><path d="M84.5 446.64c0 .12 10.71.2 23.91.16l23.92-.3c0-.13-10.71-.2-23.92-.16l-23.91.3z"/></g><path d="M92.86 460.52a19.3 19.3 0 0 1 4.29-2.46 15.27 15.27 0 0 1 5.21-1.05 18.46 18.46 0 0 1 6.41 1.18l6.32 2.1a15 15 0 0 0 5.45.17 11.22 11.22 0 0 0 3.51-1.11 5.93 5.93 0 0 0 .84-.54c.19-.14.28-.21.27-.23s-.42.24-1.19.61a12.31 12.31 0 0 1-3.47.94 15.34 15.34 0 0 1-5.32-.25c-2-.49-4-1.37-6.26-2.13a18.23 18.23 0 0 0-6.57-1.17 15 15 0 0 0-5.35 1.18 13.35 13.35 0 0 0-3.17 1.85 6.85 6.85 0 0 0-.76.65l-.21.26z" class="B"/><path d="M93.23 462.4a20.56 20.56 0 0 1 4.12-2.4 14 14 0 0 1 5-1 18.2 18.2 0 0 1 6.21 1.12l6.08 2.07a15.46 15.46 0 0 0 5.24.58 8.94 8.94 0 0 0 3.44-.91 6.39 6.39 0 0 0 .82-.52c.18-.14.26-.21.25-.23s-.4.24-1.15.58a9.39 9.39 0 0 1-3.38.76 16.11 16.11 0 0 1-5.11-.68c-1.88-.53-3.88-1.36-6-2.09a17.87 17.87 0 0 0-6.36-1.1 13.58 13.58 0 0 0-5.14 1.16 13.16 13.16 0 0 0-3 1.84l-.73.63c-.16.15-.3.17-.29.19zm-.86-3.75a23.52 23.52 0 0 1 4.41-2.59 16.22 16.22 0 0 1 5.34-1.29 17.43 17.43 0 0 1 6.62 1.17 59.62 59.62 0 0 0 6.54 2.13 16.32 16.32 0 0 0 5.63 0 12.76 12.76 0 0 0 3.62-1.14 7.53 7.53 0 0 0 .88-.55c.19-.14.28-.22.27-.23s-.43.25-1.23.61a13.91 13.91 0 0 1-3.59 1 16.84 16.84 0 0 1-5.5-.11 66.94 66.94 0 0 1-6.47-2.15 17.13 17.13 0 0 0-6.79-1.15 16.46 16.46 0 0 0-8.7 3.36 7.17 7.17 0 0 0-.78.68l-.25.26z" class="D"/><g class="B"><path d="M84.07 446.68c0 .13 11 .23 24.46.23l24.47-.23c0-.13-11-.24-24.47-.24l-24.46.24zm386.29 27.01c0 .15-98.67.26-220.35.26s-220.37-.11-220.37-.26 98.65-.26 220.37-.26l220.35.26z"/><path d="M444.039986572266 473.440013427734h-11.630000114441v-45.349998474121h11.630000114441zm-174.599993896485 0H257.80999256134v-45.349998474121h11.630000114441z"/></g><path d="M233 319.57c2.61-4.52 28.27-18.09 28.27-18.09s4.72-22.12 17.26-26.28c6.12-2 145.15 2 145.15 2 5.65 3.41 9.52 24.28 9.52 24.28 10 2.52 33.49 16.17 34.79 21.83s1.57 109.23-.16 114.88c-8.12 3.39-16 3.84-23.74.78l-184.43-.81s-23.32 8.78-26.66-.48c-1.57-4.21-2.66-113.6 0-118.11z" class="C"/><path d="M259.61 397.85c0-.15 40.75-.26 91-.26l91 .26c0 .15-40.74.26-91 .26s-91-.11-91-.26zm194.25 39.37v-.69-2l-.12-7.94-.38-29.88-.53-45.87v-6.7-6.87a24.33 24.33 0 0 0-1.34-6.86 26.86 26.86 0 0 0-3.4-6.32 39.62 39.62 0 0 0-10.86-10.14 79.64 79.64 0 0 0-13.9-7.09h-.09v-.09l-4.16-10-2.12-5.09-1.07-2.56a10.7 10.7 0 0 0-1.3-2.4 9.82 9.82 0 0 0-6.94-4l-2.83-.17-11.52-.6-48-2.15q-12.49-.47-24.67-.78l-23.95-.19-5.85.2c-1 0-1.93.14-2.88.23a12.79 12.79 0 0 0-2.78.54 11.46 11.46 0 0 0-4.59 3.15 24.48 24.48 0 0 0-3.31 4.53 54.17 54.17 0 0 0-4.38 10.21 86.17 86.17 0 0 0-2.68 10.54v.15h-.15a30.26 30.26 0 0 0-7.17 3 51.68 51.68 0 0 0-6.39 4.24 28.73 28.73 0 0 0-5.34 5.22 10.83 10.83 0 0 0-1.66 3.22 18.81 18.81 0 0 0-.66 3.55c-.37 4.83.43 9.56.61 14.19.08 2.34 0 4.6-.05 6.86l-.07 6.65.08 45.54v29.66l-.12 7.87v2 .68-.68-2-7.88l-.11-29.65-.19-45.54q0-3.29.06-6.66c0-2.24.12-4.54 0-6.83-.18-4.6-1-9.33-.63-14.24a19.3 19.3 0 0 1 .67-3.66 11.45 11.45 0 0 1 1.72-3.35 29.64 29.64 0 0 1 5.42-5.31 51.59 51.59 0 0 1 6.45-4.29 30.8 30.8 0 0 1 7.29-3.09l-.18.19a86.29 86.29 0 0 1 2.68-10.61 54.47 54.47 0 0 1 4.42-10.31 25.58 25.58 0 0 1 3.37-4.63 12 12 0 0 1 4.8-3.27 13 13 0 0 1 2.88-.57c1-.1 1.94-.19 2.91-.23 1.95-.12 3.91-.18 5.87-.21 7.86-.14 15.85 0 24 .19l24.68.77 48 2.16 11.52.61c1 .06 1.89.08 2.86.17a10 10 0 0 1 2.81.7 10.39 10.39 0 0 1 4.49 3.5 11.87 11.87 0 0 1 1.35 2.5l1.07 2.56 2.11 5.09 4.15 10-.13-.13a81.35 81.35 0 0 1 14 7.15 40.35 40.35 0 0 1 11 10.27 27.52 27.52 0 0 1 3.44 6.43 25.32 25.32 0 0 1 1.36 7c.13 2.34.05 4.65 0 6.91s-.08 4.49 0 6.69l.42 45.86.24 29.88.05 7.94v2c-.27.51-.28.73-.28.73z" class="B"/><g opacity=".4"><path d="M453.11,441.11c1.56-32.46.24-62.68,0-95.17-.1-11,1.32-19.24-11.24-29.48-6.9-5.62-18.34-10.55-18.34-10.55-3.26-4.59-3.73-12.67-6.8-17.39-4.58-7.06-14.46-7.74-22.88-7.68l-88.66.67c-7.05.05-14.87.41-19.88,5.37-4.65,4.61-5.4,11.77-5.67,18.32q-.53,12.42-.11,24.85c.14,4.08.51,8.54,3.32,11.5,2.33,2.46,5.82,3.6,9.2,3.92,25,2.31,97.73,1.88,129,1.88l22.75,21.41L444,439Z"/></g><g class="B"><path d="M268 369.05c0-.15 38.59-.26 86.17-.26l86.17.26c0 .15-38.57.26-86.17.26s-86.17-.12-86.17-.26zm-8.39 69.11v-1.3-3.79l-.05-14.47-.05-52.2v-.09l.06-.06 18.63-19.07.07-.07h.1 69.32 73.55.09l.06.06 14.91 13.51 6.64 6.62.72.9a3.68 3.68 0 0 1 .32.51 1 1 0 0 1 .1.35v2.51 4.37 29.76V425v5.1 1.31a3.72 3.72 0 0 1 0 .44v-.44-1.31l-.05-5.1-.14-19.27-.16-29.76v-4.37-2.23-.28a1.89 1.89 0 0 0-.06-.18 4.73 4.73 0 0 0-.29-.44c-.21-.3-.46-.58-.7-.87-2-2.24-4.3-4.38-6.62-6.57-4.67-4.38-9.68-8.86-14.92-13.48l.15.06h-73.55-69.32l.17-.08-18.67 19 .06-.14-.12 52.2-.07 14.47v3.79c0 .87-.18 1.31-.18 1.31z"/><path d="M423.62 307.9c.14 0-.29 8.84-1 19.74l-1.48 19.71c-.14 0 .29-8.85 1-19.75l1.48-19.7zm-188.7 13.02a25.14 25.14 0 0 1 6.65.31 24.82 24.82 0 0 1 6.48 1.56c0 .14-2.93-.54-6.55-1.05l-6.58-.82zm28.7-18.53a4.13 4.13 0 0 1 2.61.44 4 4 0 0 1 2.12 1.59 22.33 22.33 0 0 1-2.33-1.11 20.25 20.25 0 0 1-2.4-.92zM454.4 326.7a23.67 23.67 0 0 1 10.82-5c0 .15-2.54.9-5.52 2.3l-5.3 2.7z"/></g><path d="M251.53 320.87c2.1-3.8 5.79-6.41 9.35-8.9 6.06-4.22 12.46-8.58 19.81-9.41 7.7-.87 15.43 2.37 21.5 7.19 14.16 11.25 23.95 34 18.17 51.16-12.3 4.3-26.15 7.66-39.15 6.68-5.67-.42-11.53-1.45-16.16-4.76-5.73-4.09-8.65-11-11.3-17.48-3.19-7.87-6.33-17.06-2.22-24.48z" fill="#f5f5f5"/><path d="M279.69 363.89a1.78 1.78 0 0 1 .3-.35c.22-.22.53-.55 1-.93a30 30 0 0 1 3.9-3 45.81 45.81 0 0 1 14.93-6.1 91.36 91.36 0 0 1 16.05-1.93l4.89-.15h1.33a1.53 1.53 0 0 1 .47 0 12.07 12.07 0 0 1-1.79.17l-4.88.31a104.33 104.33 0 0 0-16 2.08 48.19 48.19 0 0 0-14.86 5.9 37.09 37.09 0 0 0-4 2.83 14.07 14.07 0 0 1-1.34 1.17zm-7.42 1.91a5.27 5.27 0 0 1 1.23-2.72 5.33 5.33 0 0 1 2.19-2 22.55 22.55 0 0 1-1.77 2.33 22.8 22.8 0 0 1-1.65 2.39zm39.79-29.41a9.43 9.43 0 0 1 7.83-1.29c0 .16-1.81-.08-4 .29s-3.76 1.15-3.83 1zm-46.35 15.16s.09-.14.3-.36l.93-1 1.54-1.46 2.1-1.85a67.82 67.82 0 0 1 5.85-4.38 75.6 75.6 0 0 1 7.75-4.47 76.72 76.72 0 0 1 8.26-3.43 68.7 68.7 0 0 1 7-2l2.75-.55 2.09-.33 1.33-.15a1.2 1.2 0 0 1 .47 0 2.14 2.14 0 0 1-.45.12l-1.31.25-2.07.42-2.72.62c-2 .48-4.38 1.18-7 2.07a81.29 81.29 0 0 0-8.19 3.44 85 85 0 0 0-7.72 4.4l-5.87 4.27-2.15 1.78-1.59 1.39-1 .88a1.92 1.92 0 0 1-.3.34zm-9.86-1.34a6.47 6.47 0 0 1 2.33-3.12 6.38 6.38 0 0 1 3.62-1.42c.06.17-1.65.61-3.3 1.84s-2.5 2.81-2.65 2.7zm3.37-10.61a8.58 8.58 0 0 1 .87-1.27 16.49 16.49 0 0 1 1.13-1.42l1.61-1.8a42.67 42.67 0 0 1 4.63-4.21 44.19 44.19 0 0 1 13.48-7.22 42.51 42.51 0 0 1 6.08-1.53c.88-.18 1.68-.25 2.38-.34a17.85 17.85 0 0 1 1.81-.16 8 8 0 0 1 1.55 0 7.91 7.91 0 0 1-1.53.23l-1.79.24-2.35.41a46.84 46.84 0 0 0-6 1.62 51.61 51.61 0 0 0-7 3 50.22 50.22 0 0 0-6.38 4.12 46.71 46.71 0 0 0-4.67 4.09c-.65.61-1.16 1.22-1.65 1.73l-1.19 1.36a9.58 9.58 0 0 1-.98 1.15zm-8.62-1.95a7.7 7.7 0 0 1 5.58-4.33c.05.15-1.47.69-3 1.9s-2.45 2.52-2.58 2.43zm49.16-12.6a6.52 6.52 0 0 1 1.88-1.11 18.58 18.58 0 0 1 10.36-1.46 6.42 6.42 0 0 1 2.12.54 25.31 25.31 0 0 0-14.33 2zm-19.14-7.56a3.59 3.59 0 0 1 .77-.57c.51-.35 1.27-.81 2.24-1.34a39.37 39.37 0 0 1 8-3.2 38.8 38.8 0 0 1 8.47-1.38 23.15 23.15 0 0 1 2.61 0 3.21 3.21 0 0 1 1 .1c0 .08-1.36.09-3.53.28a46.15 46.15 0 0 0-16.33 4.55l-3.23 1.56zm-27.38 7.85a10.89 10.89 0 0 1 2.07-1.93 26.86 26.86 0 0 1 5.89-3.49 27.22 27.22 0 0 1 6.57-1.88 10 10 0 0 1 2.82-.18 25.06 25.06 0 0 1-2.76.54 32 32 0 0 0-12.3 5.3 27.65 27.65 0 0 1-2.29 1.64zm-3.38-.66c-.08-.12.5-.64 1.28-1.16s1.49-.86 1.57-.74-.5.65-1.28 1.17-1.49.85-1.57.73zm3.61-6.01a8.46 8.46 0 0 1 1.25-.82l3.52-2.05c3-1.68 7.22-3.88 12-6.1s9.17-4 12.39-5.2c1.61-.61 2.92-1.07 3.84-1.37a6.92 6.92 0 0 1 1.43-.42 8.49 8.49 0 0 1-1.36.61l-3.78 1.52c-3.18 1.29-7.55 3.13-12.3 5.34s-9 4.35-12 5.95l-3.6 1.89a8 8 0 0 1-1.39.65z" class="C"/><g class="B"><path d="M288.82 367.6a5 5 0 0 1 1.24-.28l3.4-.6c2.88-.5 6.84-1.23 11.2-2.15s8.27-1.87 11.1-2.57l3.35-.84a6.87 6.87 0 0 1 1.25-.25 6.47 6.47 0 0 1-1.19.44c-.78.26-1.91.6-3.32 1-2.81.8-6.72 1.81-11.09 2.73s-8.35 1.6-11.24 2l-3.43.43a7.09 7.09 0 0 1-1.27.09zm-36.53-48.38a2.18 2.18 0 0 1 .16.59l.35 1.71.6 2.7.95 3.53.62 2 .77 2.17c.51 1.5 1.21 3.05 1.91 4.7a76.94 76.94 0 0 0 5.63 10.17 77.94 77.94 0 0 0 7.22 9.1l3.62 3.57 1.7 1.54 1.64 1.36c1 .88 2 1.57 2.89 2.22l2.26 1.59 1.45 1a3.43 3.43 0 0 1 .48.37 2.41 2.41 0 0 1-.54-.28l-1.5-.9-2.31-1.52-3-2.18-1.67-1.33-1.73-1.54c-1.22-1-2.4-2.28-3.67-3.55a67.59 67.59 0 0 1-13-19.4l-1.87-4.76-.75-2.19-.59-2c-.41-1.3-.64-2.51-.88-3.57l-.52-2.72-.25-1.73a4.61 4.61 0 0 1 .03-.65z"/><path d="M262.5 355.31a9.76 9.76 0 0 1 2.63-5.45 14.42 14.42 0 0 1-1.28 2.74 14.93 14.93 0 0 1-1.35 2.71zm-1.1-3.55c-.12-.08.33-.94 1.18-1.75s1.71-1.23 1.79-1.11-.63.71-1.43 1.49-1.42 1.45-1.54 1.37zm-.4-25.92a21.69 21.69 0 0 0-3.21 3 14 14 0 0 0-2 3.92 2.44 2.44 0 0 1 .1-1.34 7.91 7.91 0 0 1 1.43-2.9 7 7 0 0 1 3.68-2.68zm-3-2.46a30.06 30.06 0 0 1-1.23 3 25.87 25.87 0 0 1-1.12 3 6.54 6.54 0 0 1 .63-3.21 6.42 6.42 0 0 1 1.72-2.79zm26.64 4.1a5.59 5.59 0 0 1 1.26-.27 12 12 0 0 1 1.49-.19 19.83 19.83 0 0 1 2-.1 22.64 22.64 0 0 1 2.42.07c.88 0 1.8.19 2.78.33a30 30 0 0 1 11.79 4.74l2.23 1.68a21.43 21.43 0 0 1 1.81 1.63 19.51 19.51 0 0 1 1.37 1.46 11.15 11.15 0 0 1 .95 1.17 5.8 5.8 0 0 1 .72 1.07c-.08.06-1.15-1.43-3.3-3.44l-1.82-1.55-2.22-1.62a31.5 31.5 0 0 0-11.62-4.67l-2.72-.37-2.4-.14c-2.92-.03-4.73.31-4.74.2zm-9.52-8.48a6.48 6.48 0 0 1 1.24-.28 11.41 11.41 0 0 1 1.47-.2 16.4 16.4 0 0 1 2-.12 19.69 19.69 0 0 1 2.4.05 25.54 25.54 0 0 1 2.73.3 32.44 32.44 0 0 1 6.08 1.66 31.86 31.86 0 0 1 5.59 2.93l2.21 1.64a20.72 20.72 0 0 1 1.78 1.6A17.36 17.36 0 0 1 302 328a10.68 10.68 0 0 1 .94 1.15 6.2 6.2 0 0 1 .72 1c-.09.07-1.14-1.4-3.27-3.37l-1.8-1.52-2.21-1.58a30.81 30.81 0 0 0-11.48-4.52l-2.68-.34a19.81 19.81 0 0 0-2.36-.11l-4.74.29z"/></g><path d="M278.08 291.23s34.31-32 40.77-39.68c4.28-5.1 12.48-7.22 17.51-8h0l17.81-2.86 37 3.33a.71.71 0 0 1 .37 0h.3v.1c5 2.29 30.33 28.53 30.33 28.53l7.46-19.65 17.55 3.87-6.8 40.86c-4.36 7.61-11 10.72-18.19 5.83l-24.8-19c-1 12.79-3.38 46.67-1.23 53.53 2.41 7.68-69.67-6.43-69.67-6.43l5.85-52.18-27.64 21.1-.41.51c5.32 6.93 10.18 14.13 11.69 21.5-2.74 4.62-8.32 6.36-15.73 6.25l-23.38-26.19z" class="F"/><g class="B"><path d="M395.15 310.69a1.68 1.68 0 0 1 0-.49c0-.38.05-.85.08-1.4l.36-5.15 1.34-17 1.29-17 .34-5.15.07-1.4a1.65 1.65 0 0 1 .07-.48 2.25 2.25 0 0 1 0 .49v1.4l-.17 5.16c-.21 4.36-.62 10.37-1.15 17l-1.48 17-.53 5.13-.17 1.4a1.85 1.85 0 0 1-.05.49zm-59.73-35.63c-.09-.05.79-1.3 1.69-3.55a20.69 20.69 0 0 0-1.29-18.16c-1.2-2.1-2.25-3.2-2.17-3.27a4.3 4.3 0 0 1 .76.75 16.48 16.48 0 0 1 1.73 2.34 19.82 19.82 0 0 1 1.31 18.49 17.62 17.62 0 0 1-1.38 2.55 4.07 4.07 0 0 1-.65.85zm-48.5 16.21a2.23 2.23 0 0 1 .79-.25 9.62 9.62 0 0 1 2.24-.17 14.07 14.07 0 0 1 7 2.41 27.33 27.33 0 0 1 5.46 4.95 15.08 15.08 0 0 1 1.89 2.39 20 20 0 0 1-2.16-2.14 32.86 32.86 0 0 0-5.47-4.77 14.93 14.93 0 0 0-6.7-2.47 26.51 26.51 0 0 0-3.05.05z"/><path d="M294.11 285.94a10 10 0 0 1 2.23 1.61 26.12 26.12 0 0 1 7.44 10.81 9.73 9.73 0 0 1 .7 2.65 26.08 26.08 0 0 1-1-2.51 31.31 31.31 0 0 0-7.35-10.68 25.51 25.51 0 0 1-2.02-1.88zM426 292.81s-.24-.2-.6-.61a14.05 14.05 0 0 1-1.37-1.88 19.24 19.24 0 0 1-1.56-3.09 22.79 22.79 0 0 1-1.15-4.08 22.52 22.52 0 0 1-.29-4.23 19.75 19.75 0 0 1 .43-3.44 15 15 0 0 1 .66-2.23c.2-.51.32-.79.36-.77s-.33 1.17-.66 3.07a22.89 22.89 0 0 0 0 7.51 22.47 22.47 0 0 0 2.52 7.07l1.66 2.68z"/></g><g class="E"><path d="M429.5,231.38l5.35-2.16-.53,3.83-2.26,1.75,1.77,1.82-.92,6.67-4.06-5.13a3.46,3.46,0,0,1-.55-3.28Z"/><path d="M450.93 243.33l-6.51 12.96-12.22-2.69v-15.45l18.1-3.1.63 8.28z"/></g><path d="M432.89,230.67l1.29-9.34a1.43,1.43,0,0,1,1-1.17l14.65-4.91a1.44,1.44,0,0,1,1.88,1.63l-6,32.25a1.45,1.45,0,0,1-1.13,1.16l-13,2.71a1.45,1.45,0,0,1-1.73-1.63Z" class="B"/><path d="M443.17 225.7a1.07 1.07 0 1 1-.32-1.48 1.08 1.08 0 0 1 .32 1.48z" fill="#ebebeb"/><g class="E"><path d="M451.07,220.17s2.19,0,2,3.1a24.25,24.25,0,0,1-2,8.19,2.61,2.61,0,0,1,0,2.7s1.62-.12,1.53,2.71a3,3,0,0,1-.52,4.32s1.46,1.89-.9,3.82a6.7,6.7,0,0,1-5.56,1Z"/><path d="M450 231.6l-5.25 3.54c-.51.41-1.08.62-1.3 1.24a1.39 1.39 0 0 0 .53 1.71 2 2 0 0 0 1.67-.2 29.36 29.36 0 0 0 5.38-3.63"/><path d="M450.3 235.05l-5.25 3.54c-.51.41-1.08.62-1.31 1.24a1.4 1.4 0 0 0 .54 1.71 2 2 0 0 0 1.66-.2 29 29 0 0 0 5.38-3.63"/><path d="M450.31 238.7l-5.25 3.54c-.51.41-1.08.62-1.3 1.24a1.38 1.38 0 0 0 .53 1.71A2 2 0 0 0 446 245a29.43 29.43 0 0 0 5.39-3.63"/></g><path d="M450.92 234.36c-.05-.07-1.25.86-2.78 1.9l-2.8 1.88a17.66 17.66 0 0 0 5.58-3.78zm1.3 2.7c-.05-.07-1.43 1-3.16 2.17l-3.14 2.22a16.74 16.74 0 0 0 3.32-2 17.16 17.16 0 0 0 2.98-2.39zm-.04 4.04a20.57 20.57 0 0 0-3.06 1.77 19.52 19.52 0 0 0-2.9 2 20.36 20.36 0 0 0 3.07-1.77 19.08 19.08 0 0 0 2.89-2zm-.73-10.42c-.06-.07-1.56 1.07-3.51 2.33l-3.55 2.26a4.48 4.48 0 0 0 1.14-.49 29.87 29.87 0 0 0 2.58-1.51 29.51 29.51 0 0 0 2.43-1.75 4.51 4.51 0 0 0 .91-.84z" class="H"/><path d="M327.21,445.18l-1.52,19.65s-25.26,5.71-26.12,10.12l46.52,6.2,4.5-34.73Z" class="F"/><g opacity=".6" class="D"><path d="M340.34,464.73a1.91,1.91,0,0,1,1,2.34,1.84,1.84,0,0,1-2.31,1,2,2,0,0,1-1.07-2.49,1.91,1.91,0,0,1,2.53-.81"/></g><g opacity=".6" class="D"><path d="M346.09,481.15l.37-3.79-44.74-4.53s-2.19.63-2.15,2.12Z"/></g><g class="B"><path d="M325 464.49c0 .23 1.1.48 2.12 1.36s1.49 1.92 1.71 1.85.06-1.42-1.19-2.46-2.7-.97-2.64-.75zm-5.18 1.37c-.09.21.85.73 1.49 1.79s.73 2.11 1 2.13.54-1.24-.28-2.55-2.18-1.59-2.21-1.37zm-3.55 5.47c.2.07.66-1 .25-2.34s-1.42-2-1.54-1.78.45.93.77 2 .25 2.07.52 2.12zm9.83-12.27c.07.22 1.16.05 2.43.31s2.22.79 2.36.61-.71-1.11-2.21-1.4-2.68.29-2.58.48zm.56-4.85a4.31 4.31 0 0 0 2.34.3 10.73 10.73 0 0 0 2.53-.42 13.36 13.36 0 0 0 1.44-.53 2.94 2.94 0 0 0 .77-.46 1 1 0 0 0 .27-1.19 1.24 1.24 0 0 0-.93-.65 2.94 2.94 0 0 0-.89 0 8.78 8.78 0 0 0-1.51.3 8.1 8.1 0 0 0-2.34 1.13c-1.21.85-1.69 1.65-1.62 1.71s.71-.56 1.92-1.23a9.49 9.49 0 0 1 2.23-.9 8.7 8.7 0 0 1 1.4-.23c.51-.07.93 0 1 .22s0 .13-.08.26a2.87 2.87 0 0 1-.57.33 14.29 14.29 0 0 1-1.33.54 13.53 13.53 0 0 1-2.37.56 16.69 16.69 0 0 0-2.26.26z"/><path d="M326.92 454.58a3.85 3.85 0 0 0 .91-2.17 7.43 7.43 0 0 0 0-2.59 8 8 0 0 0-.4-1.5 1.94 1.94 0 0 0-1.33-1.37 1.09 1.09 0 0 0-1.06.52 3 3 0 0 0-.35.82 5.11 5.11 0 0 0-.21 1.57 5.4 5.4 0 0 0 .67 2.54c.75 1.33 1.66 1.72 1.69 1.65a18.84 18.84 0 0 1-1.18-1.9 5.31 5.31 0 0 1-.45-2.29 4.94 4.94 0 0 1 .22-1.34c.14-.48.38-.86.56-.78s.57.45.71.87a7.08 7.08 0 0 1 .41 1.34 8.32 8.32 0 0 1 .14 2.38c-.1 1.38-.45 2.2-.33 2.25z"/></g><path d="M350.59 446.42l2.24-15.25-24.88-1.21-.74 15.22 23.38 1.24z" class="E"/><path d="M396.53,394.53l7.89,18.06s25.73-2.89,28,1l-41.91,21.13-15.66-31.34Z" class="F"/><g opacity=".6" class="D"><path d="M390.55,417.31a1.92,1.92,0,0,0-.2,2.55,1.85,1.85,0,0,0,2.52.22,2,2,0,0,0,.2-2.7,1.9,1.9,0,0,0-2.65.06"/></g><g opacity=".6" class="D"><path d="M390.51,434.71l-1.6-3.46,40.78-19s2.27-.13,2.73,1.29Z"/></g><g class="B"><path d="M405 412c.1.2-.88.81-1.55 2s-.78 2.29-1 2.31-.52-1.32.32-2.72 2.17-1.76 2.23-1.59zm5.3-.36c.15.17-.56 1-.82 2.18s0 2.24-.21 2.33-.92-1-.57-2.5 1.5-2.21 1.6-2.01zm5.15 4c-.16.14-1-.74-1-2.13s.69-2.31.86-2.18-.11 1-.06 2.16.4 2.03.2 2.15zm-13.32-8.36c0 .23-1.07.42-2.19 1.08s-1.83 1.49-2 1.36.31-1.28 1.63-2.05 2.58-.6 2.56-.39zm-2.13-4.39a4.44 4.44 0 0 1-2.1 1 10.36 10.36 0 0 1-2.54.44 11.38 11.38 0 0 1-1.53 0 2.65 2.65 0 0 1-.88-.17 1 1 0 0 1-.64-1 1.25 1.25 0 0 1 .66-.92 2.9 2.9 0 0 1 .84-.29 8.5 8.5 0 0 1 1.53-.21 8.34 8.34 0 0 1 2.58.29c1.42.42 2.14 1 2.09 1.09s-.85-.29-2.22-.54a9.62 9.62 0 0 0-2.4-.11 8.8 8.8 0 0 0-1.39.24c-.51.11-.89.29-.9.55 0 .1 0 .13.16.21a2.56 2.56 0 0 0 .65.13 14.1 14.1 0 0 0 1.43.07 12.94 12.94 0 0 0 2.42-.24 15.09 15.09 0 0 1 2.24-.54z"/><path d="M399.89 403.31c-.05.07-.83-.46-1.57-1.74a7.56 7.56 0 0 1-.87-2.45 7 7 0 0 1-.11-1.54 1.93 1.93 0 0 1 .8-1.74 1.1 1.1 0 0 1 1.17.15 2.84 2.84 0 0 1 .61.66 5.43 5.43 0 0 1 .91 4c-.27 1.5-1 2.18-1.06 2.12a18.77 18.77 0 0 0 .5-2.19 5.41 5.41 0 0 0-.33-2.3 5.2 5.2 0 0 0-.65-1.2c-.29-.41-.64-.68-.78-.56a1.36 1.36 0 0 0-.39 1.06 8 8 0 0 0 .05 1.4 8.48 8.48 0 0 0 .65 2.3c.56 1.29 1.18 1.95 1.07 2.03z"/></g><path d="M374.85 403.38l-7.12-13.67 23.11-9.31 5.69 14.13-21.68 8.85z" class="E"/><g class="B"><path d="M325.18 370.85s-9.44-1.75-11.09-5.05 6.75-40 16.82-61.46c11-23.55 34-16.47 39.49-8.18 9.65 14.53 24.73 86.8 24.73 86.8l-26.71 10-27.35-65.5s-5.2-2.89-9.89.66-6 42.73-6 42.73z"/><path d="M358.21 432.61c-1-.33-35.27 0-35.27 0l2.06-63.56 2-43.3 25-6.18 29.8 7.85s19.64 7.31 20.62 19.17a128.06 128.06 0 0 1 0 21.42 74.52 74.52 0 0 1-32.3 5.61l-6.57-2.62z"/></g><path d="M381.75 327.42a2.41 2.41 0 0 1 .19.55l.44 1.59 1.51 5.87 4.68 19.46 4.68 19.46 1.44 5.89.37 1.61a2.05 2.05 0 0 1 .09.57 3.31 3.31 0 0 1-.19-.54l-.47-1.59-1.59-5.85c-1.32-4.95-3-11.82-4.84-19.43l-4.53-19.49-1.35-5.91-.34-1.62a2 2 0 0 1-.09-.57zM325 395.73a1.65 1.65 0 0 1 0-.39q0-.43 0-1.17v-4.5l.06-16.52.54-24.51c.21-4.61.39-9.45 1-14.46a19.11 19.11 0 0 1 2.2-7.38 7.14 7.14 0 0 1 2.89-2.77 6.26 6.26 0 0 1 4-.48 8.93 8.93 0 0 1 3.66 1.74 12.07 12.07 0 0 1 2.62 3 47.19 47.19 0 0 1 3.28 7l5.55 13.37 9.38 22.64 6.28 15.28 1.68 4.17.43 1.09a2.62 2.62 0 0 1 .13.37 1.51 1.51 0 0 1-.18-.35l-.47-1.07-1.78-4.13-6.47-15.26-9.48-22.6q-2.67-6.39-5.58-13.36a47.75 47.75 0 0 0-3.24-6.87 11.52 11.52 0 0 0-2.5-2.87 8.17 8.17 0 0 0-3.44-1.63 5.67 5.67 0 0 0-3.7.42 6.72 6.72 0 0 0-2.68 2.58 18.77 18.77 0 0 0-2.14 7.19c-.62 4.95-.8 9.8-1 14.4l-.65 24.49-.23 16.52-.06 4.5v1.17a1.93 1.93 0 0 1-.1.39z" class="F"/><path d="M390.91,184.32c-3.67-1.41-7.82,1.66-11.61.63-2.3-.63-3.93-2.63-5.92-3.94a12,12,0,0,0-10.65-1.18c-3.29,1.39-5.46,3-6.14,6.46-2.77-1.87-7.85,1.42-9.75,4.81s-1.75,7-1.09,10.87a51.29,51.29,0,0,0,7.15,18.6c.32.5.84,1.07,1.39.85.38-.14.54-.59.63-1,.8-3.4.62-6.94.58-10.43s.06-7.08,1.4-10.3,4.14-6.06,7.6-6.48a11,11,0,0,1,7.27,2.11c2.15,1.43,4,3.25,6,4.84a14.29,14.29,0,0,0,6.91,3.27c2.56.3,5.4-.71,6.67-3s.27-5.65-2.21-6.36a5.07,5.07,0,0,0,1.74-9.8Z" class="B"/><path d="M351.08 203.42l.9 39.13c.16 6.66 6.7 12.28 13.34 11.8h0c6.2-.45 10.1-6.15 9.95-12.36l-.12-5.7s9.94-1.17 10.44-11c.23-4.77-.08-14.64-.46-23.57a18.44 18.44 0 0 0-17.73-17.6h-.95c-10.3.13-15.87 9-15.37 19.3z" class="E"/><path d="M375.18,236.15A23,23,0,0,1,362.43,232s2.78,7.23,12.67,6.71Z" class="H"/><path d="M382.1 209.08a1.42 1.42 0 0 1-1.42 1.38 1.36 1.36 0 0 1-1.4-1.33 1.42 1.42 0 0 1 1.41-1.38 1.36 1.36 0 0 1 1.41 1.33zm.72-2.64c-.18.18-1.22-.65-2.74-.7s-2.66.66-2.82.47.12-.41.61-.75a3.93 3.93 0 0 1 2.27-.6 3.74 3.74 0 0 1 2.17.79c.46.35.6.72.51.79zm-15.2 2.64a1.42 1.42 0 0 1-1.41 1.38 1.36 1.36 0 0 1-1.41-1.33 1.42 1.42 0 0 1 1.42-1.38 1.35 1.35 0 0 1 1.4 1.33zm.26-2.91c-.18.18-1.22-.65-2.74-.71s-2.66.67-2.81.48.11-.41.61-.75a4 4 0 0 1 2.26-.61 3.71 3.71 0 0 1 2.17.8c.46.37.63.71.51.79zm5.12 11.47a9.82 9.82 0 0 1 2.49-.36c.39 0 .76-.08.83-.35a2 2 0 0 0-.21-1.16l-1-3-2.29-7.82c.17-.06 1.48 3.35 2.91 7.62l1 3a2.24 2.24 0 0 1 .15 1.53 1 1 0 0 1-.66.54 2.78 2.78 0 0 1-.67.07 10.69 10.69 0 0 1-2.55-.07zm-4.53.88c.24 0 .19 1.64 1.55 2.87s3.13 1.1 3.14 1.33-.41.31-1.15.3a4.08 4.08 0 0 1-2.62-1 3.59 3.59 0 0 1-1.2-2.4c-.03-.71.16-1.11.28-1.1zm.03-18.29c-.17.41-1.68.16-3.46.31s-3.25.58-3.48.2c-.09-.18.17-.56.77-.94a6 6 0 0 1 5.28-.38c.64.28.96.58.89.81zm13.93 1.77c-.28.33-1.32-.06-2.57-.13s-2.33.15-2.57-.22c-.1-.18.08-.52.56-.83a3.73 3.73 0 0 1 4.14.28c.43.4.56.76.44.9z" class="B"/><path d="M351.61 210.76c-.16-.07-6.71-2.26-6.75 4.51s6.76 5.4 6.77 5.21-.02-9.72-.02-9.72z" class="E"/><path d="M349.58 217.9s-.12.09-.32.18a1.23 1.23 0 0 1-.88 0 2.9 2.9 0 0 1-1.33-2.62 3.84 3.84 0 0 1 .34-1.69 1.37 1.37 0 0 1 .89-.9.6.6 0 0 1 .69.33c.09.19 0 .32.08.33s.15-.11.1-.39a.77.77 0 0 0-.27-.42.88.88 0 0 0-.65-.18 1.64 1.64 0 0 0-1.23 1 3.87 3.87 0 0 0-.42 1.89 3 3 0 0 0 1.7 2.93 1.28 1.28 0 0 0 1.08-.18c.21-.11.25-.26.22-.28z" class="H"/><path d="M387.29,199.7a14.28,14.28,0,0,1-12.57-3.33c-2.32-2.13-4.07-5.13-7.05-6.17a8.07,8.07,0,0,0-6.17.61,15.54,15.54,0,0,0-4.81,4.11c1.72,5.09.23,10.65-1.26,15.81a2.74,2.74,0,0,1-.85,1.53c-.82.59-2,.06-2.67-.69a8.42,8.42,0,0,1-1.67-4.48,27.85,27.85,0,0,1,.48-11,19,19,0,0,1,5.55-9.36A18,18,0,0,1,369,182.5a22.08,22.08,0,0,1,12.6,5,13,13,0,0,1,4,4.94" class="B"/><path d="M393.65 186.81a1.29 1.29 0 0 1-.08.58 2.77 2.77 0 0 1-1 1.36 4.32 4.32 0 0 1-2.56.75 7 7 0 0 1-1.67-.17 3.53 3.53 0 0 1-1.7-.86 2.39 2.39 0 0 1-.77-1.94 2.11 2.11 0 0 1 1.5-1.67 2.63 2.63 0 0 1 1.22-.11 2.17 2.17 0 0 1 1.14.57 3.09 3.09 0 0 1 .92 2.4 3.57 3.57 0 0 1-1.16 2.44 5.45 5.45 0 0 1-2.5 1.29 8.85 8.85 0 0 1-5.75-.84 25.24 25.24 0 0 1-4.88-3.2 32.51 32.51 0 0 0-4.42-3.06 10.12 10.12 0 0 0-4.6-1.3 9.45 9.45 0 0 0-4.08.89 12 12 0 0 0-4.64 3.9 13.89 13.89 0 0 0-.91 1.41 5.63 5.63 0 0 1-.3.5s0-.05.05-.14.1-.23.19-.4a13 13 0 0 1 .87-1.44 11.8 11.8 0 0 1 4.64-4.05 9.71 9.71 0 0 1 4.18-.95 10.24 10.24 0 0 1 4.74 1.31 32.44 32.44 0 0 1 4.48 3.07 26 26 0 0 0 4.83 3.16 8.62 8.62 0 0 0 5.53.82 5 5 0 0 0 2.35-1.21 3.22 3.22 0 0 0 1.07-2.22 2.77 2.77 0 0 0-.81-2.17 2 2 0 0 0-2.07-.4 1.81 1.81 0 0 0-1.33 1.43 2.14 2.14 0 0 0 .68 1.74 3.41 3.41 0 0 0 1.58.83 7.18 7.18 0 0 0 1.62.18 4.22 4.22 0 0 0 2.48-.66 2.78 2.78 0 0 0 1-1.28 3.94 3.94 0 0 0 .16-.56zm-48.23 10.06a11.42 11.42 0 0 0 2 .61 5.89 5.89 0 0 0 2.28-.15 9.85 9.85 0 0 0 2.57-1.12 7.82 7.82 0 0 0 3.16-3.91 15.4 15.4 0 0 0 .53-2.08 1.71 1.71 0 0 1 0 .59 6.81 6.81 0 0 1-.32 1.56 7.67 7.67 0 0 1-3.21 4.12 9.2 9.2 0 0 1-2.68 1.14 5.73 5.73 0 0 1-2.38.09 5.24 5.24 0 0 1-1.52-.53 1.71 1.71 0 0 1-.43-.32zm.11 4.9c0-.06.8.14 2.07.12a9.58 9.58 0 0 0 4.72-1.35 9.44 9.44 0 0 0 3.36-3.57c.61-1.12.79-1.91.85-1.89a1.83 1.83 0 0 1-.1.56 7.52 7.52 0 0 1-.54 1.44 9 9 0 0 1-3.4 3.74 9.16 9.16 0 0 1-4.89 1.31 7.41 7.41 0 0 1-1.53-.19 1.76 1.76 0 0 1-.54-.17z" class="F"/><path d="M362.6 212.44a.19.19 0 0 1-.2-.16.17.17 0 0 1 .14-.2.16.16 0 0 1 .19.15.18.18 0 0 1-.13.21zm2.92-.55a.2.2 0 0 1-.2-.18.21.21 0 0 1 .14-.24.22.22 0 0 1 .06.42zm1.96.02c-.09 0-.18-.11-.19-.26s0-.28.14-.28.18.1.19.25-.05.28-.14.29zm-3.48 2.4c-.1 0-.17-.05-.17-.11s.08-.11.17-.1.17.05.17.11-.12.11-.17.1zm2.64-.52a.18.18 0 0 1-.18-.18.17.17 0 1 1 .34 0 .18.18 0 0 1-.16.18zm13.91-1.13a.19.19 0 0 1-.2-.16.2.2 0 0 1 .14-.22.18.18 0 0 1 .19.16.18.18 0 0 1-.13.22zm1.98-.11c-.09 0-.17-.08-.18-.2s.07-.22.16-.22.17.08.18.2-.06.22-.16.22zm-3.73.09a.15.15 0 1 1-.05-.29.16.16 0 0 1 .19.12.15.15 0 0 1-.14.17zm1.39 2.03a.17.17 0 0 1-.22-.11.17.17 0 1 1 .31-.13.18.18 0 0 1-.09.24zm1.7-.27a.16.16 0 0 1-.11-.19.15.15 0 0 1 .2-.08.16.16 0 0 1 .12.19.17.17 0 0 1-.21.08z" class="H"/><g class="B"><path d="M346.81 219.64a3.88 3.88 0 0 0-.24 1.52 2.24 2.24 0 0 0 .68 1.45 2 2 0 0 0 1.8.54 1.87 1.87 0 0 0 1.37-1.26 2.44 2.44 0 0 0-.22-1.58 3.16 3.16 0 0 0-.95-1.22c0-.06.68.18 1.16 1.11a2.56 2.56 0 0 1 .31 1.77 2.16 2.16 0 0 1-1.59 1.51 2.27 2.27 0 0 1-2.09-.65 2.38 2.38 0 0 1-.71-1.65 2.7 2.7 0 0 1 .23-1.18c.13-.25.23-.37.25-.36z"/><path d="M346.87 218.49s.25.1.36.48a1 1 0 0 1-.72 1.22.93.93 0 0 1-.83-.23.74.74 0 0 1-.22-.67c.07-.41.36-.51.36-.47s-.13.19-.13.49a.53.53 0 0 0 .2.42.66.66 0 0 0 .55.14.77.77 0 0 0 .46-.36.92.92 0 0 0 .1-.5c0-.31-.17-.48-.13-.52z"/></g><path d="M319.41 331c-1.8-3.78-7.73-12.35-7.73-12.35-5.69-.29-7.6 1.46-9.93 4.76l.6 11.42c0 .27 2.06 11.17 2.06 11.17a2.58 2.58 0 0 0 1.86 1.73c1.52.4-.37-9.16-.37-9.16l2.39 6.48-.05.47s.08 5 .75 6.06a1.9 1.9 0 0 0 1.92 1.06c.32 0 .39-3.87.6-7.37l-.93-5.64 2.26 5.38s-.33 5.85.3 7.19 2.64 1.36 2.64.62.09-3.32.19-5.66a45.29 45.29 0 0 0-.63-6.73l1.73 5.49.68 5.06c.4.26 1.7.89 2.06.07a37.92 37.92 0 0 0 .46-4.92c-.07-1.46-.66-5.57-.66-5.57a5.8 5.8 0 0 0 3.05 2.22c1.86.42 2.13-.36 2.13-.36z" class="E"/><path d="M318.46 335.73a23.36 23.36 0 0 1 1.42 5.34 23.73 23.73 0 0 1 .63 5.48 39.15 39.15 0 0 1-1.15-5.39 40.06 40.06 0 0 1-.9-5.43z" class="H"/><path d="M316 322.58a3.5 3.5 0 0 1-.6-.71 11.8 11.8 0 0 0-1.66-1.82 5.24 5.24 0 0 0-3.26-1.31 7.75 7.75 0 0 0-4.21 1.08 14.09 14.09 0 0 0-5.7 5.64 9.06 9.06 0 0 0-.75 3.27 2.09 2.09 0 0 1-.12-.92 6.54 6.54 0 0 1 .54-2.49 13.61 13.61 0 0 1 5.77-6 8.06 8.06 0 0 1 4.5-1.1 5.53 5.53 0 0 1 3.48 1.51 10 10 0 0 1 1.58 2 2.86 2.86 0 0 1 .43.85z" class="B"/><defs ><path id="B" d="M158.34 157.72a1.24 1.24 0 1 1 1.23 1.24 1.19 1.19 0 0 1-1.23-1.24zm2.13 0a.9.9 0 1 0-.9.95.88.88 0 0 0 .9-.95z"/><path id="C" d="M192.51 188.32c-.07 0-.12-.2-.32-.29a.34.34 0 1 0 0 .58c.2-.09.25-.29.32-.29s.2.26-.1.58a.71.71 0 0 1-.71.16.78.78 0 0 1 0-1.48.71.71 0 0 1 .71.16c.3.32.16.6.1.58z"/><path id="D" d="M197.91 274.21a1.67 1.67 0 1 1 1.67 1.57 1.56 1.56 0 0 1-1.67-1.57zm2.44 0a.78.78 0 1 0-.77.84.77.77 0 0 0 .77-.84z"/><path id="E" d="M232.72 123.1h-2.5a1.11 1.11 0 0 0 1.18 1 1.17 1.17 0 0 0 .91-.39l.23.26a1.58 1.58 0 0 1-2.72-1 1.46 1.46 0 1 1 2.91 0l-.01.13zm-2.5-.31h2.12a1.06 1.06 0 0 0-2.12 0z"/><path id="F" d="M72.85,406.31c-.92-3.2-2.89-6.28-5.94-7.6s-6.86-.59-10.11.59-6.44,2.76-9.89,3-7.35-1.43-8.38-4.73c-1-3.1.9-6.41,3.24-8.66a20.46,20.46,0,0,1,33.51,8"/><path id="G" d="M153.68,365.16c10.37,6.26,10.34,12,8.61,17.34s-8.1,9.11-13.38,7.1c-3-1.14-5.14-3.74-7-6.34s-3.58-5.4-6.17-7.27-6.33-2.59-8.93-.73"/></defs></svg>