<svg xmlns="http://www.w3.org/2000/svg" xmlns:xlink="http://www.w3.org/1999/xlink" width="750" height="500" xmlns:v="https://vecta.io/nano"><style><![CDATA[.B{stroke-linejoin:round}.C{stroke-width:1.5}.D{stroke:#011635}.E{fill:none}.F{stroke-linecap:round}.G{fill:#8791ff}.H{fill:#fff}.I{fill:#f9cad2}.J{fill:#011635}.K{opacity:.45}.L{stroke:#8791ff}.M{fill:#f99aaa}.N{fill:#00cfbe}.O{font-family:Helvetica}]]></style><path d="M0 0h750v500H0z" class="H"/><g class="D E B"><g class="C"><path d="M330.773 92.288l-14.122-2.008m343.435 370.857l11.184 8.853M443.086 17.978l6.2 12.846M36.793 259.297l11.184 8.854m631.875 17.308l13.437-4.786M505.723 462.399l3.225 13.894m-393.297-39.98l-6.288 12.803m587.07-351.898l-6.289 12.803" class="F"/><use xlink:href="#B"/><use xlink:href="#B" x="636.088" y="-27.4"/><use xlink:href="#B" x="42.483" y="-151.944"/><use xlink:href="#B" x="-51.593" y="198.944"/><use xlink:href="#B" x="541.78" y="-158.274"/><use xlink:href="#B" x="275.107" y="-148.779"/><use xlink:href="#B" x="75.912" y="276.292"/><use xlink:href="#B" x="602.455" y="175.27"/></g><g class="F"><path d="M709.481 430.146h0M47.977 168.819h0M554.633 37.945h0M28.241 465.564h0M255.65 34.78h0m462.548 3.165h0M384.264 480.626h0" stroke-width="3"/><path d="M60.931 35.176l-7.912 11.868" class="C"/></g></g><path d="M165.138 441.65c123.102 59.617 328.592 15.761 405.026-44.798 99.332-78.701 123.291-263.394 20.309-325.765-58.638-35.514-153.429-27.23-229.536 75.972-70.659 95.814-122.015 49.392-201.725 77.475-100.875 35.54-99.277 166.167 5.926 217.116z" class="G"/><path d="M219.181 139.626H566.82c6.628 0 12 5.373 12 12v230.747a12 12 0 0 1-12 12H219.181c-6.627 0-12-5.372-12-12V151.626c0-6.627 5.372-12 12-12z" class="H"/><path d="M520.535 131.992c-1.281-12.521 4.712-29.833 13.506-28.275s-2.183 15.151 5.113 29.216l-18.619-.941z" class="I"/><path d="M522.962 139.626s14.214-14.055 21.599-39.11 40.088-25.846 46.154 5.802-22.418 76.084-22.418 76.084l-45.335-42.776z" class="N"/><path d="M570.209 107.927s1.842 30.101-24.991 52.7m65.936-45.134s4.747 16.449-7.516 28.824m-383.275 234.9s3.099 14.838-4.813 27.893m-10.354-27.893s-.441 11.85-6.516 22.047" class="B C D E F"/><path d="M352.994 389.04c19.215 24.557 38.731 23.785 62.204 23.697s50.118 6.472 61.916 21.587 47.458 19.288 45.848-17.018-54.164-68.826-96.525-67.401-70.844-4.986-70.844-4.986l-2.599 44.121z" class="N"/><path d="M354.341 365.343c65.857 33.986 111.92 11.746 140.125 47.393m44.688 4.126s10.578 7.259 10.234 25.852" class="B C D E F"/><path d="M223.445 135.018c-8.291-17.095-6.247-43.996 5.522-43.732s.165 28.914 15.725 41.226l-21.247 2.506z" class="I"/><path d="M181.923 168.819s-46.286-84.127-1.978-97.182c37.25-10.975 29.408 62.177 69.693 78.363l-67.715 18.819z" class="N"/><path d="M183.901 93.791s5.312 37.452 29.557 66.264M157 263.84s22.436 6.314 41.68 2.594m-51.174-121.489s13.055 5.367 19.385 18.843m100.419-57.733s-5.998 10.462 0 28.571" class="B C D E F"/><path d="M205.983 128.626h347.639c6.628 0 12 5.373 12 12v230.747c0 6.627-5.372 12-12 12H205.983c-6.627 0-12-5.373-12-12V140.626c0-6.627 5.372-12 12-12z" class="B C D J"/><path d="M198.181 128.626H545.82c6.627 0 12 5.373 12 12v230.747c0 6.627-5.373 12-12 12H198.181c-6.627 0-12-5.373-12-12V140.626c0-6.627 5.372-12 12-12z" class="B C D H"/><path fill="#f4dc90" d="M198.181 383.374H545.82a12 12 0 0 0 12-12v-12.231H186.181v12.231c0 6.627 5.372 12 12 12z" class="B C D"/><path fill="#d0d0d6" d="M377.915 371.258c0-3.267-2.648-5.915-5.915-5.915s-5.915 2.648-5.915 5.915 2.648 5.915 5.915 5.915 5.915-2.648 5.915-5.915z" class="B C D"/><path fill="#f4dc90" d="M545.819 128.626H198.181c-6.627 0-12 5.373-12 12H557.82c-.001-6.627-5.373-12-12.001-12z" class="B C D"/><path d="M210.945 160.626h134.374v91.275H210.945z" class="I"/><path d="M210.945 248.632h134.374v3.269H210.945z" class="M"/><g class="B C D E"><path d="M217.28 166.962h6.165v6.165h-6.165z"/><path d="M235.775 173.126h-6.165m4.153 52.911l18.086-35.028 17.671 26.631 20.856-21.016 13.393 15.688L325 222.476" class="F"/></g><g class="H B C D"><use xlink:href="#C"/><use xlink:href="#C" x="56.613" y="-29.413"/><path d="M271.73 217.64a2.21 2.21 0 1 1-4.42 0 2.21 2.21 0 1 1 4.42 0z"/><use xlink:href="#C" x="70.007" y="-13.725"/><path d="M254.059 191.009a2.21 2.21 0 0 0-4.42 0 2.21 2.21 0 0 0 4.42 0z"/><use xlink:href="#C" x="91.238" y="-3.561"/></g><path d="M233.763 237.165H325" class="B C D E F"/><path d="M303.552 166.962h35.028v6.165h-35.028z" class="H"/><path d="M320.712 176.061h17.868v6.165h-17.868z" class="G"/><path d="M210.945 260.099h134.374v79.044H210.945z" class="I"/><path d="M210.945 335.873h134.374v3.269H210.945z" class="M"/><g class="B C D E"><path d="M217.28 266.434h6.165v6.165h-6.165z"/><path d="M235.775 272.599h-6.165" class="F"/></g><path d="M223.445 280.855H338.58v4.421H223.445z" class="G"/><path d="M223.445 291.322H338.58v4.421H223.445zm0 10.467h71.348v4.421h-71.348z" class="H"/><path d="M223.445 312.256h51.618v4.421h-51.618zm57.14 0h28.998v4.421h-28.998z" class="G"/><path d="M223.445 322.723h31.401v4.421h-31.401z" class="H"/><path d="M359.517 160.626h173.538v22.599H359.517z" class="I"/><path d="M359.517 183.225h173.538v3.269H359.517z" class="M"/><g class="C D E B"><path d="M365.852 166.962h6.165m6.164 0h6.165" class="F"/><path d="M365.852 164.572h6.165v2.39h-6.165z"/></g><path d="M372.017 172.367h61.643v4.421h-61.643z" class="G"/><path d="M437.423 172.367h25.874v4.421h-25.874z" class="H"/><path d="M359.517 191.079h173.538v22.599H359.517z" class="I"/><path d="M359.517 213.678h173.538v3.269H359.517z" class="M"/><g class="C D E B"><path d="M365.852 197.414h6.165m6.164 0h6.165" class="F"/><path d="M365.852 195.024h6.165v2.39h-6.165z"/></g><path d="M372.017 202.819h28.181v4.421h-28.181zm62.642 0h82.286v4.421h-82.286z" class="G"/><path d="M404.885 202.819h25.874v4.421h-25.874z" class="H"/><path d="M359.517 221.531h173.538v22.599H359.517z" class="I"/><path d="M359.517 244.13h173.538v3.269H359.517z" class="M"/><g class="C D E B"><path d="M365.852 227.867h6.165m6.164 0h6.165" class="F"/><path d="M365.852 225.476h6.165v2.39h-6.165z"/></g><path d="M372.017 233.272h61.643v4.421h-61.643z" class="G"/><path d="M359.517 251.984h173.538v22.599H359.517z" class="I"/><path d="M359.517 274.582h173.538v3.269H359.517z" class="M"/><g class="C D E B"><path d="M365.852 258.319h6.165m6.164 0h6.165" class="F"/><path d="M365.852 255.929h6.165v2.39h-6.165z"/></g><path d="M372.017 263.724h43.181v4.421h-43.181z" class="G"/><path d="M420.198 263.724h72.692v4.421h-72.692zm78.154 0h11.967v4.421h-11.967z" class="H"/><path d="M359.517 287.511h173.538v51.632H359.517z" class="I"/><path d="M359.517 335.873h173.538v3.269H359.517z" class="M"/><g class="B C D E"><path d="M365.852 293.846h6.165v6.165h-6.165z"/><path d="M384.346 300.011h-6.165" class="F"/></g><path d="M392.423 300.865h24.923v24.923h-24.923z" class="G"/><g class="B C D E F"><path d="M398.712 319.5l12.346-12.346"/><path d="M411.058 319.5l-12.346-12.346"/></g><path d="M426.437 300.865h24.923v24.923h-24.923z" class="G"/><path d="M432.726 319.5l12.346-12.346" class="B C D E F"/><path d="M460.451 300.865h24.923v24.923h-24.923z" class="G"/><path d="M467.892 307.735h11.184v11.184h-11.184z" class="B C D E"/><path d="M494.465 300.865h24.923v24.923h-24.923z" class="G"/><path d="M501.335 307.735h0m11.184 0h0m-11.184 11.184h0m11.184 0h0" class="B C D E F"/><g class="K"><use xlink:href="#D" class="G"/><use xlink:href="#D" class="B C E L"/></g><use xlink:href="#E" class="H"/><g class="B C D E"><use xlink:href="#E"/><g class="F"><path d="M486.447 278.154l5.684-5.683"/><path d="M486.447 272.471l5.684 5.683"/></g></g><path d="M508.055 317.098c-6.667 0-12.072 5.405-12.072 12.072v2.922h24.145v-2.922c-.001-6.667-5.406-12.072-12.073-12.072zm6.851-9.258c0-3.784-3.067-6.852-6.852-6.852s-6.852 3.068-6.852 6.852 3.068 6.852 6.852 6.852 6.852-3.068 6.852-6.852z" class="G"/><path d="M492.131 289.727h31.848v42.366h-31.848z" class="B C D E"/><path d="M566.902 322.994h-35.028v-6.165h35.028zm-17.159 9.098h-17.868v-6.165h17.868z" class="G"/><path d="M620.907 328.332a3.76 3.76 0 1 0-7.522 0 3.76 3.76 0 1 0 7.522 0z" class="B C D E"/><path d="M492.131 341.958h128.776v25.319H492.131z" class="I"/><path d="M498.951 347.695h115.135v4.421H498.951z" class="G"/><path d="M498.951 358.162h43.522v4.421h-43.522z" class="H"/><path d="M492.131 377.143h128.776v25.319H492.131z" class="I"/><path d="M498.951 382.879h52.682v4.421h-52.682z" class="G"/><path d="M555.528 382.879h58.558v4.421h-58.558zm-32.566 10.467h42.061v4.421h-42.061zm-24.011 0h20.115v4.421h-20.115z" class="H"/><g class="B C D"><path d="M482.859 347.761c-15.3 0-14.48-12.841-31.419-12.841h0c-4.558 0-8.253-3.695-8.253-8.254v-3.289" class="E F"/><path d="M488.543 347.761h0c0-1.569-1.272-2.842-2.842-2.842h0a2.84 2.84 0 0 0-2.842 2.842h0a2.84 2.84 0 0 0 2.842 2.842h0c1.569 0 2.842-1.272 2.842-2.842zm-42.515-27.226h0c0-1.569-1.272-2.842-2.842-2.842h0a2.84 2.84 0 0 0-2.842 2.842h0c0 1.569 1.272 2.842 2.842 2.842h0a2.84 2.84 0 0 0 2.842-2.842z" class="J"/></g><g class="K"><use xlink:href="#F" class="G"/><use xlink:href="#F" class="B C E L"/></g><use xlink:href="#F" x="-7" y="-7" class="H"/><g class="B C D E"><use xlink:href="#F" x="-7" y="-7"/><g class="F"><path d="M555.517 149.942l5.683-5.684"/><path d="M555.517 144.258l5.683 5.684m-38.942 16.778c16.939 0 16.12 12.841 31.419 12.841"/></g></g><g class="J B C D"><use xlink:href="#G"/><path d="M522.258 166.72h0a2.84 2.84 0 0 0-2.842-2.842h0a2.84 2.84 0 0 0-2.842 2.842h0a2.84 2.84 0 0 0 2.842 2.842h0c1.569 0 2.842-1.272 2.842-2.842zm37.102 30.453h0a2.84 2.84 0 0 0-2.842-2.842h0c-1.569 0-2.842 1.272-2.842 2.842h0c0 1.569 1.272 2.842 2.842 2.842h0c1.57 0 2.842-1.273 2.842-2.842zm-37.102 0h0a2.84 2.84 0 0 0-2.842-2.842h0a2.84 2.84 0 0 0-2.842 2.842h0c0 1.569 1.272 2.842 2.842 2.842h0c1.569 0 2.842-1.273 2.842-2.842z"/></g><path d="M522.258 197.173h31.419m-31.419 30.452c16.939 0 16.12-12.841 31.419-12.841" class="E F B C D"/><path d="M559.36 214.784h0a2.84 2.84 0 0 1-2.842 2.842h0c-1.569 0-2.842-1.272-2.842-2.842h0a2.84 2.84 0 0 1 2.842-2.842h0c1.57.001 2.842 1.273 2.842 2.842zm-37.102 12.841h0c0 1.569-1.272 2.842-2.842 2.842h0a2.84 2.84 0 0 1-2.842-2.842h0a2.84 2.84 0 0 1 2.842-2.842h0c1.569 0 2.842 1.273 2.842 2.842z" class="J B C D"/><g class="K"><use xlink:href="#H" class="G"/><use xlink:href="#H" class="B C E L"/></g><use xlink:href="#I" class="H"/><g class="B C D E"><use xlink:href="#I"/><g class="F"><path d="M243.376 382.059l5.684-5.684"/><path d="M243.376 376.375l5.684 5.684m48.317-10.57c0-15.3-12.841-14.48-12.841-31.419h0c0-4.558-3.695-8.253-8.253-8.253h-3.289"/></g></g><path d="M297.377 377.173h0a2.84 2.84 0 0 1-2.842-2.842h0a2.84 2.84 0 0 1 2.842-2.842h0c1.569 0 2.842 1.272 2.842 2.842h0a2.84 2.84 0 0 1-2.842 2.842zm-27.225-42.514h0c-1.569 0-2.842-1.272-2.842-2.842h0a2.84 2.84 0 0 1 2.842-2.842h0a2.84 2.84 0 0 1 2.842 2.842h0c0 1.569-1.273 2.842-2.842 2.842z" class="J B C D"/><g class="K"><use xlink:href="#J" class="G"/><use xlink:href="#J" class="B C E L"/></g><use xlink:href="#J" x="-7" y="-7" class="H"/><g class="B C D E"><use xlink:href="#J" x="-7" y="-7"/><g class="F"><path d="M389.956 415.579l5.684-5.684"/><path d="M389.956 409.895l5.684 5.684"/></g></g><path d="M407.498 434.324c0-1.471-1.192-2.663-2.664-2.663s-2.664 1.192-2.664 2.663 1.193 2.664 2.664 2.664 2.664-1.193 2.664-2.664zm27.841-19.681c0-1.471-1.193-2.664-2.664-2.664s-2.664 1.193-2.664 2.664 1.193 2.664 2.664 2.664 2.664-1.193 2.664-2.664z" class="J B C D"/><path d="M404.834 434.324s23.19 6.132 27.841-19.681m-79.681-.18c16.939 0 16.119 12.841 31.419 12.841" class="E F B C D"/><g class="J B C D"><path d="M390.097 427.304h0c0-1.569-1.272-2.842-2.842-2.842h0c-1.569 0-2.842 1.272-2.842 2.842h0c0 1.569 1.272 2.842 2.842 2.842h0a2.84 2.84 0 0 0 2.842-2.842z"/><use xlink:href="#G" x="-206.366" y="234.902"/></g><g class="K"><use xlink:href="#K" class="G"/><use xlink:href="#K" class="B C E L"/></g><use xlink:href="#K" x="-7" y="-7" class="H"/><g class="B C D E"><use xlink:href="#K" x="-7" y="-7"/><g class="F"><path d="M139.206 291.17l5.683-5.684"/><path d="M139.206 285.486l5.683 5.684"/></g></g><path d="M187.993 318.711c-.009-.2-.098-.388-.247-.522s-.343-.208-.545-.191c-14.407.852-21.796-12.024-21.87-12.154-.266-.473-1.043-.473-1.309 0-.073.13-7.475 12.999-21.87 12.154a.74.74 0 0 0-.545.191.75.75 0 0 0-.247.522c-.016.344-1.327 34.425 23.201 38.242a.74.74 0 0 0 .115.009.73.73 0 0 0 .115-.009c24.528-3.817 23.218-37.898 23.202-38.242z" class="G"/><g class="B C D"><path d="M223.284 292.569c-16.939 0-16.119 12.841-31.419 12.841" class="E F"/><path d="M186.181 305.409h0c0-1.569 1.272-2.842 2.842-2.842h0c1.569 0 2.842 1.272 2.842 2.842h0a2.84 2.84 0 0 1-2.842 2.842h0a2.84 2.84 0 0 1-2.842-2.842zm37.103-12.84h0a2.84 2.84 0 0 1 2.842-2.842h0a2.84 2.84 0 0 1 2.842 2.842h0c0 1.569-1.272 2.842-2.842 2.842h0c-1.57-.001-2.842-1.273-2.842-2.842z" class="J"/></g><g class="K"><use xlink:href="#L" class="G"/><use xlink:href="#L" class="B C E L"/></g><use xlink:href="#L" x="-7" y="-7" class="H"/><g class="B C D E"><use xlink:href="#L" x="-7" y="-7"/><g class="F"><path d="M139.206 169.472l5.683-5.684"/><path d="M139.206 163.788l5.683 5.684"/></g></g><text xml:space="preserve" x="135" y="212" font-size="36" class="J O">&lt;/&gt;</text><g class="B C D"><path d="M223.284 191.28c-16.939 0-16.119-12.841-31.419-12.841" class="E F"/><path d="M186.181 178.439h0c0 1.569 1.272 2.842 2.842 2.842h0c1.569 0 2.842-1.272 2.842-2.842h0a2.84 2.84 0 0 0-2.842-2.842h0c-1.57.001-2.842 1.273-2.842 2.842zm37.103 12.841h0c0 1.569 1.272 2.842 2.842 2.842h0a2.84 2.84 0 0 0 2.842-2.842h0a2.84 2.84 0 0 0-2.842-2.842h0c-1.57 0-2.842 1.273-2.842 2.842z" class="J"/></g><g class="K"><use xlink:href="#J" x="-141.427" y="-277.383" class="G"/><use xlink:href="#J" x="-141.427" y="-277.383" class="B C E L"/></g><use xlink:href="#J" x="-148.427" y="-284.383" class="H"/><g class="B C D E"><use xlink:href="#J" x="-148.427" y="-284.383"/><g class="F"><path d="M248.53 138.196l5.684-5.684"/><path d="M248.53 132.512l5.684 5.684"/></g></g><text xml:space="preserve" x="251" y="154" font-size="21" class="J O">JAVA</text><g class="K"><use xlink:href="#M" class="G"/><use xlink:href="#M" class="B C E L"/></g><use xlink:href="#N" class="H"/><use xlink:href="#N" class="B C D E"/><use xlink:href="#O" class="I"/><path d="M460.765 143.721h-86.787a3.38 3.38 0 0 0 0 6.76h86.787v-6.76z" class="G"/><path d="M355.512 144.317h5.684v5.684h-5.684z" class="B C D E"/><g class="K"><use xlink:href="#M" y="-28.824" class="G"/><use xlink:href="#M" y="-28.824" class="B C E L"/></g><use xlink:href="#P" class="H"/><use xlink:href="#P" class="B C D E"/><use xlink:href="#O" y="-28.824" class="I"/><path d="M398.235 114.897h-24.257a3.38 3.38 0 0 0 0 6.76h24.257v-6.76z" class="G"/><path d="M355.512 115.493h5.684v5.684h-5.684z" class="B C D E"/><g class="K"><use xlink:href="#M" y="28.824" class="G"/><use xlink:href="#M" y="28.824" class="B C E L"/></g><use xlink:href="#N" y="28.824" class="H"/><use xlink:href="#N" y="28.824" class="B C D E"/><use xlink:href="#O" y="28.823" class="I"/><path d="M477.696 172.544H373.978a3.38 3.38 0 0 0 0 6.76h103.719v-6.76z" class="G"/><g class="B C D E"><path d="M355.512 173.141h5.684v5.684h-5.684z"/><path d="M338.006 119.335c-16.939 0-16.119 12.841-31.419 12.841" class="F"/></g><path d="M300.904 132.176h0a2.84 2.84 0 0 1 2.842-2.842h0c1.569 0 2.842 1.272 2.842 2.842h0a2.84 2.84 0 0 1-2.842 2.842h0c-1.57 0-2.842-1.273-2.842-2.842zm37.102-12.841h0c0-1.569 1.272-2.842 2.842-2.842h0c1.569 0 2.842 1.272 2.842 2.842h0a2.84 2.84 0 0 1-2.842 2.842h0c-1.569 0-2.842-1.272-2.842-2.842zm-37.102 28.452h0a2.84 2.84 0 0 1 2.842-2.842h0c1.569 0 2.842 1.272 2.842 2.842h0a2.84 2.84 0 0 1-2.842 2.842h0a2.84 2.84 0 0 1-2.842-2.842zm37.102 0h0a2.84 2.84 0 0 1 2.842-2.842h0c1.569 0 2.842 1.272 2.842 2.842h0a2.84 2.84 0 0 1-2.842 2.842h0c-1.569 0-2.842-1.272-2.842-2.842z" class="J B C D"/><path d="M338.006 147.787h-31.419m31.419 27.453c-16.939 0-16.119-12.841-31.419-12.841" class="E F B C D"/><path d="M300.904 162.399h0a2.84 2.84 0 0 0 2.842 2.842h0c1.569 0 2.842-1.272 2.842-2.842h0c0-1.569-1.272-2.842-2.842-2.842h0a2.84 2.84 0 0 0-2.842 2.842zm37.102 12.841h0c0 1.569 1.272 2.842 2.842 2.842h0c1.569 0 2.842-1.272 2.842-2.842h0a2.84 2.84 0 0 0-2.842-2.842h0c-1.569 0-2.842 1.272-2.842 2.842z" class="J B C D"/><path d="M614.758 179.453h7.172V214h-7.172zm-13.664 21.234v-21.234h7.336v21.234c0 3.672-.57 6.531-1.711 8.578-2.125 3.75-6.18 5.625-12.164 5.625s-10.047-1.875-12.187-5.625c-1.141-2.047-1.711-4.906-1.711-8.578v-21.234h7.336v21.234c0 2.375.281 4.109.844 5.203.875 1.938 2.781 2.906 5.719 2.906 2.922 0 4.82-.969 5.695-2.906.563-1.094.844-2.828.844-5.203zM330.094 419h-8.766l-6.562-11.766L307.828 419h-8.391l11.109-17.602-10.57-16.945h8.625l6.164 11.227 6.328-11.227h8.344l-10.57 16.664zm-42-13.312v-21.234h7.336v21.234c0 3.672-.57 6.531-1.711 8.578-2.125 3.75-6.18 5.625-12.164 5.625s-10.047-1.875-12.187-5.625c-1.141-2.047-1.711-4.906-1.711-8.578v-21.234h7.336v21.234c0 2.375.281 4.109.844 5.203.875 1.938 2.781 2.906 5.719 2.906 2.922 0 4.82-.969 5.695-2.906.563-1.094.844-2.828.844-5.203z" fill-rule="evenodd"/><defs ><path id="B" d="M97.143 196.219c0-1.748-1.417-3.165-3.165-3.165s-3.165 1.417-3.165 3.165 1.417 3.165 3.165 3.165 3.165-1.417 3.165-3.165z"/><path id="C" d="M235.973 226.037a2.21 2.21 0 1 0-4.42 0 2.21 2.21 0 1 0 4.42 0z"/><path id="D" d="M635.723 429.649H491.314a7.2 7.2 0 0 1-7.2-7.2V278.04a7.2 7.2 0 0 1 7.2-7.2h144.409a7.2 7.2 0 0 1 7.2 7.2v144.409a7.2 7.2 0 0 1-7.2 7.2z"/><path id="E" d="M628.723 422.649H484.314a7.2 7.2 0 0 1-7.2-7.2V271.04a7.2 7.2 0 0 1 7.2-7.2h144.409a7.2 7.2 0 0 1 7.2 7.2v144.409a7.2 7.2 0 0 1-7.2 7.2z"/><path id="F" d="M656.886 253.53h-96.503a7.2 7.2 0 0 1-7.2-7.2v-96.503a7.2 7.2 0 0 1 7.2-7.2h96.503a7.2 7.2 0 0 1 7.2 7.2v96.503a7.2 7.2 0 0 1-7.2 7.2z"/><path id="G" d="M559.36 179.561h0c0-1.569-1.272-2.842-2.842-2.842h0c-1.569 0-2.842 1.272-2.842 2.842h0a2.84 2.84 0 0 0 2.842 2.842h0a2.84 2.84 0 0 0 2.842-2.842z"/><path id="H" d="M359.832 443.031H248.243a7.2 7.2 0 0 1-7.2-7.2v-53.887a7.2 7.2 0 0 1 7.2-7.2h111.589a7.2 7.2 0 0 1 7.2 7.2v53.887a7.2 7.2 0 0 1-7.2 7.2z"/><path id="I" d="M352.832 436.031H241.243a7.2 7.2 0 0 1-7.2-7.2v-53.887a7.2 7.2 0 0 1 7.2-7.2h111.589a7.2 7.2 0 0 1 7.2 7.2v53.887a7.2 7.2 0 0 1-7.2 7.2z"/><path id="J" d="M453.869 454.703h-59.045a7.2 7.2 0 0 1-7.2-7.2v-32.038a7.2 7.2 0 0 1 7.2-7.2h59.045a7.2 7.2 0 0 1 7.2 7.2v32.038a7.2 7.2 0 0 1-7.2 7.2z"/><path id="K" d="M198.818 395.599h-54.283c-4.232 0-7.662-3.431-7.662-7.663v-96.419c0-4.232 3.431-7.663 7.662-7.663h54.283c4.232 0 7.662 3.431 7.662 7.663v96.419c0 4.233-3.43 7.663-7.662 7.663z"/><path id="L" d="M199.281 257.13h-55.208a7.2 7.2 0 0 1-7.2-7.2v-80.572a7.2 7.2 0 0 1 7.2-7.2h55.208a7.2 7.2 0 0 1 7.2 7.2v80.572c-.001 3.976-3.224 7.2-7.2 7.2z"/><path id="M" d="M492.199 142.335H343.983a7.2 7.2 0 0 0-7.2 7.2v6.3a7.2 7.2 0 0 0 7.2 7.2h148.216a7.2 7.2 0 0 0 7.2-7.2v-6.3a7.2 7.2 0 0 0-7.2-7.2z"/><path id="N" d="M486.614 136.75H338.398a7.2 7.2 0 0 0-7.2 7.2v6.3a7.2 7.2 0 0 0 7.2 7.2h148.217a7.2 7.2 0 0 0 7.2-7.2v-6.3c-.001-3.976-3.224-7.2-7.201-7.2z"/><path id="O" d="M481.804 143.721H373.978a3.38 3.38 0 0 0-3.38 3.38h0a3.38 3.38 0 0 0 3.38 3.38h107.826a3.38 3.38 0 0 0 3.38-3.38h0a3.38 3.38 0 0 0-3.38-3.38z"/><path id="P" d="M486.614 107.927H338.398a7.2 7.2 0 0 0-7.2 7.2v6.3a7.2 7.2 0 0 0 7.2 7.2h148.217a7.2 7.2 0 0 0 7.2-7.2v-6.3c-.001-3.977-3.224-7.2-7.201-7.2z"/></defs></svg>